<?xml version="1.0" encoding="UTF-8"?>
<svg id="Layer_1" data-name="Layer 1" xmlns="http://www.w3.org/2000/svg" viewBox="0 0 906.42 93.12">
  <defs>
    <style>
      .cls-1 {
        fill: #fff;
        stroke-width: 0px;
      }
    </style>
  </defs>
  <path class="cls-1" d="m901.23,31.31c-2.17-1.26-4.1-1.91-6.2,1.03-3.63,2.32-6.57,5.13-10.35,4.17-3.46,1.86-6.95,8.29-10.47,1.78-5.25-8.67-10.37-5.82-15.6-7.01-6.93-5.19-13.93-2.45-20.88.06-3.88-.06-5.98,2.51-9.46,3.54-1.47,3.18-2.33,5.97-3.87,1.07-4.32,1.49-9.32,8.98-13.53.13-1.94.71-3.49-9.82-5.43-4.36-1.78,4.23-3.67-.13-5.48-.4-2.85,7.48-3.53-.19-6.12-3.54-1.9-9.36-3.89,2.14-5.86-1.13-6.06,3.41-12.12-1.95-18.18.1-3.76,3.08-7.81-12.67-11.51-.21-4.23-5.28-7.79,5.86-11.86,8.9-1.88,8.23-3.58-8.25-5.44,3.92-5.74,8.71-11.29-1.24-17.35,3.43-3.15.8-6.16,7.06-9.13-2.16-2.03,9.84-3.66-10.51-5.6-7.12-3.43-13.97-7.04-10.36-10.78-4.44-4.16-1.63-8.2,1.11-12.26,2.24-4.06,1.8-8.12-2.93-12.31,2.41-3.52-1.03-6.07-3.27-9.13,2.18-4.44-.57-8.83,5.07-13.14.5-3.63,5.65-7.87-15.87-11.59-.5-4.82,6.11-9.64-6.28-14.46,0-4.82-13.65-9.64,18.38-14.46,0-5.03,3.77-10.06-6.97-15.08.04-4.22-13.23-6.92-8.08-10.92-6.55-3.2-3.12-6.59-2.64-9.84-.67-1.86-1.15-3.23,4.63-4.94-4.36-2.04-13.07-3.58-7.96-5.65-2.6-2.26-11.58-3.75-3.92-6.19-4.31-4.44,4.38-10.39,12.65-14.67-.17-2.02-2.83-3.42-2.18-5.55-6.28-2.52-3.89-4.36.82-6.68,2.14-3.33,2.09-6.5,10.93-10.1,6.97-2.1,9.15-3.94-3.6-5.98-1.99-2.12-10.18-5.21-7.94-7.35-.06-1.24-.46-2.17,3.27-3.62,3.66-2.53-.96-5.31,5.67-7.88.44-2.8-7.06-5.44,4.33-8.04-1.53-3.18-6.39-6.75-11.58-10.43-8.27-3.68,6.41-7.46-8.33-11.09-1.09-4.34,1.36-8.68,4.82-13.08,6.07-4.4.17-8.85.06-13.4,2.53-3.9,4.29-7.79-1.17-11.55-2.16-2.83-2.66-4.45-4.96-7.29-6.51-3.86,4.13-7.43-.82-10.87,3.08-2.29,5.72-4.5,5.4-7.02,7.66-1.79.02-3.85.27-5.67.21-5.07-2.85-11.57,2.87-15.99,2.28-3.26,6.57-6.45,1.91-10.14,2.35-2.88-1.84-4.28,6.62-6.65-1.72-.62.36-1.1-5.47-1.79-2.45-1.44-5.99-3.76-1.97-5.24-.57-2.32-1.11-1.57,1.38-3.43,3.54-3.02,6.64-6.38-1.38-9.9,3.41-4.02,4.17-7.87-2.68-11.69.23-3.82.82-7.6,7.6-11.49,3.79-4.8,5.82-9.22,6.97-14.24,5.19-3.59,1.42-8.13-7.22-11.66-6.05-1.03-.94-4.48,3.73-5.51,2.39-.36-1.97-10.64-4.36-10.28-2.39,1.28,6.99-5.46,6.26-8.83,7.85-4.3-5.05-10.53-10.45-14.7-5.76-3.83,10.99-14.86-1.15-19.76.63-2.06.92-6.15,9.07-7.84,4.52-1.05,3.37-5.93-3.66-7.05-.94-2.8-2.83-5.29,9.21-7.88-1.95-1.42-3.35-2.64,1.26-4.2-4.8-2.31,1.53-4.94,8.44-7.3-.44-3.97-6.09-7.32,1.88-11.19,2.39-5.96,4.82-11.72-.75-17.57-1.78-3.05-8.46-3.72-6.16-6.4-5.23-1.9-8.48-1.83-.54-3.73-1.99-2.85,1.03-5.78-12.35-8.59-7.64-5.47-5.32-12.61-14.85-18.5-1.68-2.97-.75-8.56-.38-11.04-.4-.79-2.41-1.17-4.77-1.91-4.73-.83-8.73-2.11-5.76-3.09-3.48-3.68-8.92-7.32-1.47-11.25-2.81-2.87,1.4-4.84,7.18-7.55-1.78-3.74-2.7-7.84-.08-11.66-.52-1.21-2.85-2.54-1.51-3.7.4-1.31-1.28-1.69,2.37-3.19,4.36-1.96,3.77-4.71-.8-6.79-.17-4.16-2.76-8.32-5.53-12.47,0-5.18,2.37-8.98,3.29-13.74,7.48-4.72,1.34-9.02,5.8-14.15,3.96-2.66,1.11-6.81-3.58-9.36-.23-1.73,8.79-2.06,6.95-3.51,5.55-.97-1.3-1.95,3.37-2.96,2.03-4.94-1.86-14.63,7.89-19.97,4.06,0,1.15,0,37.84,0,36.64,0-.21,4.64-.67,4.64-.46,1.61-1.11,3.27-1.7,4.91.38,2.73-5.36,6,4.31,8.7-.17,2.93.06,5.26,8.61,8.18,6.51,3.57,1.78,7.18-2.81,10.39-2.76,1.38,6.45,13.99-5.4,12.61-11.85-.87,3.6,3.12,7.79,3.98,4.19-.16-1.7,9.71-5.88,9.88-4.19.13,1.07,7.82-2.97,7.7-4.04,2.13-8.96,3.73,2.99,6.51,2.32-.06-.44,4.41,1.26,4.46,1.7-2.04,8.17,5.95,4.23,7.99-3.92,4.67,1.24,13.26-.98,18.07.77,4.4,1.55,9.43-12.27,13.88-.1,3.2-1.36,6.67,6.97,9.58,4.69,3.29,0,6.79,3.02,10.29,6.32,5.51-1.49,12.05-7.16,17.66.52,3.68,1.44,7.44-.61,11.11-.06,3.87-6.76,6.3,8.33,10.2,7.08,3.56,1.03,7.91,3.85,11.36-.29,1.15,4.46,1.97,4.23,3.12,2.51,1.57-.44,3.73-1.3,5.35-.13,1.05-4.31,2.45-1.24,3.46-.34,1.35-.08,1.85-1.72,3.15-6.18,1.7.42,5.46,5.05,7.17-.38,2.88-.65,5.77,3.12,8.4,2.22,3.84,5.74,6.58,9.23,11.31,9.34,3.48-8.5,7.07-2.32,10.56-.1,3.07,2.22,6.31.59,9.07-1.34.93-.48,1.68-4.9,2.66-3.29,1.97,2.45,4.21.1,6.3-2.28,3.34-1.78,6.71,4.21,10.05.06,2.27,2.58,6.77,8.5,8.84-.4,4.78-4.27,5.12-1.28,6.52-1.63,3.26-4.69,6.01,10.24,9.8,5.74,2.01,2.68,1.66-4.63,3.92-2.09,2.99-3.89,5.26,6.22,8.37-1.34,3.55-1.68,7.13,6.66,10.82,2.01,4.25,1.01,8.51,3.87,12.76,0,1.08,1.13,2.52,3.33,3.58-.27,3.27,3.92,4.04,6.74,6.87,9.13,2.47,8.15,5.36,2.74,7.9.17,3.54-9.49,6.71,3.22,10.35,2.41,3.64-5.63,7.28-.23,10.92,0,2.38-1.95,5.13-1.03,7.49-.13,2.02-3.83,3.77,8.71,5.8,2.49,5.24,2.58,10.88-1.01,15.64-5.11,2.87-.42,5.15-7.04,8.12-8.56,1.56,2.37,2.52-9.17,3.97-3.66,2.09-3.48,4.24,1.76,6.52-1.03,3.35,9.23,6.94-3.29,10.27.15,4.86,3.75,8.33-3.71,12.65-12.94,2.65-.38,6.48,3.77,9.35-1.09,3.68,4.98,6.65.19,10.15,4.31,1.13-2.2,2.25,11.75,3.37.88,1.1.52,2.2,6.87,3.32,3.69,6.1-4.44,12.51,16.04,18.97,7.35,4.11-2.28,8.27,2.83,12.4-.27,4.13-5.15,8.24-2.83,12.24,1.99,3.46,6.14,6.88,10.95,10.13-2.28,3.35-11.47,5.01-5.84,8.7-4.06,6.54-.65,13.07-2.01,19.61,0,3.76,2.81,7.52,1.11,11.28,0,3.54-1.42,6.19-3.18,9.6,2.32,6.91,3.6,13.43-4.42,19.59,4.48,2.62,3.89,5.47,14.85,8.15,6.76,4.33-.17,8.46,6.53,13.28,8.96,5.49,4.15,9.56-7.18,14.87-3.89,6.99,3.73,13.82-10.13,21-2.66,4.37-3.94,10.49,3.85,14.63-.34,3.3-.71,4.79-3.89,8.57-8.84,3.32-5.84,6.98,9.65,10.27-.19,3.53,1.8,6.7,1.78,10.22,5.05,2.41,9.53,5.03-4.63,7.46-.23,4.09.63,8.18-6.68,12.26,0,4.09-.13,8.18-.67,12.26,0,4.41-12.14,8.91,4.94,13.15,2.81,3.79,9.15,6.26,8.27,10.53,8.73,4.86,6.43,8.05-2.64,12.6-5.36,3.98.42,7.96-.71,11.97-2.11,4.41-.31,8.31-1.51,12.33-6.34,4.43-1.28,7.7-12.44,12.79-4.56,6.51,4.96,13.02,6.95,19.52,0,3.77,4.65,6.41-1.28,10.17-2.26,5.07-5.78,9.79,4.38,14.79,1.78,5.05,1.51,10.43,7.18,15.54,2.72,3.78.94,6.53,1.72,9.99,7.87,4.13,6.32,9.43-4.73,13.89,1.32,3.76,4.1,6.34-3.94,9.81-4.5.63,4.82,11.84-6.37,13.85-6.24V29.68c-.29,0-2.67.94-5.23,1.68l.04-.04Z"/>
</svg>