<?xml version="1.0" encoding="UTF-8"?>
<svg id="Layer_1" data-name="Layer 1" xmlns="http://www.w3.org/2000/svg" viewBox="0 0 910.98 44.47">
  <defs>
    <style>
      .cls-1 {
        fill: #fff;
        stroke-width: 0px;
      }
    </style>
  </defs>
  <path class="cls-1" d="m901.21,14.98c-2.17-.6-4.1-.91-6.2.49-3.63,1.11-6.57,2.45-10.35,1.99-3.46.89-6.95,3.96-10.47.85-5.25-4.14-10.37-2.78-15.6-3.35-6.93-2.48-13.93-1.17-20.88.03-3.88-.03-5.98,1.2-9.46,1.69-1.47,1.52-2.33,2.85-3.87.51-4.32.71-9.32,4.29-13.53.06-1.94.34-3.49-4.69-5.43-2.08-1.78,2.02-3.67-.06-5.48-.19-2.85,3.57-3.53-.09-6.12-1.69-1.9-4.47-3.89,1.02-5.86-.54-6.06,1.63-12.12-.93-18.18.05-3.76,1.47-7.81-6.05-11.51-.1-4.23-2.52-7.79,2.8-11.86,4.25-1.88,3.93-3.58-3.94-5.44,1.87-5.74,4.16-11.29-.59-17.35,1.64-3.15.38-6.16,3.37-9.13-1.03-2.03,4.7-3.66-5.02-5.6-3.4-3.43-6.67-7.04-4.95-10.78-2.12-4.16-.78-8.2.53-12.26,1.07-4.06.86-8.12-1.4-12.31,1.15-3.52-.49-6.07-1.56-9.13,1.04-4.44-.27-8.83,2.42-13.14.24-3.63,2.7-7.87-7.58-11.59-.24-4.82,2.92-9.64-3-14.46,0-4.82-6.52-9.64,8.78-14.46,0-5.03,1.8-10.06-3.33-15.08.02-4.22-6.32-6.92-3.86-10.92-3.13-3.2-1.49-6.59-1.26-9.84-.32-1.86-.55-3.23,2.21-4.94-2.08-2.04-6.24-3.58-3.8-5.65-1.24-2.26-5.53-3.75-1.87-6.19-2.06-4.44,2.09-10.39,6.04-14.67-.08-2.02-1.35-3.42-1.04-5.55-3-2.52-1.86-4.36.39-6.68,1.02-3.33,1-6.5,5.22-10.1,3.33-2.1,4.37-3.94-1.72-5.98-.95-2.12-4.86-5.21-3.79-7.35-.03-1.24-.22-2.17,1.56-3.62,1.75-2.53-.46-5.31,2.71-7.88.21-2.8-3.37-5.44,2.07-8.04-.73-3.18-3.05-6.75-5.53-10.43-3.95-3.68,3.06-7.46-3.98-11.09-.52-4.34.65-8.68,2.3-13.08,2.9-4.4.08-8.85.03-13.4,1.21-3.9,2.05-7.79-.56-11.55-1.03-2.83-1.27-4.45-2.37-7.29-3.11-3.86,1.97-7.43-.39-10.87,1.47-2.29,2.73-4.5,2.58-7.02,3.66-1.79.01-3.85.13-5.67.1-5.07-1.36-11.57,1.37-15.99,1.09-3.26,3.14-6.45.91-10.14,1.12-2.88-.88-4.28,3.16-6.65-.82-.62.17-1.1-2.61-1.79-1.17-1.44-2.86-3.76-.94-5.24-.27-2.32-.53-1.57.66-3.43,1.69-3.02,3.17-6.38-.66-9.9,1.63-4.02,1.99-7.87-1.28-11.69.11-3.82.39-7.6,3.63-11.49,1.81-4.8,2.78-9.22,3.33-14.24,2.48-3.59.68-8.13-.66-11.66-.11-1.03-.45-1.67,1.82-2.69,1.17-4.19,2.15-8.72,2.77-13.09,1.11-3.37-1.18-6.75-.79-10.12-.02-4.3-2.41-9.24-2.01-13.41.22-3.83,5.25-6.62,6.46-10.78,3.13-4.95.46-11.18-.84-16.08,0-2.06.44-1.94.11-3.63-2.05-1.05,1.61-3.04-2.33-4.16-1.03-2.8-1.35-5.29,2.09-7.88-3.24-1.42-1.6-2.64.6-4.2-2.29-2.31.73-4.94,4.03-7.3-.21-3.97-2.91-7.32.9-11.19,1.14-5.96,2.3-11.72-.36-17.57-.85-3.05-4.04-3.72-2.94-6.4-2.5-1.9-4.05-1.83-.26-3.73-.95-2.85.49-5.78-5.9-8.59-3.65-5.47-2.54-12.61-7.09-18.5-.8-2.97-.36-8.56-.18-11.04-.19-.79-1.15-1.17-2.28-1.91-2.26-.83-4.17-2.11-2.75-3.09-1.66-3.68-4.26-7.32-.7-11.25-1.34-2.87.67-4.84,3.43-7.55-.85-3.74-1.29-7.84-.04-11.66-.25-1.21-1.36-2.54-.72-3.7.19-1.31-.61-1.69,1.13-3.19,2.08-1.96,1.8-4.71-.38-6.79-.08-4.16-1.32-8.32-2.64-12.47,0-5.18,1.13-8.98,1.57-13.74,3.57-4.72.64-9.02,2.77-14.15,1.89-2.66.53-6.81-1.71-9.36-.11-1.73,4.2-2.06,3.32-3.51,2.65-.97-.62-1.95,1.61-2.96.97-4.94-.89-9.17,3.77-14.51,1.94,0,.55-5.46,15.84-5.46,15.27,1.91,2.64,2.92,1.37,4.64,2,1.61-.53,3.27-.81,4.91.18,2.73-2.56,6,2.06,8.7-.08,2.93.03,5.26,4.11,8.18,3.11,3.57.85,7.18-1.34,10.39-1.32,4.28-1.7,7.98-6.21,12.61-9.42.97,1.16,3.07-1.78,3.98.08,3.01-.45,7.04-4.61,9.88.48,2.54-.01,4.78-1.02,7.7,1.27,2.13-4.28.91-2.58,3.7-2.89,2.22,1.58,4.97-4.83,7.28-1.23,3.71-.65,4.91-2.48,7.99,4.18,4.67.59,13.26-.47,18.07.37,4.4.74,9.43-5.86,13.88-.05,3.2-.65,6.67,3.33,9.58,2.24,3.29,0,6.79,1.44,10.29,3.02,5.51-.71,12.05-3.42,17.66.25,3.68.69,7.44-.29,11.11-.03,3.87-3.23,6.3,3.98,10.2,3.38,3.56.49,7.91,1.84,11.36-.14,1.15,2.13,1.97,2.02,3.12,1.2,1.57-.21,3.73-.62,5.35-.06,1.05-2.06,2.45-.59,3.46-.16,1.35-.04,1.85-.82,3.15-2.95,1.7.2,5.46,2.41,7.17-.18,2.88-.31,5.77,1.49,8.4,1.06,3.84,2.74,6.58,4.41,11.31,4.46,3.48-4.06,7.07-1.11,10.56-.05,3.07,1.06,6.31.28,9.07-.64.93-.23,1.68-2.34,2.66-1.57,1.97,1.17,4.21.05,6.3-1.09,3.34-.85,6.71,2.01,10.05.03,2.27,1.23,6.77,4.06,8.84-.19,1.44-5.7,1.97-3.76,3.37-3.93,3.26-2.24,9.16.82,12.95-1.33,2.01,1.28,1.66-.57,3.92.64,2.99-1.86,5.26,8.55,8.37,4.94,3.55-.8,7.13,3.18,10.82.96,4.25.48,8.51,1.85,12.76,0,1.08.54,2.52,1.59,3.58-.13,3.27,1.87,4.04,3.22,6.87,4.36,2.47,3.89,5.36,1.31,7.9.08,3.54-4.53,6.71,1.54,10.35,1.15,3.64-2.69,7.28-.11,10.92,0,2.38-.93,5.13-.49,7.49-.06,2.02-1.83,3.77,4.16,5.8,1.19,5.24,1.23,10.88-.48,15.64-2.44,2.87-.2,5.15-3.36,8.12-4.09,1.56,1.13,2.52-4.38,3.97-1.75,2.09-1.66,4.24.84,6.52-.49,3.35,4.41,6.94-1.57,10.27.07,4.86,1.79,8.33-1.77,12.65-6.18,2.65-.18,6.48,1.8,9.35-.52,3.68,2.38,6.65.09,10.15,2.06,1.13-1.05,2.25,5.61,3.37.42,1.1.25,2.2,3.28,3.32,1.76,6.1-2.12,12.51,7.66,18.97,3.51,4.11-1.09,8.27,1.35,12.4-.13,4.13-2.46,8.24-1.35,12.24.95,3.46,2.93,6.88,5.23,10.13-1.09,3.35-5.48,5.01-2.79,8.7-1.94,6.54-.31,13.07-.96,19.61,0,3.76,1.34,7.52.53,11.28,0,3.54-.68,6.19-1.52,9.6,1.11,6.91,1.72,13.43-2.11,19.59,2.14,2.62,1.86,5.47,7.09,8.15,3.23,4.33-.08,8.46,3.12,13.28,4.28,5.49,1.98,9.56-3.43,14.87-1.86,6.99,1.78,13.82-4.84,21-1.27,4.37-1.88,10.49,1.84,14.63-.16,3.3-.34,4.79-1.86,8.57-4.22,3.32-2.79,6.98,4.61,10.27-.09,3.53.86,6.7.85,10.22,2.41,2.41,4.55,5.03-2.21,7.46-.11,4.09.3,8.18-3.19,12.26,0,4.09-.06,8.18-.32,12.26,0,4.41-5.8,8.91,2.36,13.15,1.34,3.79,4.37,6.26,3.95,10.53,4.17,4.86,3.07,8.05-1.26,12.6-2.56,3.98.2,7.96-.34,11.97-1.01,4.41-.15,8.31-.72,12.33-3.03,4.43-.61,7.7-5.94,12.79-2.18,6.51,2.37,13.02,3.32,19.52,0,3.77,2.22,6.41-.61,10.17-1.08,5.07-2.76,9.79,2.09,14.79.85,5.05.72,10.43,3.43,15.54,1.3,3.78.45,6.53.82,9.99,3.76,4.13,3.02,9.43-2.26,13.89.63,3.76,1.96,6.34-1.88,9.81-2.15,3.27.13,11.12.54,12.93-4.4,0-4,5.46-23.79,5.46-20.73-1.82,5.03-7.2,1.83-9.77,2.19Z"/>
</svg>