<?xml version="1.0" encoding="UTF-8"?>
<svg id="Layer_1" data-name="Layer 1" xmlns="http://www.w3.org/2000/svg" viewBox="0 0 228.23 467.96">
  <defs>
    <style>
      .cls-1 {
        fill: #45684c;
        fill-rule: evenodd;
        stroke-width: 0px;
      }
    </style>
  </defs>
  <path class="cls-1" d="m209.63,182.51c2.9,0,5.28,2.37,5.28,5.28,0,7.15.69,14.2-9.15,14.2-26.49,30.29-18.08,58.69-7.46,86.94,10.95,29.12,6.7,62.03-9.08,87.98-2.72,4.47-3.86,9.17-4.11,13.87-.27,5.1.69,10.4,2.59,15.95l13.31,38.91c2.7,7.88,1.08,14.13-2.49,17.99-1.53,1.66-3.42,2.87-5.48,3.58-2.04.7-4.25.91-6.48.59-5.42-.78-10.88-4.7-13.71-12.43l-16.83-45.93c-13.72,7.93-30.05,12.61-48.56,12.61s-34.84-4.68-48.57-12.61l-16.83,45.93c-2.83,7.72-8.29,11.65-13.71,12.43-2.23.32-4.44.1-6.48-.59-2.06-.71-3.94-1.92-5.48-3.58-3.57-3.87-5.18-10.11-2.48-17.99l13.31-38.91c1.9-5.55,2.85-10.85,2.59-15.95-.25-4.7-1.39-9.4-4.11-13.87-15.78-25.96-20.04-58.87-9.09-87.99,10.62-28.25,19.03-56.65-7.46-86.94C-.68,201.99.01,194.94.01,187.79c0-2.91,2.38-5.28,5.28-5.28h156.25l32.03-119.54,15.38,4.12-30.93,115.42h31.61Zm-32.01,209.66c-4.53,4.88-9.6,9.32-15.17,13.19l17.39,47.46c1.76,4.8,4.82,7.2,7.76,7.62,1.04.15,2.07.05,3.01-.27.92-.32,1.75-.85,2.42-1.57,1.87-2.03,2.6-5.63.91-10.56l-13.31-38.91c-1.98-5.79-3.06-11.41-3.02-16.95h0Zm-125.16,13.19c-5.57-3.87-10.63-8.3-15.17-13.19.04,5.54-1.04,11.17-3.02,16.95l-13.31,38.91c-1.69,4.93-.95,8.54.91,10.56.67.72,1.5,1.26,2.42,1.57.94.32,1.97.42,3.01.27,2.95-.42,6-2.82,7.76-7.62l17.4-47.46h0ZM194.26,60.4l15.38,4.12,2.69.72,4.25-15.87-2.62-.7,14.13-41.63c.39-1.16-.04-1.84-1.05-2.11l-9.03-2.42L208.98.08c-1.01-.27-1.72.1-1.96,1.31l-8.58,43.12-2.63-.7-4.25,15.87,2.69.72Z"/>
</svg>