<?xml version="1.0" encoding="UTF-8"?>
<svg id="Layer_1" data-name="Layer 1" xmlns="http://www.w3.org/2000/svg" viewBox="0 0 268.6 268.6">
  <defs>
    <style>
      .cls-1 {
        stroke-width: 4px;
      }

      .cls-1, .cls-2 {
        fill: none;
        stroke: #a54334;
        stroke-miterlimit: 10;
      }

      .cls-2 {
        stroke-width: 6px;
      }
    </style>
  </defs>
  <g>
    <path class="cls-2" d="m50.95,95.95c1.46-7.62,2.83-15.27,6.98-22.04,9.47-15.46,24.28-21.39,41.35-21.81,23.28-.57,46.6-.56,69.89,0,15.81.38,29.88,5.59,39.51,19.29,6.2,8.82,8.51,18.92,8.66,29.36.34,22.38.5,44.78-.02,67.15-.41,18.02-6.68,33.4-23.55,42.56-7.79,4.23-16.34,6.07-25.05,6.17-22.99.26-45.99.49-68.98-.03-17.24-.39-32.23-6.22-41.81-21.83-4.16-6.77-5.51-14.42-6.98-22.04v-76.78Zm83.41-28.07c-11.42,0-22.85-.22-34.26.05-17.84.42-28.8,8.77-32.05,24.13-.69,3.26-1.2,6.63-1.22,9.95-.11,21.62-.39,43.25.05,64.87.44,21.51,11.31,33.01,32.06,33.78,23.43.86,46.91.79,70.35.01,17.28-.57,27.56-8.89,30.86-23.83.59-2.67,1.15-5.41,1.16-8.12.13-24.65,1.48-49.34-.75-73.94-1.32-14.58-11.08-24.1-25.61-26.09-13.49-1.85-27.07-.53-40.6-.81Z"/>
    <path class="cls-2" d="m177.31,134.61c-.07,23.23-19.34,42.32-43.01,42.6-23.74.28-43.44-19.32-43.37-43.16.07-23.44,20.07-43.05,43.47-42.6,24,.46,42.98,19.55,42.91,43.16Zm-16.01-.21c.03-14.79-12.15-26.89-27.11-26.97-14.87-.08-27.22,12.09-27.24,26.84-.02,14.78,12.15,26.89,27.11,26.97,14.86.08,27.22-12.09,27.24-26.84Z"/>
    <path class="cls-2" d="m178.49,80.18c5.73-.07,10.57,4.67,10.54,10.32-.03,5.42-4.68,10.06-10.23,10.21-5.71.16-10.66-4.49-10.76-10.12-.1-5.69,4.56-10.33,10.44-10.41Z"/>
  </g>
  <rect class="cls-1" x="2" y="2" width="264.6" height="264.6" rx="12.61" ry="12.61"/>
</svg>