<?xml version="1.0" encoding="UTF-8"?>
<svg id="Camada_1" data-name="Camada 1" xmlns="http://www.w3.org/2000/svg" viewBox="0 0 648.94 404.21">
  <defs>
    <style>
      .cls-1, .cls-2 {
        fill: #fff;
        stroke-width: 0px;
      }

      .cls-2 {
        fill-rule: evenodd;
      }
    </style>
  </defs>
  <path class="cls-1" d="m594.89,376.16c2.06,0,4.56-1.68,7.49-5.05,9.66-10.85,18.13-25.07,25.4-42.66-14.44,10.75-25.18,21.92-32.24,33.54-2.39,3.8-3.58,7.16-3.58,10.09,0,2.71.98,4.07,2.93,4.07m-3.42,3.42c-4.12,0-6.19-2.06-6.19-6.19,0-3.36,1.46-7.38,4.4-12.05,1.85-2.93,4.21-6.05,7.08-9.36,2.88-3.31,6.32-6.81,10.34-10.5,7.16-6.95,14.76-12.97,22.79-18.07,1.84-4.56,3.45-8.9,4.8-13.02,1.36-4.12,2.52-7.98,3.5-11.56-.76,1.3-4.94,6.4-12.54,15.3-9.23,10.85-15.58,16.28-19.05,16.28-.43,0-.76-.05-.98-.16l-4.88-2.6c-1.52-.87-2.44-1.71-2.77-2.52-.33-.81-.49-1.66-.49-2.52,0-2.93.87-7.11,2.61-12.54,1.74-5.43,4.45-12.05,8.14-19.86,1.63-3.47,3.47-5.21,5.54-5.21,1.52,0,2.98,1.14,4.4,3.42l-7.16,14.16c-5.1,9.99-7.65,16.93-7.65,20.84,0,2.6.87,3.91,2.61,3.91,3.47,0,9.99-5.92,19.54-17.75,3.15-3.8,6.05-7.46,8.71-10.99,2.66-3.53,5.07-6.97,7.25-10.34.76-1.09,1.85-1.63,3.26-1.63,2.61,0,3.91.98,3.91,2.93,0,.43-.16.92-.49,1.47-.87,3.04-2.04,6.76-3.5,11.15-1.47,4.4-3.23,9.58-5.29,15.55,3.47-2.06,6.24-3.09,8.3-3.09.87,0,1.3.22,1.3.65,0,1.09-1.36,2.12-4.07,3.09-1.09.43-2.25.92-3.5,1.47-1.25.54-2.58,1.19-3.99,1.95-7.6,18.89-16.77,34.46-27.51,46.73-6.51,7.38-12.64,11.07-18.4,11.07Zm-14.49-48.35c-2.17,0-4.15-.71-5.94-2.12-1.79-1.41-2.85-2.77-3.18-4.07-.33-1.52,1.68-6.95,6.02-16.28l-3.74,5.37c-1.63,2.39-3.26,4.5-4.88,6.35-1.63,1.85-3.15,3.47-4.56,4.88-4.12,3.91-7.6,5.53-10.42,4.88-6.51-1.52-9.77-5.21-9.77-11.07,0-4.67,2.23-10.64,6.68-17.91,1.41-2.17,3.2-4.34,5.37-6.51,2.17-2.17,4.67-4.29,7.49-6.35,7.27-5.32,14.27-7.98,21-7.98,4.12,0,8.03,1.09,11.72,3.26,1.19.87,1.79,1.79,1.79,2.77,0,.76-.22,1.14-.65,1.14-.11,0-.22-.05-.33-.16-2.28-2.5-5.32-3.74-9.12-3.74-4.45,0-9.28,1.68-14.49,5.05-5.21,3.36-9.88,7.87-14,13.51-5.86,8.14-8.79,14.76-8.79,19.86,0,2.93,1.03,4.78,3.09,5.54,2.6,1.09,8.14-3.74,16.61-14.49,3.47-4.23,6.38-8.03,8.71-11.4,2.33-3.36,4.21-6.24,5.62-8.63.65-1.19,1.85-1.79,3.58-1.79,3.26,0,4.88.98,4.88,2.93,0,.33-.05.54-.16.65-9.44,14.98-14.16,25.13-14.16,30.44,0,1.3.38,2.01,1.14,2.12,2.28.65,6.08-1.03,11.4-5.05,6.4-4.78,12.43-11.12,18.07-19.05,1.19-1.63,2.28-2.44,3.26-2.44.33,0,.49.11.49.33,0,.54-.49,1.57-1.47,3.09-2.28,3.58-4.8,6.95-7.57,10.09-2.77,3.15-5.83,6.08-9.2,8.79-4.78,4.02-8.68,6.51-11.72,7.49-.76.33-1.68.49-2.77.49Zm-60.56.98c-8.36-1.84-12.54-5.64-12.54-11.4,0-1.63.27-3.55.81-5.78.54-2.23,1.41-4.69,2.6-7.41l13.84-31.1c-1.63.22-3.42.43-5.37.65-1.95.22-4.12.43-6.51.65-.43,0-.65-.38-.65-1.14,0-1.52.27-2.39.81-2.61l13.68-1.95,10.58-21.49c.98-1.95,4.02-2.93,9.12-2.93,2.39,0,3.42.27,3.09.81-2.39,3.8-4.8,7.62-7.24,11.48-2.44,3.85-4.86,7.68-7.25,11.48.33-.11,1.03-.22,2.12-.33,1.09-.11,2.5-.22,4.23-.33,1.3-.11,2.55-.19,3.74-.24,1.19-.05,2.33-.08,3.42-.08,4.56,0,6.73.22,6.51.65-.76.76-8.14,2.23-22.14,4.4-11.83,22.36-17.75,38.15-17.75,47.38,0,3.37.98,5.37,2.93,6.02,1.52.43,5.37-1.57,11.56-6.02,3.58-2.6,6.84-5.45,9.77-8.55,2.93-3.09,5.59-6.38,7.98-9.85.76-1.09,1.47-1.63,2.12-1.63.43,0,.65.22.65.65s-.27,1.09-.81,1.95c-4.12,6.62-9.61,12.86-16.44,18.72-6.62,5.75-10.91,8.41-12.86,7.98Zm-42-1.14c-6.3-1.41-9.44-3.91-9.44-7.49,0-1.74,2.12-7.87,6.35-18.4,1.19-2.06,2.79-5.07,4.8-9.04,2.01-3.96,4.53-8.82,7.57-14.57.54-.87,1.74-1.3,3.58-1.3,1.63,0,3.23.24,4.8.73,1.57.49,2.2.95,1.87,1.38-14.33,20.3-21.49,34.35-21.49,42.17,0,2.28.76,3.42,2.28,3.42,2.93,0,7.54-2.06,13.84-6.19,7.49-5.1,13.78-11.23,18.89-18.4,1.09-1.74,2.17-2.61,3.26-2.61.33,0,.49.16.49.49,0,.54-.49,1.57-1.47,3.09-4.78,7.49-11.4,14.11-19.86,19.86-7.6,5.21-12.75,7.49-15.47,6.84Zm24.58-58.77c-1.74.22-3.61,0-5.62-.65-2.01-.65-3.01-1.47-3.01-2.44,0-.65.22-1.33.65-2.03.43-.71.98-1.44,1.63-2.2,1.84-2.28,2.93-3.72,3.26-4.31.33-.6.92-.9,1.79-.9,2.5,0,4.45,1.19,5.86,3.58.11.11.16.33.16.65,0,.98-.54,2.39-1.63,4.23-1.41,2.6-2.44,3.96-3.09,4.07Zm-51.77,83.68c-6.95,0-10.91-4.67-11.88-14-.33-3.15-.49-6.3-.49-9.44,0-6.95,1-14.33,3.01-22.14,2.01-7.81,4.67-15.85,7.98-24.1,3.31-8.25,7.05-16.55,11.23-24.91,4.18-8.36,8.44-16.5,12.78-24.42.76-1.19,1.14-2.23,1.14-3.09,0-.76-.27-1.14-.81-1.14-2.06,0-7.11,3.53-15.14,10.58-4.34,3.8-8.41,7.84-12.21,12.13-3.8,4.29-7.22,8.33-10.26,12.13-4.12,5.32-7.62,9.85-10.5,13.59-2.88,3.75-5.07,6.81-6.59,9.2-1.95,2.93-4.31,6.76-7.08,11.48-2.77,4.72-6,10.28-9.69,16.69-.11.11-1.57,3.47-4.4,10.09-1.85,4.45-3.36,6.68-4.56,6.68-1.84-.22-3.5-.95-4.97-2.2-1.47-1.25-2.09-2.63-1.87-4.15.54-4.67,2.01-10.69,4.4-18.07,2.39-7.38,5.75-16.17,10.09-26.37,8.14-19.54,12.21-30.28,12.21-32.24,0-1.41-1.09-2.12-3.26-2.12-7.92,0-21,10.8-39.24,32.4-18.13,21.6-28,37.34-29.63,47.21-.22,1.52-1.09,2.77-2.6,3.74-1.52.98-3.09,1.47-4.72,1.47-1.74,0-2.61-.6-2.61-1.79,0-6.84,5.32-21.33,15.96-43.47,7.92-16.28,12.59-26.1,14-29.47,2.17-5.32,3.91-10.18,5.21-14.57,1.3-4.4,1.95-7.95,1.95-10.66,0-3.15-.76-5.16-2.28-6.02-1.52-.87-4.02-1.3-7.49-1.3-10.75,0-23.34,3.36-37.77,10.09-4.34,2.06-8.41,4.45-12.21,7.16-3.8,2.71-7.38,5.81-10.75,9.28-7.16,7.49-10.75,14.27-10.75,20.35,0,2.06.27,3.93.81,5.62.54,1.68,1.63,3.18,3.26,4.48,1.3,1.09,3.23,1.93,5.78,2.52,2.55.6,5.35.9,8.38.9,4.78,0,9.66-.65,14.65-1.95.22-.11.54-.16.98-.16s.65.16.65.49c0,.87-.87,1.76-2.61,2.69-1.74.92-3.93,1.71-6.59,2.36-2.66.65-5.45.98-8.38.98-5.53,0-10.75-.92-15.63-2.77-5.64-2.06-8.47-6.3-8.47-12.7,0-4.88,1.57-10.04,4.72-15.47,2.82-4.78,7.54-9.77,14.16-14.98,3.8-2.93,8.38-5.83,13.76-8.71,5.37-2.88,11.07-5.45,17.09-7.73,6.02-2.28,11.99-4.1,17.91-5.45,5.92-1.36,11.32-2.03,16.2-2.03,9.33,0,14,3.47,14,10.42,0,3.47-1.36,8.74-4.07,15.79-2.71,7.06-6.46,15.58-11.23,25.56-3.36,7.05-6.62,14.03-9.77,20.92-3.15,6.89-6.46,13.87-9.93,20.92.11.22,5.75-8.03,16.93-24.75,2.82-4.12,6.21-8.55,10.18-13.27,3.96-4.72,8.6-9.63,13.92-14.73,9.66-9.33,17.04-15.41,22.14-18.23,2.93-1.63,5.86-2.44,8.79-2.44,4.45,0,6.68,2.28,6.68,6.84,0,1.63-.22,3.26-.65,4.88-2.71,6.62-5.92,14.73-9.61,24.34-3.69,9.61-7.92,20.76-12.7,33.46-.22.65-.33,1.09-.33,1.3,0,.11.05.16.16.16.54,0,4.78-6.24,12.7-18.72,4.45-7.16,8.28-13.11,11.48-17.83,3.2-4.72,5.73-8.17,7.57-10.34,15.09-18.67,27.41-31.53,36.96-38.59,3.91-2.93,8.74-4.4,14.49-4.4,4.88,0,7.33,1.52,7.33,4.56,0,2.28-1.41,5.16-4.23,8.63-10.31,13.02-19.48,30.61-27.51,52.75-3.69,10.31-6.59,19.18-8.71,26.62-2.12,7.43-3.17,14.3-3.17,20.59,0,5.64.57,9.44,1.71,11.4,1.14,1.95,2.79,2.93,4.97,2.93,1.52,0,3.17-.24,4.97-.73,1.79-.49,3.77-1.11,5.94-1.87.43-.11.79-.19,1.06-.24.27-.05.52-.08.73-.08.54,0,.81.16.81.49,0,1.09-1.57,2.44-4.72,4.07-3.36,1.95-6.62,2.93-9.77,2.93Zm-207.25-24.75c-2.17,0-4.15-.71-5.94-2.12-1.79-1.41-2.85-2.77-3.18-4.07-.33-1.52,1.68-6.95,6.02-16.28l-3.74,5.37c-1.63,2.39-3.26,4.5-4.88,6.35-1.63,1.85-3.15,3.47-4.56,4.88-4.12,3.91-7.6,5.53-10.42,4.88-6.51-1.52-9.77-5.21-9.77-11.07,0-4.67,2.23-10.64,6.67-17.91,1.41-2.17,3.2-4.34,5.37-6.51,2.17-2.17,4.67-4.29,7.49-6.35,7.27-5.32,14.27-7.98,21-7.98,4.12,0,8.03,1.09,11.72,3.26,1.19.87,1.79,1.79,1.79,2.77,0,.76-.22,1.14-.65,1.14-.11,0-.22-.05-.33-.16-2.28-2.5-5.32-3.74-9.12-3.74-4.45,0-9.28,1.68-14.49,5.05-5.21,3.36-9.88,7.87-14,13.51-5.86,8.14-8.79,14.76-8.79,19.86,0,2.93,1.03,4.78,3.09,5.54,2.6,1.09,8.14-3.74,16.61-14.49,3.47-4.23,6.38-8.03,8.71-11.4,2.33-3.36,4.21-6.24,5.62-8.63.65-1.19,1.85-1.79,3.58-1.79,3.26,0,4.88.98,4.88,2.93,0,.33-.05.54-.16.65-9.44,14.98-14.16,25.13-14.16,30.44,0,1.3.38,2.01,1.14,2.12,2.28.65,6.08-1.03,11.4-5.05,6.4-4.78,12.43-11.12,18.07-19.05,1.19-1.63,2.28-2.44,3.26-2.44.33,0,.49.11.49.33,0,.54-.49,1.57-1.47,3.09-2.28,3.58-4.8,6.95-7.57,10.09-2.77,3.15-5.83,6.08-9.2,8.79-4.78,4.02-8.68,6.51-11.72,7.49-.76.33-1.68.49-2.77.49Zm-54.87-36.96c3.91-2.93,7.16-5.86,9.77-8.79l9.61-11.4c8.9-10.53,13.35-18.29,13.35-23.28,0-.98-.54-1.46-1.63-1.46-1.84,0-4.78,2.66-8.79,7.98-1.19,1.74-2.44,3.42-3.74,5.05-1.3,1.63-2.61,3.31-3.91,5.05-1.63,2.39-3.12,4.72-4.48,7-1.36,2.28-2.63,4.61-3.83,7-.33.43-1,1.74-2.04,3.91-1.03,2.17-2.47,5.16-4.31,8.95Zm-3.26,38.26c-7.71-1.63-11.56-5.21-11.56-10.75,0-3.26,1.03-7.98,3.09-14.16,1.52-4.67,3.61-10.01,6.27-16.04,2.66-6.02,6-12.73,10.01-20.11,9.66-18.13,16.99-27.57,21.98-28.33.43-.11,1.14-.16,2.12-.16,5.32,0,7.98,2.5,7.98,7.49,0,6.84-5.75,16.55-17.26,29.14-6.4,7.16-13.46,13.51-21.16,19.05-4.56,10.85-6.84,18.83-6.84,23.93,0,3.36,1.03,5.37,3.09,6.02,1.63.43,5.43-1.52,11.4-5.86,6.84-4.99,12.7-11.07,17.58-18.23.76-1.09,1.46-1.63,2.12-1.63.43,0,.65.22.65.65s-.27,1.09-.81,1.95c-4.12,6.62-9.5,12.92-16.12,18.89-6.4,5.86-10.58,8.57-12.54,8.14Zm-40.86-1.46c-6.3-1.41-9.44-3.91-9.44-7.49,0-1.74,2.12-7.87,6.35-18.4,1.19-2.06,2.79-5.07,4.8-9.04,2.01-3.96,4.53-8.82,7.57-14.57.54-.87,1.74-1.3,3.58-1.3,1.63,0,3.23.24,4.8.73,1.57.49,2.2.95,1.87,1.38-14.33,20.3-21.49,34.35-21.49,42.17,0,2.28.76,3.42,2.28,3.42,2.93,0,7.54-2.06,13.84-6.19,7.49-5.1,13.78-11.23,18.89-18.4,1.09-1.74,2.17-2.61,3.26-2.61.33,0,.49.16.49.49,0,.54-.49,1.57-1.47,3.09-4.78,7.49-11.4,14.11-19.86,19.86-7.6,5.21-12.75,7.49-15.47,6.84Zm24.58-58.77c-1.74.22-3.61,0-5.62-.65-2.01-.65-3.01-1.47-3.01-2.44,0-.65.22-1.33.65-2.03.43-.71.98-1.44,1.63-2.2,1.84-2.28,2.93-3.72,3.26-4.31.33-.6.92-.9,1.79-.9,2.5,0,4.45,1.19,5.86,3.58.11.11.16.33.16.65,0,.98-.54,2.39-1.63,4.23-1.41,2.6-2.44,3.96-3.09,4.07Zm-103.06,72.94c-1.63,0-3.2-.43-4.72-1.3-1.52-.87-2.28-1.84-2.28-2.93,0-2.82,3.09-16.61,9.28-41.35l10.26-41.19c1.09-4.02,1.63-7.81,1.63-11.4,0-12.26-6.51-18.4-19.54-18.4-2.17,0-4.5.16-7,.49-13.46,1.95-23.82,7.71-31.1,17.26-6.3,8.03-9.44,17.53-9.44,28.49,0,13.68,4.5,20.51,13.51,20.51,7.16,0,16.06-4.61,26.7-13.84.65-.43,1.14-.65,1.47-.65.76,0,1.14.38,1.14,1.14,0,.65-.38,1.3-1.14,1.95-12.48,10.85-23.23,16.28-32.24,16.28-5.75,0-10.31-2.17-13.68-6.51-3.58-4.78-5.37-11.18-5.37-19.21,0-11.83,4.56-22.47,13.68-31.91,10.31-10.64,23.44-16.61,39.4-17.91.76-.11,1.47-.16,2.12-.16h2.12c9.23,0,16.17,2.66,20.84,7.98,4.02,4.45,6.02,10.42,6.02,17.91,0,1.63-.08,3.26-.24,4.88-.16,1.63-.46,3.26-.9,4.88l-8.47,32.4c-4.67,18.34-8.09,33.32-10.26,44.93l4.23-4.07c3.15-3.15,8.3-8.66,15.47-16.52,7.16-7.87,16.28-18.04,27.35-30.53,8.57-9.55,16.04-17.56,22.39-24.01,6.35-6.46,11.69-11.37,16.04-14.73,10.85-8.57,18.45-12.86,22.79-12.86,2.71,0,4.4,2.39,5.05,7.16v.49c-.43-1.63-1.79-2.44-4.07-2.44-2.93,0-7.05,1.52-12.37,4.56-4.34,2.39-10.28,7.27-17.83,14.65-7.54,7.38-16.74,17.2-27.6,29.47-13.89,15.74-25.04,28.25-33.46,37.53-8.41,9.28-14.14,15.33-17.18,18.15-.54.54-1.41.81-2.6.81Z"/>
  <path class="cls-1" d="m502.76,399.14c-.82,0-1.57-.23-2.25-.7-.68-.47-1.08-.92-1.2-1.35-.12-.5.64-2.3,2.28-5.39l-1.42,1.78c-.62.79-1.23,1.49-1.85,2.1-.62.61-1.19,1.15-1.73,1.62-1.56,1.29-2.88,1.83-3.95,1.62-2.47-.5-3.7-1.73-3.7-3.67,0-1.55.84-3.52,2.53-5.93.53-.72,1.21-1.44,2.04-2.16.82-.72,1.77-1.42,2.84-2.1,2.76-1.76,5.41-2.64,7.96-2.64,1.56,0,3.04.36,4.44,1.08.45.29.68.59.68.92,0,.25-.08.38-.25.38-.04,0-.08-.02-.12-.05-.86-.83-2.02-1.24-3.46-1.24-1.69,0-3.52.56-5.49,1.67-1.97,1.11-3.74,2.61-5.31,4.48-2.22,2.7-3.33,4.89-3.33,6.58,0,.97.39,1.58,1.17,1.83.99.36,3.08-1.24,6.29-4.8,1.32-1.4,2.42-2.66,3.3-3.77.88-1.11,1.59-2.07,2.13-2.86.25-.4.7-.59,1.36-.59,1.23,0,1.85.32,1.85.97,0,.11-.02.18-.06.22-3.58,4.96-5.37,8.32-5.37,10.08,0,.43.14.66.43.7.86.22,2.3-.34,4.32-1.67,2.43-1.58,4.71-3.68,6.85-6.31.45-.54.86-.81,1.23-.81.12,0,.18.04.18.11,0,.18-.18.52-.56,1.03-.86,1.19-1.82,2.3-2.87,3.34-1.05,1.04-2.21,2.01-3.49,2.91-1.81,1.33-3.29,2.16-4.44,2.48-.29.11-.64.16-1.05.16m-34.71,1.62c-.16,0-.25-.05-.25-.16,0-.47,1.4-1.33,4.2-2.59.7-.29,1.34-.58,1.91-.89.58-.31,1.07-.58,1.48-.84,2.51-1.62,3.76-3.02,3.76-4.21,0-.9-1.01-1.35-3.02-1.35-4.69-.07-7.04-.97-7.04-2.7,0-.76.37-1.47,1.11-2.16.86-.86,2.3-1.69,4.32-2.48,2.18-.86,4.18-1.29,5.99-1.29,1.61,0,2.82.34,3.64,1.03.37.32.56.72.56,1.19,0,.5-.18.95-.56,1.35-.37.4-.78.59-1.23.59-.82,0-1.28-.48-1.36-1.46,0-.68-.12-1.08-.37-1.19-.25-.11-.9-.16-1.97-.16-1.36,0-2.88.4-4.57,1.19-2.02.9-2.96,1.98-2.84,3.24.08.72,1.65,1.08,4.69,1.08,4.16,0,6.23.88,6.23,2.64,0,1.91-1.79,3.81-5.37,5.72-2.26,1.22-5.02,2.3-8.27,3.23-.45.14-.8.22-1.05.22Zm-16.5-2.48c1.81,0,3.89-1.13,6.23-3.4,2.39-2.26,3.8-4.46,4.26-6.58.04-.18.07-.33.09-.46.02-.13.03-.24.03-.35,0-.22-.04-.43-.12-.65-.78.04-1.58.05-2.41.05h-4.72c-.68,0-1.29-.02-1.82-.05-1.65,1.94-2.67,3.5-3.09,4.69-.49,1.33-.74,2.61-.74,3.83,0,1.94.76,2.91,2.28,2.91Zm10.18-12.4c-.66-.9-1.95-1.35-3.89-1.35-1.48,0-2.45.14-2.9.43-.12.04-.25.11-.37.22-.12.11-.27.23-.43.38,2.3.25,4.83.36,7.59.32Zm-10.37,13.26c-3,0-4.5-1.62-4.5-4.85s1.48-6.33,4.44-9.27c.04-.04.02-.17-.06-.4-.08-.23-.12-.4-.12-.51,0-.22.08-.38.25-.49,1.44-1.01,3.13-1.51,5.06-1.51.54,0,.97.09,1.3.27.41.14.8.29,1.17.43.37.14.72.31,1.05.49,1.56.83,2.65,1.69,3.27,2.59,1.03-.04,1.89-.07,2.59-.11.7-.04,1.23-.07,1.6-.11h.25c.37,0,.56.13.56.38,0,.07-.08.13-.25.16-.45.07-1.04.16-1.76.27-.72.11-1.59.22-2.62.32.12.25.18.54.18.86,0,.25-.02.43-.06.54-.62,2.91-2.24,5.46-4.87,7.66-2.55,2.19-5.04,3.29-7.47,3.29Zm-23.97-1.46c1.28,0,2.98-.61,5.12-1.83,1.11-.61,2.12-1.28,3.02-2,.91-.72,1.69-1.47,2.35-2.26,2.71-3.2,4.07-5.5,4.07-6.9,0-.54-.27-.81-.8-.81-1.52,0-4.44,1.85-8.76,5.55-4.03,3.59-6.05,6.07-6.05,7.44,0,.54.35.81,1.05.81Zm.74,1.73c-1.6,0-2.84-.59-3.7-1.78-.04-.04-.06-.16-.06-.38,0-.86.64-2.64,1.91-5.34.58-1.22,1.16-2.38,1.76-3.48.6-1.1,1.2-2.15,1.82-3.15,3.46-5.57,6.58-9.97,9.38-13.21.66-.72,1.91-1.01,3.76-.86.41.04.62.2.62.49,0,.4-.14.66-.43.81-3.37,2.26-7.88,8.23-13.51,17.9.21-.18.66-.58,1.36-1.19.7-.61,1.69-1.46,2.96-2.53,3.21-2.7,5.53-4.04,6.97-4.04.29.07.68.14,1.17.19.49.05,1.07.12,1.73.19.74,0,1.11.43,1.11,1.29,0,2.41-1.6,5.27-4.81,8.57-1.65,1.69-3.52,3.15-5.62,4.37-2.43,1.44-4.57,2.16-6.42,2.16Zm-22.61-.22c-.58,0-.86-.16-.86-.49,0-.04.04-.16.12-.38,1.93-3.24,4.22-7.85,6.85-13.86.29-.65.78-1.21,1.48-1.7.7-.49,1.3-.73,1.79-.73.54,0,.76.25.68.75-.41.76-.91,1.73-1.48,2.91-.58,1.19-1.25,2.57-2.04,4.15,1.15-1.33,2.86-2.82,5.12-4.48,1.15-.83,2.15-1.51,2.99-2.05.84-.54,1.55-.93,2.13-1.19.58-.25,1.21-.38,1.91-.38.82,0,1.52.18,2.1.54.58.36.86.77.86,1.24,0,.29-.15.6-.46.94-.31.34-.63.51-.96.51-.16,0-.5-.15-1.02-.46-.51-.31-1.06-.46-1.64-.46-.62,0-1.34.16-2.16.48-5.22,2.05-9.73,6.67-13.51,13.86-.25.5-.88.76-1.91.76Zm-8.23-.05c-.82,0-1.57-.23-2.25-.7-.68-.47-1.08-.92-1.2-1.35-.12-.5.64-2.3,2.28-5.39l-1.42,1.78c-.62.79-1.23,1.49-1.85,2.1-.62.61-1.19,1.15-1.73,1.62-1.56,1.29-2.88,1.83-3.95,1.62-2.47-.5-3.7-1.73-3.7-3.67,0-1.55.84-3.52,2.53-5.93.53-.72,1.21-1.44,2.04-2.16.82-.72,1.77-1.42,2.84-2.1,2.76-1.76,5.41-2.64,7.96-2.64,1.56,0,3.04.36,4.44,1.08.45.29.68.59.68.92,0,.25-.08.38-.25.38-.04,0-.08-.02-.12-.05-.86-.83-2.02-1.24-3.46-1.24-1.69,0-3.52.56-5.49,1.67-1.97,1.11-3.74,2.61-5.31,4.48-2.22,2.7-3.33,4.89-3.33,6.58,0,.97.39,1.58,1.17,1.83.99.36,3.09-1.24,6.29-4.8,1.32-1.4,2.42-2.66,3.3-3.77.88-1.11,1.59-2.07,2.13-2.86.25-.4.7-.59,1.36-.59,1.23,0,1.85.32,1.85.97,0,.11-.02.18-.06.22-3.58,4.96-5.37,8.32-5.37,10.08,0,.43.14.66.43.7.86.22,2.3-.34,4.32-1.67,2.43-1.58,4.71-3.68,6.85-6.31.45-.54.86-.81,1.23-.81.12,0,.19.04.19.11,0,.18-.19.52-.56,1.03-.86,1.19-1.82,2.3-2.87,3.34-1.05,1.04-2.21,2.01-3.49,2.91-1.81,1.33-3.29,2.16-4.44,2.48-.29.11-.64.16-1.05.16Zm-65.62.86c2.06,0,4.59-1.13,7.59-3.4-3.37-2.62-5.72-5.45-7.04-8.46-.25-.54-.51-.81-.8-.81-.49,0-1.09.74-1.79,2.21-.54,1.22-.97,2.59-1.3,4.1-.12.58-.18,1.17-.18,1.78,0,3.06,1.17,4.58,3.52,4.58Zm24.56.16c5.35,0,9.89-1.24,13.64-3.72,3.21-2.16,4.81-4.31,4.81-6.47,0-1.22-.56-2.25-1.7-3.07-1.13-.83-2.55-1.47-4.26-1.94-1.71-.47-3.48-.81-5.31-1.02-1.83-.22-3.49-.34-4.97-.38-1.48-.04-2.51-.04-3.09,0-1.44,1.65-3.29,3.52-5.55,5.61-2.26,2.08-4.96,4.39-8.08,6.9,2.02,1.62,4.28,2.7,6.79,3.24,2.59.58,5.16.86,7.71.86Zm-24.93,1.51c-3.66,0-5.49-2.21-5.49-6.63,0-2.3.51-4.73,1.54-7.28.95-2.44,2.04-4.21,3.27-5.28.78-.68,1.42-1.02,1.91-1.02.54,0,.95.44,1.23,1.32.29.88.56,1.79.8,2.72,1.32,4.13,3.41,7.42,6.29,9.87,3.62-2.95,7.45-6.97,11.48-12.08l-2.59-.27c-1.07-.22-1.6-.58-1.6-1.08,0-.61.49-.86,1.48-.75.45.07,1.02.13,1.7.16.68.04,1.47.07,2.38.11,1.03-1.33,1.9-2.52,2.62-3.56.72-1.04,1.29-1.96,1.7-2.75.78-1.55,1.93-2.97,3.46-4.26,1.36-1.08,2.45-1.62,3.27-1.62.45,0,.68.22.68.65,0,.72-.6,1.87-1.79,3.45-.95,1.33-1.97,2.67-3.09,4.02-1.11,1.35-2.26,2.72-3.46,4.12,2.22-.11,4.44-.36,6.66-.75,2.22-.4,4.28-.96,6.17-1.7,1.89-.74,3.44-1.68,4.66-2.83,1.21-1.15,1.9-2.55,2.07-4.21.08-1.04-.19-2.03-.8-2.97-.62-.93-1.52-1.8-2.72-2.59-2.67-1.87-6.38-2.98-11.11-3.34-1.15-.11-2.37-.16-3.64-.16-6.38,0-12.22,1.13-17.52,3.4-5.27,2.23-7.9,4.58-7.9,7.06,0,1.37,1.03,2.57,3.09,3.61.82.29,1.23.5,1.23.65,0,.18-.33.27-.99.27-1.19,0-2.16-.13-2.9-.38-3.17-1.37-4.75-3-4.75-4.91,0-2.7,2.7-5.16,8.08-7.39,5.72-2.34,12.36-3.5,19.93-3.5,1.4,0,3.09.06,5.06.19,1.98.13,4.01.37,6.11.73,2.1.36,4.06.91,5.89,1.65,1.83.74,3.32,1.72,4.47,2.94,1.15,1.22,1.73,2.77,1.73,4.64,0,1.47-.48,2.78-1.45,3.91-.97,1.13-2.24,2.11-3.82,2.94-1.58.83-3.33,1.52-5.25,2.08-1.91.56-3.83.99-5.74,1.29-1.91.31-3.65.49-5.21.57,2.06.11,4.24.25,6.54.43,2.3.18,4.47.48,6.51.89,2.04.41,3.7,1.02,5,1.81,1.3.79,1.94,1.87,1.94,3.24,0,1.44-.4,2.84-1.2,4.21-.8,1.37-2.09,2.68-3.86,3.94-4.15,2.98-9.67,4.48-16.54,4.48-1.44,0-2.93-.07-4.47-.22-1.54-.14-3.14-.36-4.78-.65-2.63-.5-5.12-1.65-7.47-3.45-3.74,2.88-6.69,4.31-8.82,4.31Zm-37.61-.92c-.16,0-.25-.05-.25-.16,0-.47,1.4-1.33,4.2-2.59.7-.29,1.34-.58,1.91-.89.58-.31,1.07-.58,1.48-.84,2.51-1.62,3.76-3.02,3.76-4.21,0-.9-1.01-1.35-3.02-1.35-4.69-.07-7.03-.97-7.03-2.7,0-.76.37-1.47,1.11-2.16.86-.86,2.3-1.69,4.32-2.48,2.18-.86,4.18-1.29,5.99-1.29,1.61,0,2.82.34,3.64,1.03.37.32.56.72.56,1.19,0,.5-.18.95-.56,1.35-.37.4-.78.59-1.23.59-.82,0-1.28-.48-1.36-1.46,0-.68-.12-1.08-.37-1.19-.25-.11-.91-.16-1.98-.16-1.36,0-2.88.4-4.57,1.19-2.02.9-2.96,1.98-2.84,3.24.08.72,1.65,1.08,4.69,1.08,4.16,0,6.23.88,6.23,2.64,0,1.91-1.79,3.81-5.37,5.72-2.26,1.22-5.02,2.3-8.27,3.23-.45.14-.8.22-1.05.22Zm-16.5-2.48c1.81,0,3.89-1.13,6.23-3.4,2.39-2.26,3.8-4.46,4.26-6.58.04-.18.07-.33.09-.46.02-.13.03-.24.03-.35,0-.22-.04-.43-.12-.65-.78.04-1.58.05-2.41.05h-4.72c-.68,0-1.29-.02-1.82-.05-1.65,1.94-2.67,3.5-3.09,4.69-.49,1.33-.74,2.61-.74,3.83,0,1.94.76,2.91,2.28,2.91Zm10.18-12.4c-.66-.9-1.95-1.35-3.89-1.35-1.48,0-2.45.14-2.9.43-.12.04-.25.11-.37.22-.12.11-.27.23-.43.38,2.3.25,4.83.36,7.59.32Zm-10.37,13.26c-3,0-4.5-1.62-4.5-4.85s1.48-6.33,4.44-9.27c.04-.04.02-.17-.06-.4-.08-.23-.12-.4-.12-.51,0-.22.08-.38.25-.49,1.44-1.01,3.13-1.51,5.06-1.51.53,0,.97.09,1.3.27.41.14.8.29,1.17.43.37.14.72.31,1.05.49,1.56.83,2.65,1.69,3.27,2.59,1.03-.04,1.89-.07,2.59-.11.7-.04,1.23-.07,1.6-.11h.25c.37,0,.56.13.56.38,0,.07-.08.13-.25.16-.45.07-1.04.16-1.76.27-.72.11-1.59.22-2.62.32.12.25.18.54.18.86,0,.25-.02.43-.06.54-.62,2.91-2.24,5.46-4.87,7.66-2.55,2.19-5.04,3.29-7.47,3.29Zm-13.05-12.24c1.48-.97,2.71-1.94,3.7-2.91l3.64-3.77c3.37-3.49,5.06-6.06,5.06-7.71,0-.32-.21-.49-.62-.49-.7,0-1.81.88-3.33,2.64-.45.58-.93,1.13-1.42,1.67-.49.54-.99,1.1-1.48,1.67-.62.79-1.18,1.56-1.7,2.32-.52.75-1,1.53-1.45,2.32-.12.14-.38.58-.77,1.29-.39.72-.94,1.71-1.64,2.97Zm-1.23,12.67c-2.92-.54-4.38-1.73-4.38-3.56,0-1.08.39-2.64,1.17-4.69.58-1.55,1.37-3.32,2.38-5.31,1.01-2,2.27-4.22,3.8-6.66,3.66-6,6.44-9.13,8.33-9.38.16-.04.43-.05.8-.05,2.02,0,3.02.83,3.02,2.48,0,2.26-2.18,5.48-6.54,9.65-2.43,2.37-5.1,4.48-8.02,6.31-1.73,3.59-2.59,6.24-2.59,7.93,0,1.11.39,1.78,1.17,1.99.62.14,2.06-.5,4.32-1.94,2.59-1.65,4.81-3.67,6.66-6.04.29-.36.56-.54.8-.54.16,0,.25.07.25.22s-.1.36-.31.65c-1.56,2.19-3.6,4.28-6.11,6.25-2.43,1.94-4.01,2.84-4.75,2.7Zm-24.22-.38c-.58,0-.86-.16-.86-.49,0-.04.04-.16.12-.38,1.93-3.24,4.22-7.85,6.85-13.86.29-.65.78-1.21,1.48-1.7.7-.49,1.3-.73,1.79-.73.53,0,.76.25.68.75-.41.76-.91,1.73-1.48,2.91-.57,1.19-1.25,2.57-2.04,4.15,1.15-1.33,2.86-2.82,5.12-4.48,1.15-.83,2.15-1.51,2.99-2.05.84-.54,1.55-.93,2.13-1.19.58-.25,1.21-.38,1.91-.38.82,0,1.52.18,2.1.54.58.36.86.77.86,1.24,0,.29-.15.6-.46.94-.31.34-.63.51-.96.51-.16,0-.5-.15-1.02-.46-.51-.31-1.06-.46-1.64-.46-.62,0-1.34.16-2.16.48-5.22,2.05-9.73,6.67-13.51,13.86-.25.5-.89.76-1.91.76Zm-8.23-.05c-.82,0-1.57-.23-2.25-.7-.68-.47-1.08-.92-1.2-1.35-.12-.5.64-2.3,2.28-5.39l-1.42,1.78c-.62.79-1.23,1.49-1.85,2.1-.62.61-1.19,1.15-1.73,1.62-1.56,1.29-2.88,1.83-3.95,1.62-2.47-.5-3.7-1.73-3.7-3.67,0-1.55.84-3.52,2.53-5.93.53-.72,1.21-1.44,2.04-2.16.82-.72,1.77-1.42,2.84-2.1,2.76-1.76,5.41-2.64,7.96-2.64,1.56,0,3.04.36,4.44,1.08.45.29.68.59.68.92,0,.25-.08.38-.25.38-.04,0-.08-.02-.12-.05-.86-.83-2.02-1.24-3.46-1.24-1.69,0-3.52.56-5.49,1.67-1.97,1.11-3.74,2.61-5.31,4.48-2.22,2.7-3.33,4.89-3.33,6.58,0,.97.39,1.58,1.17,1.83.99.36,3.08-1.24,6.29-4.8,1.32-1.4,2.42-2.66,3.3-3.77.89-1.11,1.59-2.07,2.13-2.86.25-.4.7-.59,1.36-.59,1.23,0,1.85.32,1.85.97,0,.11-.02.18-.06.22-3.58,4.96-5.37,8.32-5.37,10.08,0,.43.14.66.43.7.86.22,2.3-.34,4.32-1.67,2.43-1.58,4.71-3.68,6.85-6.31.45-.54.86-.81,1.23-.81.12,0,.18.04.18.11,0,.18-.18.52-.56,1.03-.86,1.19-1.82,2.3-2.87,3.34-1.05,1.04-2.21,2.01-3.49,2.91-1.81,1.33-3.29,2.16-4.44,2.48-.29.11-.64.16-1.05.16Zm-47.23,5.07c-4.11,0-7.38-1.17-9.81-3.51-2.22-2.16-3.33-4.89-3.33-8.2,0-2.44.64-4.89,1.91-7.33,2.3-4.38,5.63-8.36,9.97-11.92,4.34-3.56,9.74-6.45,16.2-8.68,3.09-1.08,6.05-1.62,8.89-1.62s5.06.51,6.79,1.54c1.73,1.02,2.59,2.4,2.59,4.12,0,.86-.15,1.77-.46,2.72-.31.95-.94,1.95-1.88,2.99-2.26,2.62-4.92,4.76-7.96,6.42-1.56.79-3.01,1.33-4.35,1.62-1.34.29-2.6.43-3.79.43-2.92,0-4.61-1.22-5.06-3.67v-.22c0-.47.31-.7.93-.7.58,0,.89.23.93.7.33,1.83,1.48,2.75,3.46,2.75s4.15-.75,6.66-2.26c1.32-.75,2.51-1.59,3.58-2.51,1.07-.92,2.06-1.9,2.96-2.94,1.93-2.34,2.9-4.3,2.9-5.88,0-2.55-2.08-3.83-6.23-3.83-2.84,0-5.8.61-8.89,1.83-3.13,1.22-6.03,2.63-8.7,4.23-2.67,1.6-5.12,3.41-7.34,5.42-3.37,3.05-5.9,6.25-7.59,9.6-1.23,2.41-1.85,4.82-1.85,7.23,0,2.77.82,4.98,2.47,6.63,1.93,1.91,4.73,2.86,8.39,2.86.78,0,1.6-.04,2.47-.13.86-.09,1.77-.22,2.72-.4,3.91-.75,8.56-2.61,13.95-5.55,4.2-2.26,7.26-4.19,9.2-5.77,1.32-1.08,2.2-1.62,2.65-1.62.08,0,.12.04.12.11,0,.25-.27.59-.8,1.03-2.02,1.55-3.78,2.88-5.31,3.99-1.52,1.11-2.78,1.98-3.76,2.59-2.39,1.51-4.74,2.79-7.07,3.83-2.32,1.04-4.62,1.92-6.88,2.64-3.13.97-6.01,1.46-8.64,1.46Z"/>
  <path class="cls-2" d="m369.66,121.11c3.31-1.78,9.61-5.1,16.35-8.98,6.73-3.88,13.9-8.33,17.51-10.49,3.61-2.16,3.67-2.05,2.97-1.07-.7.97-2.16,2.81-6.05,5.73-3.88,2.92-10.19,6.94-15.78,9.86-5.59,2.92-10.46,4.76-13.5,5.77-3.04,1.02-4.24,1.22-4.69,1.2-.44-.01-.13-.24,3.18-2.02m62.59-11.12c.09-1.86.07-5.58.07-7.43q0-1.86.22-1.78c.23.07.69.22,1.99.56,1.3.33,3.44.85,5.32,1.11,1.87.26,3.47.26,4.27.27.81,0,.82.02.87.26.05.24.14.71.14,2.55,0,1.83-.07,5.03-.24,7.04-.17,2.01-.43,2.84-.56,3.26l-.13.42-.3-.13c-.3-.13-.91-.39-2.29-.95-1.38-.56-3.54-1.41-5.09-1.96-1.55-.55-2.51-.8-3.2-.97-.69-.17-1.11-.27-1.23-.32-.12-.05.07-.05.15-1.91Zm-19.04-4.75c4.67,2.65,13.77,7.75,21.56,11.71,7.78,3.96,14.25,6.76,18.33,8.42,4.08,1.66,5.78,2.17,7.1,2.07,1.33-.09,2.29-.79,2.3-1.73,0-.94-.93-2.13-1.48-2.8-.55-.67-.7-.82-2.96-1.67s-6.63-2.39-8.82-3.17q-2.19-.77-2.1-2.24c.08-1.47.25-4.41.32-7.18.07-2.77.03-5.37-.06-6.63-.08-1.26-.22-1.19-.5-1.09-.28.09-.72.21-1.66.29-.94.08-2.39.14-4.77-.36-2.37-.5-5.67-1.55-7.75-2.2-2.08-.64-2.95-.87-3.44-.78-.49.08-.6.48-.55.73.06.24.28.34.55.46.26.12.57.27.74.56.18.28.24.7.29,1.25.06.56.11,1.25.16,2.9.05,1.65.08,4.25.05,5.54-.04,1.29-.15,1.27-.52,1.15-.37-.12-.99-.35-4.52-1.77-3.53-1.42-9.98-4.04-13.37-5.32-3.39-1.28-3.73-1.22-3.78-1.1-.05.12.2.31,4.87,2.96Zm-56.66,1.59c-.36-1.62-.57-4.61-.86-7.66-.28-3.06-.63-6.18-.31-8.91.31-2.73,1.29-5.07,1.84-6.16.55-1.08.68-.91.89-.34.21.57.49,1.55.61,3.45.12,1.9.08,4.72.01,7.14s-.15,4.47-.12,6.4c.03,1.93.18,3.75.09,5.1-.1,1.34-.44,2.21-.87,2.53-.42.31-.92.08-1.28-1.54Zm-30.87-75.06c.67-.67,1.51-2.28,2.91-3.47,1.4-1.19,3.38-1.96,5.05-2.52,1.66-.56,3.01-.9,3.71-1.71.7-.8.76-2.06.01-3.2-.75-1.13-2.29-2.14-4.36-2.97-2.06-.83-4.65-1.49-6.32-2.21-1.68-.72-2.45-1.49-2.7-2.55-.24-1.06.04-2.41,1.53-4.1,1.49-1.69,4.19-3.73,5.98-5.13,1.79-1.41,2.68-2.18,2.87-2.77.19-.59-.33-.99-1.51-1.1-1.18-.11-3.01.06-5.16,1.23-2.15,1.18-4.62,3.35-6.05,5.29-1.43,1.94-1.84,3.63-1.85,5.72-.01,2.09.36,4.59,1.69,6.05,1.33,1.46,3.63,1.89,5.71,2.19,2.08.3,3.94.47,4.95.67,1,.2,1.15.43,1,.73-.14.3-.57.67-1.65,1.12-1.08.44-2.8.96-4.04,1.79-1.25.83-2.02,1.98-2.52,3.21-.5,1.23-.73,2.55-.59,3.34.14.79.66,1.05,1.33.37Zm-3.91,14.51c-.11.08-.13.22-.49,3.19-.36,2.97-1.07,8.76-1.42,11.65q-.35,2.89,1.18,2.12c1.53-.77,4.6-2.32,6.2-3.2,1.6-.87,1.73-1.07,1.85-3.26.12-2.19.21-6.38.2-8.47-.02-2.09-.15-2.09-.82-2.14-.68-.05-1.9-.15-3.01-.16-1.12,0-2.14.07-2.75.12-.61.05-.81.07-.92.15Zm-11.65,32.96c.36,3.39.24,10.44.31,13.81.07,3.37.35,3.04.87,1.05.52-1.99,1.3-5.66,1.73-9.22.44-3.56.54-7.03.64-8.76.1-1.73.2-1.73,2.7-2.87,2.51-1.13,7.42-3.4,12.71-5.91,5.3-2.51,10.98-5.25,14.74-7.55,3.76-2.31,5.61-4.18,7.05-6.09,1.45-1.92,2.49-3.89,2.32-4.69-.17-.8-1.57-.42-3.85.67-2.28,1.1-5.45,2.92-8.4,4.4-2.95,1.48-5.7,2.63-7.1,3.2-1.41.57-1.48.57-1.57-.64-.09-1.21-.19-3.63-.14-5.9.05-2.27.25-4.39.31-5.43.06-1.05-.01-1.02-.81-1.06-.8-.04-2.32-.14-4.35-.25-2.03-.11-4.57-.24-5.83-.35-1.26-.11-1.23-.21-.76-1.03.47-.82,1.4-2.37,2.03-3.17.64-.8.98-.85,2.42-.72,1.43.12,3.95.42,5.71.72,1.76.3,2.75.6,3.91.69,1.16.09,2.48-.04,3.86-.5,1.38-.46,2.83-1.26,3.28-1.73.45-.47-.1-.62-1.38-.87-1.28-.25-3.3-.6-5.91-.79-2.6-.19-5.8-.21-8.11-.24-2.32-.02-3.76-.05-4.57,0-.81.05-.98.17-1.32.7-.34.52-.84,1.45-1.81,2.94-.97,1.5-2.42,3.56-3.1,4.69-.69,1.12-.61,1.3-.37,1.38.24.09.64.09,1.12.09s1.06,0,1.32.2c.26.2.21.6.19.91-.03.31-.03.54-.29,3.61-.26,3.08-.79,9.01-1.06,12-.27,2.99-.3,3.04-.51,3.18-.21.14-.61.36-3.81,1.92-3.2,1.56-9.21,4.45-13.82,6.88-4.61,2.43-7.83,4.4-9.68,5.63-1.86,1.23-2.36,1.73-2.44,2.41-.09.67.24,1.52,1.6,1.74,1.36.22,3.75-.17,7.28-1.6,3.53-1.42,8.19-3.86,10.94-5.22,2.75-1.36,3.6-1.63,3.96,1.76Zm59.69-24.68c2.69,2.09,7.9,5.33,13.72,8.77,5.82,3.45,12.25,7.11,15.46,9.03,3.21,1.93,3.21,2.13,3.2,5.84-.02,3.71-.05,10.93.07,15.05.12,4.12.38,5.14.49,5.54.12.4.08.16.15-1.52.07-1.68.23-4.81.64-8.33.41-3.51,1.07-7.4,1.6-9.4.53-1.99.92-2.09,2.39-1.68,1.47.41,4.01,1.34,6.07,2.16,2.06.82,3.64,1.55,5.67,1.91,2.03.36,4.5.36,6.02-.12,1.52-.48,2.08-1.43,1.58-2.13-.49-.69-2.04-1.12-3.18-1.45s-1.86-.56-5.24-2.09c-3.38-1.53-9.41-4.37-17.57-8.64-8.16-4.27-18.45-9.97-24.23-13.37-5.79-3.4-7.07-4.48-7.96-4.7-.89-.21-1.38.45-1.55,1.25-.16.81,0,1.76,2.69,3.86Zm67.88,33.71c1.38-.8,3.8-2.12,5.55-3.03,1.75-.91,2.82-1.41,3.32-1.86.5-.45.42-.85.14-1.18-.29-.34-.79-.61-1.82-.89-1.03-.27-2.61-.55-4.23-1.26-1.62-.71-3.29-1.86-4.2-3.57-.91-1.71-1.06-3.98-.07-6.53.99-2.56,3.1-5.4,4.75-7.39,1.65-1.99,2.82-3.14,3.34-3.1.52.04.4,1.26-.31,2.84-.71,1.58-2.01,3.53-3,5.26-1,1.73-1.7,3.25-2.02,4.46-.32,1.21-.27,2.11.82,3.23,1.1,1.12,3.24,2.47,5.14,3.39,1.89.92,3.54,1.42,4.46,2.08.92.66,1.12,1.48.85,2.31-.27.82-1.02,1.65-2.48,2.36-1.46.71-3.63,1.31-5.42,1.9-1.8.59-3.22,1.16-4.3,1.55-1.08.39-1.83.59-2.03.55-.2-.04.15-.31,1.53-1.11Zm-115.38,70.94c-1.68-.04-3.3-.07-4.88-.09l.09-.76c.15-1.26.45-3.79.66-6.93.21-3.14.32-6.91.4-9.31s.11-3.44.04-3.93c-.08-.49-.26-.43-2-.46-1.73-.03-5.01-.14-9.69-.15-4.68,0-10.76.08-15.78.11-5.02.03-8.97,0-11.77-.13-2.8-.12-4.43-.33-5.71-.71-1.27-.38-2.17-.92-2.96-.96-.78-.04-1.44.43-1.71,1.33-.27.89-.16,2.21-.13,2.87.03.66-.02.65-.49.63-.48-.02-1.38-.04-2.77-.24-1.39-.2-3.28-.57-4.22-.81-.94-.24-.94-.35-.85-1.55.09-1.2.26-3.49.42-4.65.16-1.16.31-1.18,2.25-1.2,1.94-.02,5.66-.03,10.47.09,4.8.12,10.69.37,18.45.83,7.76.46,17.41,1.14,23.04,1.51,5.63.36,7.25.41,8.07.46.81.05.82.09.83.7.02.61.04,1.77-.06,4.26-.11,2.49-.35,6.29-.68,9.86-.33,3.57-.76,6.92-.95,8.64-.02.22-.04.42-.06.59Zm-236.01,19.56c-1.65.29-2.91.6-3.74,1.08-.83.48-1.22,1.13-1.37,1.7-.15.57-.07,1.05.22,1.33.28.28.76.37,6.14-.28,5.38-.65,15.66-2.05,29.33-3.79,13.68-1.74,30.75-3.83,47.04-5.6,16.29-1.76,31.79-3.2,45.88-4.49,14.09-1.28,26.76-2.42,40.68-3.4,13.91-.98,29.07-1.81,41.96-2.11,12.89-.3,23.52-.09,35.71.24,12.19.33,25.96.76,39.07,1.31,13.11.54,25.57,1.2,44.74,2.22,19.17,1.02,45.07,2.41,70.03,3.88,24.97,1.47,49.01,3.02,69.57,4.42,20.56,1.4,37.64,2.65,47.21,3.33,9.57.68,11.62.78,12.7.3,1.08-.48,1.18-1.53.8-2.38-.38-.85-1.23-1.5-10.82-2.28-9.59-.78-27.92-1.68-48.01-2.75-20.08-1.08-41.92-2.33-65.36-3.78-12.64-.78-25.76-1.63-39.39-2.47-.03-.31-.09-.74-.16-1.33-.29-2.19-.86-6.58-1.12-11.84-.26-5.26-.2-11.39-.17-14.46l.03-3.07h1.25c1.25-.03,3.74-.06,7.19-.09,3.45-.03,7.87-.06,10.36-.53,2.49-.47,3.07-1.39,2.58-2.19s-2.04-1.49-5.37-1.93c-3.34-.44-8.47-.65-20.08-.87-11.61-.23-29.7-.49-42.49-.95-12.8-.46-20.31-1.12-24.31-1.5-4-.39-4.49-.5-4.34-.1.14.4.92,1.32,1.83,2.04.92.72,1.98,1.23,4.34,1.52,2.36.29,6.03.34,12.1.66,6.06.32,14.52.89,19.85,1.28,5.33.39,7.54.59,8.71.7,1.18.11,1.32.14,1.55,1.2.23,1.06.54,3.15.66,4.8.11,1.65.03,2.85-.36,3.7-.39.85-1.07,1.33-3.24,1.63-2.16.3-5.8.42-8.47.52-2.67.1-4.36.19-5.2.46-.85.27-.85.73-.67,1,.17.27.52.36,3.45.39,2.94.03,8.47,0,11.57-.01,3.1-.01,3.75-.01,4.11-.04.36-.03.42-.09.4-2.35s-.1-6.74-.14-8.97l-.04-2.24,1.59.1c1.59.1,4.77.3,8.47.57,3.7.27,7.91.62,10.02.79q2.11.17,2.11.99c0,.82,0,2.45-.07,4.77-.07,2.32-.21,5.33-.03,8.99.19,3.65.7,7.95.97,10.91.27,2.88.3,4.48.31,5.3-10.76-.66-21.84-1.33-33.27-1.96-16.77-.93-34.29-1.81-50.22-2.5,1.53-.15,3.13-.31,4.65-.44,4.03-.34,7.52-.49,10.32-.45,2.81.04,4.94.26,6.64.45,1.71.19,2.99.34,3.95.38.96.04,1.6-.04,2.08-.21.48-.17.8-.43.98-.65.18-.22.22-.39.12-.71-.09-.32-.32-.79-.52-1.32-.2-.53-.37-1.11-.42-3-.06-1.88,0-5.07.03-6.66l.03-1.59.97.38c.97.38,2.91,1.13,4.37,1.56,1.46.43,2.44.55,3.08.5.64-.05.94-.25,1.07-.52.13-.26.09-.58-1.5-1.39-1.59-.81-4.74-2.11-6.34-2.81-1.6-.7-1.66-.79-1.72-1.14-.07-.35-.14-.95-.18-1.25q-.04-.3-.04-.29s-.01.03.21.04c.23.01.68.01,1.01-.03.33-.04.53-.13.73-.27.2-.14.4-.34.57-.59.17-.24.32-.53.3-.83-.01-.3-.19-.62-.6-1.03-.42-.42-1.07-.93-1.91-1.5-.83-.57-1.83-1.2-5.32-2.74-3.48-1.53-9.44-3.97-19.77-8.35-10.33-4.38-25.03-10.72-37.55-15.85-12.52-5.13-22.87-9.05-28.3-11.03-5.43-1.97-5.95-1.99-6.26-1.77-.31.23-.43.7.9,1.66,1.33.96,4.1,2.41,8.29,4.5,4.2,2.09,9.82,4.82,15.97,7.6,6.15,2.79,12.82,5.63,21.37,9.14,8.55,3.51,18.99,7.7,26.82,10.92,7.83,3.22,13.05,5.48,15.7,6.67,2.66,1.19,2.75,1.3,2.83,1.71.08.41.13,1.1.14,1.44,0,.34-.03.32-.55.15-.52-.17-1.52-.49-2.75-.67-1.23-.18-2.7-.22-3.56-.24-.86-.02-1.1-.02-.98.24.12.25.61.76,2.04,1.54,1.43.78,3.81,1.84,5.03,2.39,1.22.56,1.3.61,1.4,2.22.1,1.61.24,4.78.3,6.52.07,1.74.07,2.06,0,2.26-.08.2-.23.27-3.3.48-3.07.21-9.06.55-13.99.73-4.93.19-8.79.23-10.78.23s-2.1-.04-2.15-.05c-.05,0-.03,0,.44-1.26.47-1.27,1.39-3.83,1.9-5.52.51-1.69.6-2.5.64-2.93.04-.43.02-.49-.94-.49s-2.86.06-6.63.29c-3.77.24-9.4.65-12.88.93-3.48.28-4.8.43-5.74.77-.94.34-1.51.87-.4,1.07,1.1.21,3.87.09,8.11-.07,4.24-.16,9.95-.37,12.8-.47l2.85-.1-.1.26c-.1.26-.31.79-.68,1.43s-.9,1.39-1.53,2.51c-.63,1.11-1.37,2.58-1.62,3.67-.25,1.09-.03,1.81.15,2.42.07.26.14.49.21.71-6.01-.24-11.68-.45-16.88-.61-3.43-.11-6.65-.2-9.69-.28.01-.44.04-1.14.13-2.48.13-1.94.38-5.21.65-8.67.26-3.45.53-7.08.74-9.16.21-2.08.35-2.61.48-2.87.13-.26.24-.26,2.11-.26,1.87,0,5.48.02,9.89.17,4.41.15,9.61.43,14.36.68,4.76.24,9.08.45,11.82.56,2.75.11,3.92.13,4.53-.31.61-.45.65-1.36.23-2.04-.42-.68-1.3-1.12-3.14-1.45-1.84-.33-4.64-.56-9.97-.83-5.33-.27-13.19-.6-18.63-.8-5.44-.2-8.45-.28-9.95-.32q-1.51-.04-1.51-.25c0-.22-.02-.65-.35-.88-.33-.24-.99-.28-1.48-.08-.49.2-.81.66-.97.88q-.16.23-.97.21c-.81-.02-2.44-.05-6.28-.23-3.84-.18-9.91-.5-15.01-.79-5.1-.29-9.23-.53-13.7-.8-4.46-.27-9.25-.57-13.94-.8-4.7-.23-9.3-.39-11.58-.48-2.28-.09-2.25-.1-2.29-.39-.04-.29-.15-.86-.53-1.15-.37-.29-1.01-.29-1.44-.05-.43.23-.64.7-.75.94l-.11.23-3.1-.08c-3.1-.08-9.3-.25-15.57-.44-6.27-.18-12.6-.38-15.8-.48-3.21-.1-3.29-.1-3.13-.22.16-.12.56-.35,3.53-1.61,2.97-1.26,8.5-3.53,13.71-5.71,5.2-2.18,10.07-4.26,16.63-7.1,6.56-2.84,14.8-6.42,20.3-8.83,5.49-2.4,8.23-3.62,9.99-4.63,1.76-1.01,2.53-1.81,2.63-2.5.1-.7-.47-1.3-1.35-1.58-.87-.29-2.04-.26-3.97.31-1.93.57-4.62,1.69-11.17,4.55-6.55,2.85-16.97,7.44-27.25,11.96-10.29,4.53-20.45,9-30,13.2-9.54,4.2-18.47,8.12-23.41,10.58-4.94,2.46-5.89,3.46-6.34,3.98-.44.52-.38.56.2.57.57.01,1.66-.01,3.16-.34,1.51-.33,3.43-.95,7.14-2.34,3.7-1.39,9.19-3.53,12.96-4.96,3.77-1.43,5.83-2.14,7.03-2.51,1.2-.37,1.55-.39,6.89-.14,5.34.25,15.67.77,22.47,1.17,6.79.4,10.04.68,11.67.87,1.62.18,1.62.27,1.55,1.35-.08,1.08-.23,3.16-.32,4.29-.1,1.13-.14,1.3-.24,1.4-.1.1-.25.12-3.48-.45-3.23-.57-9.53-1.74-14.56-2.6-5.03-.86-8.77-1.4-12.18-1.72-3.4-.32-6.46-.43-8.05-.44-1.59-.01-1.72.08-1.82.24-.1.16-.16.4-.09.64.08.24.29.48.8.69.51.22,1.31.41,3.91.81,2.6.4,7,1.01,12.28,1.92,5.29.91,11.46,2.12,15.02,2.76,3.56.64,4.52.7,5.21.74.69.03,1.13.03,1.51.05.39.02.73.05,1.02,1.39.29,1.34.53,3.98.6,6.59.08,2.61-.01,5.19-.19,6.8-.18,1.61-.47,2.26-.52,2.7-.05.43.12.65.71.82.6.17,1.61.3,2.39.31.78.01,1.32-.1,1.55-.58.23-.49.14-1.35-.04-3.11-.18-1.75-.47-4.4-.44-6.93.02-2.53.35-4.96.51-6.17l.16-1.21,1.34.06c1.34.07,4.03.19,5.37.26l1.34.06-.12,1.1c-.12,1.1-.36,3.31-.67,5.19-.31,1.87-.7,3.41-.86,4.54-.15,1.13-.06,1.84.28,2.22.35.38.95.42,1.55.15.6-.27,1.18-.86,1.55-1.95.37-1.09.52-2.7.75-4.6.23-1.91.53-4.11.76-5.66.23-1.55.38-2.44.46-2.88.08-.44.08-.44.08-.45t2.43.05c2.43.05,7.29.14,14.38.29,7.09.15,16.41.36,21.07.46l4.66.1-.24,3.12c-.24,3.12-.71,9.35-.94,12.47l-.2,2.67c-9.65-.12-17.45-.05-24.95.13-12.42.3-23.99.9-38.04,1.89-14.04.99-30.56,2.38-47.88,3.98-17.32,1.61-35.44,3.44-54.03,5.61-18.6,2.18-37.67,4.7-48.23,6.11-10.56,1.4-12.6,1.68-14.25,1.98Zm122.34-32.04c3.14-.45,9.21-.75,16.47-.29,7.26.46,15.7,1.68,20.62,2.47,4.92.78,6.31,1.13,7.01,1.52.7.39.7.81.62,1.18-.07.37-.22.7-1.1.88-.87.19-2.47.24-5.5-.01-3.04-.25-7.52-.8-12.28-1.37-4.76-.57-9.79-1.17-14.34-1.52-4.56-.35-8.64-.45-11.07-.61-2.43-.16-3.2-.39-3.49-.8-.29-.41-.09-1.01,3.05-1.46Zm-7.06-9.33c-.64.59-1.21,1.93-1.54,3.77-.34,1.84-.44,4.18-.57,6.29-.14,2.1-.31,3.97-.68,5.42-.37,1.44-.95,2.47-1.12,3.44-.17.97.05,1.89.34,2.53.29.64.64.98.95.95.31-.04.59-.46,1.22-1.54.64-1.08,1.63-2.83,2.19-5.08.56-2.25.68-5.02.82-7.77.14-2.75.29-5.49.01-6.95-.27-1.46-.97-1.63-1.61-1.05Zm131.57-41.67c.2-2.11.92-5.87,1.53-8.91.61-3.04,1.11-5.36,1.46-6.99.35-1.63.55-2.58.6-3.05.05-.47-.05-.47-.46-.56-.41-.09-1.13-.26-1.37-.42-.24-.16.01-.31.42-.6.41-.29.98-.71,1.93-.9.95-.19,2.27-.14,5.57.12,3.3.26,8.59.74,14.55,1.16,5.96.42,12.59.8,16.39,1.07,3.8.27,4.77.45,5.93.65,1.16.2,2.51.42,4.35.46,1.85.04,4.19-.11,5.34-.07,1.15.04,1.1.26.6.46-.5.2-1.45.37-2.13.52-.69.15-1.11.27-1.32.5-.21.22-.21.55-.12,1.63.09,1.08.26,2.93.05,4.86-.21,1.93-.81,3.95-1.57,6.01-.76,2.06-1.68,4.15-2.13,6.05-.45,1.89-.42,3.59-.62,4.75-.2,1.16-.62,1.78-.86,1.76-.24-.03-.29-.7-.36-1.66-.07-.96-.17-2.21.06-4.41.24-2.21.81-5.37,1.43-8.58.62-3.2,1.3-6.45,1.56-8.05.26-1.61.11-1.58-.32-1.53-.44.05-1.16.12-2.39,0-1.23-.12-2.98-.45-4.53-.71s-2.89-.46-5.63-.61c-2.74-.15-6.88-.25-11.79-.61-4.91-.36-10.6-.98-14.04-1.37-3.44-.39-4.64-.54-5.22-.51-.59.02-.56.22-.4.56.16.34.46.81.59,1.88.12,1.07.07,2.74-.29,5-.36,2.26-1.03,5.1-1.67,7.55-.64,2.46-1.23,4.53-2.01,5.72-.77,1.2-1.72,1.52-2.36,1.46-.64-.06-.96-.51-.76-2.62Z"/>
  <path class="cls-2" d="m468.43,124.49c.51-.95,1.76-2.72,3.74-4.5,1.98-1.78,4.7-3.58,6.66-5.06,1.96-1.48,3.15-2.66,3.84-3.34.69-.69.86-.89,1.4-.82.54.06,1.43.39,2.68.74,1.25.35,2.84.72,4.51,1.11,1.67.39,3.42.79,4.75,1.03,1.33.25,2.26.35,3.23.46.97.11,1.99.24,2.68.35.69.11,1.03.21,1,.54-.04.32-.46.87-1.35,1.73-.89.86-2.23,2.03-3.38,3.09-1.15,1.06-2.09,2.01-2.82,2.77-.72.76-1.22,1.33-1.42,1.8-.2.46-.1.81.15,1.13.25.32.65.62,1.71.9,1.06.27,2.78.52,4.4.67,1.62.15,3.14.2,4.59.26,1.45.06,2.82.14,4.14.3,1.32.16,2.59.41,3.68.66,1.08.25,1.98.5,2.53.74.55.24.75.46.7.76-.05.3-.35.67-.94,1.15-.59.47-1.46,1.05-2.37,1.58-.91.54-1.86,1.03-2.81,1.57-.95.54-1.9,1.11-2.78,1.66-.89.55-1.71,1.07-2.61,1.67-.9.6-1.87,1.27-2.62,1.82-.75.55-1.27.97-1.63,1.47-.36.5-.56,1.07-.65,1.53-.09.46-.06.81.17,1.13.24.32.69.62,1.3.79.61.16,1.38.19,2.16.17.77-.01,1.55-.06,2.46-.02.91.04,1.96.16,2.57.37.61.21.79.51.65.89-.14.37-.59.82-1.13,1.15-.55.32-1.2.52-2.41,1.32-1.21.8-2.98,2.19-4.99,3.48-2.01,1.28-4.25,2.46-6.21,3.19-1.96.74-3.63,1.03-4.48,1.15-.85.11-.87.04-.87-.31s.03-.97.19-3.03c.16-2.06.46-5.55.61-8.19.15-2.64.15-4.44.05-6-.1-1.56-.3-2.88-.99-3.72-.69-.84-1.86-1.18-3.05-.79-1.2.4-2.42,1.55-3.09,3.33-.67,1.78-.8,4.2-.9,5.39-.1,1.18-.17,1.13-.76.87-.59-.26-1.68-.74-3.09-1.11-1.41-.37-3.13-.65-4.26-.82-1.13-.17-1.68-.25-2.06-.56-.37-.31-.57-.86-.26-1.45.31-.59,1.13-1.21,2.77-2.06,1.63-.85,4.08-1.92,6.11-3.07,2.03-1.15,3.65-2.37,4.56-3.24.91-.87,1.11-1.4,1.18-2.01.07-.61.03-1.31-.2-1.86-.22-.55-.62-.95-1.68-1.28-1.06-.34-2.78-.61-4.55-.66-1.77-.05-3.59.12-5.09.21-1.5.09-2.67.09-3.58.1-.91.01-1.56.04-2-.01-.44-.05-.66-.17-.15-1.12m-324.79,44.92c.06-2.81.63-9.03,1.4-14.05.78-5.02,1.76-8.86,2.45-10.9.68-2.05,1.06-2.31,1.4-2.26.34.06.64.44.7,1.97.06,1.54-.13,4.23-.23,5.52-.09,1.29-.09,1.18,1.44.27,1.54-.91,4.61-2.62,7.43-4.53,2.83-1.92,5.4-4.04,6.94-5.61,1.54-1.57,2.03-2.6,2.01-3.19-.02-.59-.55-.74-1.37-.78-.82-.04-1.92.04-2.77-.04-.85-.08-1.46-.3-1.59-.8-.13-.49.21-1.25.64-1.92.44-.66.97-1.23,1.37-2.09.4-.85.66-1.99.74-3.26.08-1.27-.04-2.67-1-4.27-.97-1.59-2.79-3.38-5.12-4.59-2.33-1.21-5.18-1.86-7.55-2.16-2.37-.3-4.27-.27-4.99-.55-.72-.28-.27-.89.44-1.71.7-.82,1.65-1.84,2.79-3.51,1.14-1.67,2.47-3.98,3.28-5.71.82-1.73,1.12-2.86.87-3.24-.25-.38-1.04,0-2.65.38-1.61.38-4.04.76-7.24,1.59-3.2.83-7.19,2.12-9.23,2.79-2.05.66-2.16.7-1.82.83.34.13,1.14.36,1.63.68.49.32.68.74.4,1.27-.28.53-1.04,1.18-2.14,2.14-1.1.97-2.54,2.26-4.17,3.51-1.63,1.25-3.45,2.46-4.97,3.41-1.52.95-2.73,1.63-3.64,2.24-.91.61-1.52,1.14-1.67,1.44-.15.3.15.38,1.14.87.99.49,2.65,1.4,3.91,2.1,1.25.7,2.09,1.19,2.65,1.59.57.4.87.7.85,1-.02.3-.36.61-.91.97-.55.36-1.31.78-2.07,1.25-.76.47-1.52,1.01-2.22,1.5-.7.49-1.35.95-1.55,1.33-.21.38.02.68.76,1,.74.32,1.99.66,3.24.85,1.25.19,2.5.23,4.46.32,1.95.09,4.61.25,6.96.34,2.35.09,4.4.13,5.88.27,1.48.13,2.39.36,3.15.63.76.27,1.37.57,1.57,1.06.21.49.02,1.18-.91,1.71-.93.53-2.6.91-4.11,1.14-1.52.23-2.88.3-4.25.53-1.37.23-2.73.61-3.62.95-.89.34-1.31.64-1.61.93-.3.28-.49.55-.47.87.02.32.25.7,1.99,1.35,1.74.64,5.01,1.55,7.26,2.24,2.26.68,3.51,1.14,4.25,1.46.74.32.97.51,1.02.68.06.17-.06.32-.42.38-.36.06-.97.02-2.14-.23-1.18-.25-2.92-.7-4.63-1.1-1.71-.4-3.38-.74-5.18-.99-1.8-.25-3.74-.4-5.35-.64-1.61-.25-2.9-.59-3.85-1.02-.95-.44-1.55-.97-1.86-1.69-.3-.72-.3-1.63.17-2.24.47-.61,1.42-.91,3.13-1.01,1.71-.09,4.17.02,6.33-.27,2.16-.28,4.02-.97,4.78-1.29.76-.32.42-.28-.3-.25-.72.04-1.82.08-4.44-.21-2.62-.28-6.75-.89-9.75-1.44-3-.55-4.85-1.04-6.48-1.55-1.63-.51-3.03-1.04-3.74-1.4-.7-.36-.7-.55-.13-.87.57-.32,1.71-.78,3.17-1.35,1.46-.57,3.24-1.25,4.34-1.73,1.1-.47,1.52-.74,1.65-.91.13-.17-.02-.25-.53-.53-.51-.28-1.38-.78-2.31-1.44-.93-.66-1.92-1.5-2.86-2.48-.95-.99-1.86-2.12-2.24-3.05-.38-.93-.23-1.65.76-2.5.99-.85,2.81-1.84,4.44-2.67,1.63-.83,3.07-1.52,4.65-2.22,1.57-.7,3.28-1.42,4.44-1.97,1.16-.55,1.76-.93,1.73-1.12-.04-.19-.72-.19-1.42-.32-.7-.13-1.42-.4-1.9-.76-.47-.36-.7-.82-.53-1.31.17-.49.74-1.02,1.35-1.57.61-.55,1.25-1.12,2.05-1.73.8-.61,1.74-1.25,3.68-1.88,1.93-.63,4.85-1.23,8.53-2.14,3.68-.91,8.12-2.12,11.07-2.88,2.96-.76,4.44-1.06,5.31-.95.87.11,1.14.64,1.23,1.52.09.87.02,2.09-.57,3.49-.59,1.4-1.69,3-2.67,4.36-.99,1.37-1.86,2.5-2.43,3.6-.57,1.1-.83,2.16-.85,2.69-.02.53.21.53.63.53s1.02,0,2.24.17c1.21.17,3.03.51,4.65,1.27,1.61.76,3.01,1.93,4.42,3.17,1.4,1.23,2.81,2.52,3.81,3.87,1,1.35,1.61,2.75,1.76,4.4.15,1.65-.15,3.55-.28,4.57-.13,1.02-.09,1.18.11,1.33.21.15.59.3,1.02.59.44.28.93.7,1.23,1.44.3.74.42,1.8-.38,3.58-.8,1.78-2.5,4.29-5.29,6.69-2.79,2.41-6.66,4.72-9.5,6.11-2.84,1.38-4.66,1.84-5.67,2.22-1,.38-1.19.68-1.57,1.76-.38,1.08-.95,2.94-1.59,5.69-.64,2.75-1.37,6.39-1.95,8.51-.59,2.12-1.04,2.73-.99-.08Zm101.9-97.62c-3.31.48-9.45,1.24-14.59,1.9-5.14.66-9.3,1.22-12.35,1.3-3.05.08-5-.31-6.5-.87-1.5-.56-2.56-1.29-2.74-1.75-.18-.46.51-.66,3.3-1.73,2.79-1.07,7.67-3.02,11.59-4.77,3.92-1.75,6.89-3.3,8.54-4.17,1.65-.87,1.98-1.07,1.53-1.22-.45-.15-1.67-.25-3.31-.59-1.65-.35-3.73-.94-5.26-1.53-1.53-.59-2.52-1.19-2.13-1.62.4-.43,2.18-.69,3.91-1.04,1.73-.35,3.41-.78,7.47-3.48,4.06-2.7,10.49-7.68,14.89-11.03,4.4-3.35,6.78-5.06,8.1-5.82,1.32-.76,1.58-.56,1.91-.02.33.54.73,1.43,2.16,2.89,1.43,1.45,3.91,3.46,7.02,5.42,3.12,1.96,6.88,3.87,9.27,5.56,2.39,1.68,3.41,3.13,3.64,4.7.23,1.57-.33,3.25-1.2,4.52-.87,1.27-2.06,2.13-2.65,2.56q-.59.43-.43.56c.16.13.49.4,1.22,1.53.73,1.14,1.85,3.15,2.13,4.88.28,1.73-.28,3.18-1.43,4.88-1.15,1.7-2.9,3.64-4.86,4.93-1.96,1.29-4.14,1.91-6.08,2.26-1.95.35-3.66.41-4.3.4-.64-.02-.21-.12,1.2-.76,1.42-.64,3.83-1.83,6.13-3.58,2.31-1.75,4.52-4.06,5.29-6.13.77-2.08.12-3.92-1.5-5.06-1.62-1.14-4.19-1.57-5.62-2.14-1.43-.58-1.73-1.3-1.67-1.88.07-.58.49-1.01,1.55-1.22,1.06-.21,2.74-.21,4.22-.46,1.48-.25,2.77-.74,3.68-1.37.91-.63,1.43-1.39,1.43-2.31s-.53-2.01-1.5-2.95c-.97-.94-2.39-1.73-4.73-2.92-2.34-1.19-5.61-2.77-8.21-4.57-2.61-1.8-4.55-3.81-5.56-4.8-1.01-.99-1.07-.96-1.1-.94t-1.76,1.43c-1.73,1.42-5.19,4.25-8.41,6.69-3.22,2.44-6.18,4.48-8.56,5.95-2.37,1.47-4.16,2.36-5.01,2.82-.86.46-.79.49-.45.59.35.1.97.26,2.28.54,1.3.28,3.28.68,4.6.91,1.32.23,1.98.3,2.37.45.4.15.53.38.28.73-.25.35-.87.81-1.88,1.22-1.01.41-2.39.78-4.72,1.98-2.32,1.2-5.59,3.25-7.7,4.6-2.11,1.35-3.07,2.01-3.46,2.39-.4.38-.23.48.84.64,1.07.16,3.05.4,5.05.51,2,.12,4.01.12,5.95.12h5.89c2.06,0,4.3,0,5.18.1.87.1.38.3-2.93.78Zm8.84,22.41c-.21-3.61-.15-10.77.51-16.52.66-5.75,1.91-10.11,2.75-12.35.84-2.24,1.27-2.37,1.91-2.41.64-.03,1.5.03,2,.1.49.07.63.13.64.94.02.81-.08,2.36-.31,4.14-.23,1.78-.59,3.79-1.09,6.55-.49,2.75-1.12,6.25-1.7,9.15-.58,2.9-1.1,5.21-1.57,7.02-.46,1.81-.86,3.13-1.17,4.24-.31,1.1-.54,2-.91,2.41-.36.41-.86.35-1.07-3.26Zm231.27,72.35c.61-.64,1.2-1.8,1.7-3.05.49-1.25.89-2.61,1.25-3.33.36-.73.69-.82,1.93-1.3,1.24-.48,3.38-1.34,6.48-2.47,3.1-1.14,7.16-2.56,9.98-4.14,2.82-1.58,4.4-3.33,5-4.98.59-1.65.2-3.2-.69-4.22-.89-1.02-2.28-1.52-2.92-1.81-.64-.3-.54-.4.05-.84.59-.45,1.68-1.24,3.84-2.85,2.16-1.62,5.39-4.06,6.53-5.82,1.14-1.76.18-2.85-.97-3.78-1.15-.92-2.51-1.68-5.08-2.31-2.57-.63-6.36-1.12-8.57-1.5-2.21-.38-2.84-.64-3.13-.82-.3-.18-.26-.28.2-.78.46-.49,1.35-1.39,2.95-3.22,1.6-1.83,3.91-4.6,5.24-6.33,1.34-1.73,1.7-2.42,1.29-2.51-.41-.08-1.6.45-3.81.68-2.21.23-5.44.16-7.67.05-2.23-.12-3.45-.28-5.16-.66-1.71-.38-3.92-.97-5.67-1.5-1.75-.53-3.03-.99-4.06-1.29-1.02-.3-1.78-.43-2.51-.07-.73.36-1.42,1.22-2.42,2.29-1.01,1.07-2.32,2.36-3.79,3.66-1.47,1.3-3.08,2.62-4.55,3.79-1.47,1.17-2.79,2.19-3.69,3.03-.91.84-1.4,1.5-1.73,2.18-.33.68-.49,1.37-.56,2.06-.07.69-.03,1.39.35,1.96.38.58,1.1,1.04,2,1.3.89.26,1.95.33,3.33.35,1.39.02,3.1-.02,4.5-.07,1.4-.05,2.49-.12,3.48-.12s1.88.07,2.42.21c.54.15.74.38.86.63.12.25.15.51-.26.97-.41.46-1.27,1.12-2.16,1.7-.89.58-1.81,1.07-2.74,1.58-.92.51-1.85,1.04-3,1.67s-2.54,1.35-3.84,2.13c-1.3.77-2.52,1.6-3.38,2.31-.86.71-1.35,1.3-1.52,1.76-.16.46,0,.79.43,1.15.43.36,1.12.76,1.9,1.1.78.35,1.63.64,2.54.89.91.25,1.86.45,2.79.59.92.15,1.81.25,2.72.33.91.08,1.83.15,2.61.25.78.1,1.4.23,1.9.43.49.2.86.46.99.92.13.46.03,1.12-.1,1.96-.13.84-.3,1.86-.38,2.7-.08.84-.08,1.5-.08,2.36v2.94c0,1.02,0,2.01-.02,2.95-.02.94-.05,1.83-.05,2.75s.03,1.88.13,2.51.26.92.58,1.25c.31.33.78.69,1.25.91.48.21.97.28,1.53.25.56-.03,1.19-.17,1.8-.81Z"/>
</svg>