<?xml version="1.0" encoding="UTF-8"?>
<svg id="Layer_1" data-name="Layer 1" xmlns="http://www.w3.org/2000/svg" viewBox="0 0 268.42 268.42">
  <defs>
    <style>
      .cls-1 {
        stroke-width: 6px;
      }

      .cls-1, .cls-2 {
        fill: none;
        stroke: #fff;
        stroke-miterlimit: 10;
      }

      .cls-2 {
        stroke-width: 4px;
      }
    </style>
  </defs>
  <path class="cls-1" d="m94.85,199.67l2.47,1.47c12.06,7.16,25.76,10.94,39.64,10.94,42.93,0,77.86-34.93,77.86-77.86s-34.93-77.86-77.86-77.86-77.86,34.93-77.86,77.86c0,15.15,4.4,29.87,12.72,42.57l1.56,2.38-9.89,32.02,31.36-11.51Z"/>
  <path class="cls-1" d="m104.13,89.18c-1.74.59-3.2,1.63-5.36,3.87-4.77,4.99-7.01,10.21-7.32,17.22-.37,8.05,2.78,16.94,9.87,27.9,11.86,18.31,23.78,29.05,39.54,35.62,8.08,3.37,13.35,5.1,16.83,5.61,2.61.34,7.77-.42,10.97-1.65,2.89-1.12,6.93-3.76,8.72-5.72,2.75-3.03,5.13-9.76,5.13-14.56,0-1.99-.06-2.24-.76-3.03-1.43-1.57-19.21-10.85-21.31-11.13-1.91-.25-2.66.28-5.81,3.95-4.88,5.69-6.39,7.18-7.26,7.18-1.01,0-7.77-3.39-10.99-5.52-7.88-5.22-14.44-12.37-19.57-21.45-.42-.73-.76-1.43-.76-1.6s.9-1.29,1.99-2.47c2.64-2.89,3.51-4.21,4.63-6.93,1.29-3.06,1.23-3.87-.48-8.5-2.47-6.73-3.25-8.83-4.6-12.45-1.4-3.76-2.47-5.41-3.9-6-1.32-.56-8.19-.78-9.56-.34Z"/>
  <rect class="cls-2" x="2" y="2" width="264.42" height="264.42" rx="12.61" ry="12.61"/>
</svg>