<?xml version="1.0" encoding="utf-8"?>
<!-- Generator: Adobe Illustrator 27.9.0, SVG Export Plug-In . SVG Version: 6.00 Build 0)  -->
<svg version="1.1" id="Layer_1" xmlns="http://www.w3.org/2000/svg" xmlns:xlink="http://www.w3.org/1999/xlink" x="0px" y="0px"
	 viewBox="0 0 122.9 67.4" style="enable-background:new 0 0 122.9 67.4;" xml:space="preserve">
<style type="text/css">
	.st0{fill:#FFFFFF;}
</style>
<path class="st0" d="M79.9,51.4c-0.5-0.5-0.3-1.2,0.5-1.5s1.9-0.2,2.4,0.3c3.8,3.6,2,6.5,0.2,9.3c-1.3,2.1-2.6,4.2-0.2,6.2
	c0.6,0.5,0.4,1.2-0.4,1.6S80.6,67.5,80,67c-3.5-3-1.9-5.6-0.2-8.3C81.2,56.4,82.7,54,79.9,51.4z M14.6,28.1h73.7
	c1,0,1.7,0.8,1.7,1.7v12.3h24.1c1.5,0,2.8-0.6,3.8-1.6s1.6-2.3,1.6-3.8v-28c0-1.5-0.6-2.8-1.6-3.8s-2.3-1.6-3.8-1.6H8.8
	C7.3,3.5,6,4.1,5,5c-1,1-1.6,2.3-1.6,3.8v28c0,1.5,0.6,2.8,1.6,3.8s2.3,1.6,3.8,1.6h4V29.9C12.8,28.9,13.6,28.1,14.6,28.1z
	 M86.5,31.6H16.3v10.1h70.2V31.6z M15.2,13.6c-1,0-1.7-0.8-1.7-1.7s0.8-1.7,1.7-1.7H109c1,0,1.7,0.8,1.7,1.7s-0.8,1.7-1.7,1.7H15.2z
	 M98.6,32c1.4,0,2.5,1.1,2.5,2.5s-1.1,2.5-2.5,2.5s-2.5-1.1-2.5-2.5S97.2,32,98.6,32z M108.9,32c1.4,0,2.5,1.1,2.5,2.5
	s-1.1,2.5-2.5,2.5s-2.5-1.1-2.5-2.5S107.5,32,108.9,32z M8.8,0h105.3c2.4,0,4.6,1,6.2,2.6s2.6,3.8,2.6,6.2v28c0,2.4-1,4.6-2.6,6.2
	s-3.8,2.6-6.2,2.6H8.8c-2.4,0-4.6-1-6.2-2.6C1,41.4,0,39.2,0,36.8v-28c0-2.4,1-4.6,2.6-6.2C4.2,1,6.4,0,8.8,0z M15.2,21.8
	c-1,0-1.7-0.8-1.7-1.7s0.8-1.7,1.7-1.7h93.7c1,0,1.7,0.8,1.7,1.7s-0.8,1.7-1.7,1.7H15.2z M21.4,51.4c-0.5-0.5-0.3-1.2,0.5-1.5
	s1.9-0.2,2.4,0.3c3.8,3.6,2,6.5,0.2,9.3c-1.3,2.1-2.6,4.2-0.2,6.2c0.6,0.5,0.4,1.2-0.4,1.6S22,67.5,21.4,67c-3.5-3-1.9-5.6-0.2-8.3
	C22.7,56.4,24.1,54,21.4,51.4z M36,51.4c-0.5-0.5-0.3-1.2,0.5-1.5s1.9-0.2,2.4,0.3c3.8,3.6,2,6.5,0.2,9.3c-1.3,2.1-2.6,4.2-0.2,6.2
	c0.6,0.5,0.4,1.2-0.4,1.6s-1.9,0.3-2.4-0.2c-3.5-3-1.9-5.6-0.2-8.3C37.3,56.4,38.8,54,36,51.4z M50.7,51.4c-0.5-0.5-0.3-1.2,0.5-1.5
	s1.9-0.2,2.4,0.3c3.8,3.6,2,6.5,0.2,9.3c-1.3,2.1-2.6,4.2-0.2,6.2c0.6,0.5,0.4,1.2-0.4,1.6s-1.9,0.3-2.4-0.2c-3.5-3-1.9-5.6-0.2-8.3
	C51.9,56.4,53.4,54,50.7,51.4z M65.3,51.4c-0.5-0.5-0.3-1.2,0.5-1.5s1.9-0.2,2.4,0.3c3.8,3.6,2,6.5,0.2,9.3
	c-1.3,2.1-2.6,4.2-0.2,6.2c0.6,0.5,0.4,1.2-0.4,1.6s-1.9,0.3-2.4-0.2c-3.5-3-1.8-5.6-0.2-8.3C66.6,56.4,68.1,54,65.3,51.4z"/>
</svg>
