<?xml version="1.0" encoding="utf-8"?>
<!-- Generator: Adobe Illustrator 27.9.0, SVG Export Plug-In . SVG Version: 6.00 Build 0)  -->
<svg version="1.1" id="Layer_1" xmlns="http://www.w3.org/2000/svg" xmlns:xlink="http://www.w3.org/1999/xlink" x="0px" y="0px"
	 viewBox="0 0 32 32" style="enable-background:new 0 0 32 32;" xml:space="preserve">
<style type="text/css">
	.st0{fill:#FFFFFF;}
	.st1{fill:none;}
</style>
<path class="st0" d="M29,30.4h-3c-0.2,0-0.4-0.2-0.4-0.4v-3.6H6.4V30c0,0.2-0.2,0.4-0.4,0.4H3c-0.2,0-0.4-0.2-0.4-0.4v-4
	c0,0,0,0,0-0.1c-0.6-0.4-1-1.1-1-1.9v-8c0-1.2,0.9-2.2,2.1-2.3l2.7-9c0.2-0.6,0.7-1,1.3-1h16.5c0.6,0,1.1,0.4,1.3,1l2.7,9
	c1.2,0.1,2.1,1.1,2.1,2.3v8c0,0.8-0.4,1.5-1,1.9c0,0,0,0,0,0.1v4C29.4,30.2,29.2,30.4,29,30.4z M26.4,29.6h2.3v-3.4
	c-0.2,0.1-0.4,0.1-0.6,0.1h-1.6L26.4,29.6z M3.4,29.6h2.3v-3.3H4c-0.2,0-0.4,0-0.6-0.1V29.6z M26,25.6h2c0.9,0,1.6-0.7,1.6-1.6v-8
	c0-0.9-0.7-1.6-1.6-1.6c0,0,0,0,0,0H4c0,0,0,0,0,0c-0.9,0-1.6,0.7-1.6,1.6v8c0,0.9,0.7,1.6,1.6,1.6H26z M4.5,13.6h23l-2.2-7.3H6.7
	L4.5,13.6z M6.9,5.6h18.2l-0.2-0.8c-0.1-0.3-0.3-0.5-0.6-0.5H7.7c-0.3,0-0.5,0.2-0.6,0.5L6.9,5.6z M25,21.4c-1.3,0-2.4-1.1-2.4-2.4
	s1.1-2.4,2.4-2.4s2.4,1.1,2.4,2.4S26.3,21.4,25,21.4z M25,17.4c-0.9,0-1.6,0.7-1.6,1.6s0.7,1.6,1.6,1.6s1.6-0.7,1.6-1.6
	S25.9,17.4,25,17.4z M7,21.4c-1.3,0-2.4-1.1-2.4-2.4s1.1-2.4,2.4-2.4s2.4,1.1,2.4,2.4S8.3,21.4,7,21.4z M7,17.4
	c-0.9,0-1.6,0.7-1.6,1.6s0.7,1.6,1.6,1.6s1.6-0.7,1.6-1.6S7.9,17.4,7,17.4z M22,12.4c-0.1,0-0.2,0-0.3-0.1l-3-4
	c-0.1-0.2-0.1-0.4,0.1-0.5c0.2-0.1,0.4-0.1,0.5,0.1l3,4c0.1,0.2,0.1,0.4-0.1,0.5C22.2,12.3,22.1,12.4,22,12.4z M23,10.5
	c-0.1,0-0.2-0.1-0.3-0.1l-2-2.7c-0.1-0.2-0.1-0.4,0.1-0.5c0.2-0.1,0.4-0.1,0.5,0.1l2,2.7c0.1,0.2,0.1,0.4-0.1,0.5
	C23.1,10.5,23.1,10.5,23,10.5z M30,24.4H2v-0.7h28V24.4z M21,20.4H11v-0.7h10V20.4z M21,18.4H11v-0.7h10V18.4z M29.4,12h-0.7V9h0.7
	L29.4,12z M3.4,12H2.6V9h0.7V12z"/>
<path class="st1" d="M0,0h32v32H0V0z"/>
</svg>
