<?xml version="1.0" encoding="utf-8"?>
<!-- Generator: Adobe Illustrator 27.9.0, SVG Export Plug-In . SVG Version: 6.00 Build 0)  -->
<svg version="1.1" id="Layer_1" xmlns="http://www.w3.org/2000/svg" xmlns:xlink="http://www.w3.org/1999/xlink" x="0px" y="0px"
	 viewBox="0 0 1000 1001" style="enable-background:new 0 0 1000 1001;" xml:space="preserve">
<style type="text/css">
	.st0{fill:#FFFFFF;}
</style>
<path class="st0" d="M886,462.5c-46-49-95-96-144-142c-35-32-76-41-121-22c-12,5-23,11-35,16c-38,17-78,23-120,17c-25-5-48-15-70-26
	c-27-14-54-20-84-14c-24,5-44,16-61,33c-42,41-83,84-125,124c-51,48-72,105-61,173c15,96,99,162,196,157c72-5,124-40,158-104
	c3-6,6-12,9-19c43,42,103,40,143,0c2,4,3,6,4,9c36,82,122,129,209,111c72-15,121-58,143-128C950,578.5,935,515.5,886,462.5z
	 M250,739.5c-81,0-147-67-148-149c0-81,66-147,149-148c80,0,148,66,148,147C400,672.5,334,738.5,250,739.5z M483,383.5
	c0-9,7-17,17-17s18,8,18,17v64c0,10-8,18-18,18c-9,0-17-8-17-18V383.5z M499,635.5c-24-1-45-22-44-46s21-44,45-44s45,21,44,46
	C544,615.5,524,635.5,499,635.5z M746,739.5c-82-2-148-70-146-152c1-82,69-147,152-146c80,2,146,70,145,149
	C895,674.5,829,740.5,746,739.5z M600,277.5c23-11,46-19,72-16c8,1,15,2,23,3c-13-32-51-50-86-41s-60,42-56,75
	C569,291.5,585,284.5,600,277.5z M354,262.5c25,2,47,14,69,24c8,4,16,7,24,10c1-35-25-67-60-74c-34-7-72,13-81,40
	C322,262.5,338,261.5,354,262.5z M837,509.5c43,43,42,108,14,145c3-47-9-86-40-118c-32-32-71-44-116-42
	C730,468.5,794,466.5,837,509.5z M161,517.5c-40,48-29,112-7,135c-3-45,9-84,41-116c31-31,70-44,116-42
	C273,466.5,203,466.5,161,517.5z"/>
</svg>
