<?xml version="1.0" encoding="utf-8"?>
<!-- Generator: Adobe Illustrator 27.9.0, SVG Export Plug-In . SVG Version: 6.00 Build 0)  -->
<svg version="1.1" id="Layer_1" xmlns="http://www.w3.org/2000/svg" xmlns:xlink="http://www.w3.org/1999/xlink" x="0px" y="0px"
	 viewBox="0 0 32 32" style="enable-background:new 0 0 32 32;" xml:space="preserve">
<style type="text/css">
	.st0{fill:#FFFFFF;}
	.st1{fill:none;}
</style>
<path class="st0" d="M12.4,30h-0.7c0-1.3,1.1-2.4,2.4-2.4h16v0.7H14C13.1,28.4,12.4,29.1,12.4,30z M10.4,30H9.6c0-2.4,2-4.4,4.4-4.4
	h16v0.7H14C12,26.4,10.4,28,10.4,30z M8.4,30H7.6c0-3.5,2.9-6.4,6.4-6.4h16v0.7H14C10.9,24.4,8.4,26.9,8.4,30z M6.4,30H5.6
	c0-1.3,0.3-2.5,0.8-3.6H2v-0.7h4.9c0.3-0.5,0.6-0.9,1-1.3H2v-0.7h6.6c0.6-0.5,1.3-1,2-1.3H2v-0.7h0.6v-7.1c0-0.9,0.2-1.8,0.7-2.5
	c0.5-0.8,1.3-1.3,2.2-1.3s1.7,0.5,2.2,1.3c0.4,0.8,0.7,1.6,0.7,2.5v1c0.6-0.3,1.2-0.5,1.9-0.5c0.9,0.1,1.8,0.5,2.3,1.3
	c0.5,0.8,0.8,1.6,0.8,2.5v2.8c0.2,0,0.4,0,0.6,0h4.6v-5.3l-1.4,1.4l-0.5-0.5l6.5-6.5c0.1-0.1,0.4-0.1,0.5,0l6.5,6.5l-0.5,0.5
	l-1.4-1.4v5.3H30v0.7H14C9.8,22.4,6.4,25.8,6.4,30z M25.4,21.6h2.3v-6l-4.1-4.1l-4.1,4.1v6h2.3v-3.1c0-0.2,0.2-0.4,0.4-0.4h3
	c0.2,0,0.4,0.2,0.4,0.4L25.4,21.6L25.4,21.6z M22.4,21.6h2.3v-2.8h-2.3V21.6z M10.4,21.6h2.3v-2.7c0-0.8-0.2-1.5-0.7-2.1
	c-0.4-0.6-1-0.9-1.8-1c-0.7-0.1-1.5,0.2-2,0.7c-0.1,0.1-0.3,0.1-0.4,0.1s-0.2-0.2-0.2-0.3v-1.8c0-0.8-0.2-1.5-0.6-2.2
	c-0.3-0.6-0.9-1-1.6-1s-1.2,0.4-1.6,1c-0.4,0.6-0.6,1.4-0.6,2.2v7.1h1.3V14h0.7v7.6h4.3V18h0.7L10.4,21.6z M24,15.9h-1
	c-0.2,0-0.4-0.2-0.4-0.4v-2c0-0.2,0.2-0.4,0.4-0.4h1c0.2,0,0.4,0.2,0.4,0.4v2C24.4,15.7,24.2,15.9,24,15.9z M23.4,15.1h0.3v-1.3
	h-0.3V15.1z M26.9,9h-0.7V8h0.7L26.9,9z M28.7,8.2L28,7.5L28.5,7l0.7,0.7L28.7,8.2z M24.3,8.2l-0.5-0.5L24.5,7L25,7.5L24.3,8.2z
	 M26.5,7.4c-1,0-1.9-0.8-1.9-1.9s0.8-1.9,1.9-1.9s1.9,0.8,1.9,1.9S27.5,7.4,26.5,7.4z M26.5,4.4c-0.6,0-1.1,0.5-1.1,1.1
	s0.5,1.1,1.1,1.1s1.1-0.5,1.1-1.1S27.1,4.4,26.5,4.4z M30,5.9h-1V5.1h1V5.9z M24,5.9h-1V5.1h1V5.9z M14,4.4h-3V3.6h3V4.4z M9,4.4H2
	V3.6h7V4.4z M28.5,4L28,3.5l0.7-0.7l0.5,0.5L28.5,4z M24.5,4l-0.7-0.7l0.5-0.5L25,3.5L24.5,4z M26.9,3h-0.7V2h0.7L26.9,3z M15,2.4H2
	V1.6h13V2.4z"/>
<path class="st1" d="M0,0h32v32H0V0z"/>
</svg>
