<?xml version="1.0" encoding="utf-8"?>
<!-- Generator: Adobe Illustrator 27.9.0, SVG Export Plug-In . SVG Version: 6.00 Build 0)  -->
<svg version="1.1"
	 id="Layer_1" image-rendering="optimizeQuality" text-rendering="geometricPrecision" shape-rendering="geometricPrecision"
	 xmlns="http://www.w3.org/2000/svg" xmlns:xlink="http://www.w3.org/1999/xlink" x="0px" y="0px" viewBox="0 0 2048 2048"
	 style="enable-background:new 0 0 2048 2048;" xml:space="preserve">
<style type="text/css">
	.st0{fill:#FFFFFF;}
	.st1{fill-rule:evenodd;clip-rule:evenodd;fill:#FFFFFF;}
	.st2{fill:none;}
</style>
<g>
	<path class="st0" d="M936.2,496.3c4.8-12.3-1.3-26.2-13.6-31c-12.3-4.8-26.2,1.3-31,13.6C872,529.1,842.3,574,805,611.2
		c-37.4,37.3-82.4,66.9-132.6,86.4c-12.3,4.8-18.5,18.6-13.7,30.9c4.8,12.3,18.6,18.5,30.9,13.7c56.5-21.9,107.1-55.2,149.1-97
		C880.8,603.2,914.2,552.7,936.2,496.3L936.2,496.3z"/>
	<path class="st0" d="M936.5,479.7c-4.3-12.5-18-19.1-30.5-14.7c-12.5,4.3-19.1,18-14.7,30.5c8.6,24.6,14.5,49.8,18,75.3
		c3.4,25.6,4.3,51.5,2.5,77.4c-0.9,13.2,9.1,24.6,22.3,25.5c13.2,0.9,24.6-9.1,25.5-22.3c2-28.8,1-58-2.9-86.9
		C952.9,535.7,946.2,507.4,936.5,479.7z"/>
	<path class="st0" d="M1367,742.4c12.4,4.6,26.2-1.8,30.8-14.2s-1.8-26.2-14.2-30.8c-64.3-23.6-122.4-57.2-171.1-98
		c-48.5-40.6-87.6-88.3-114.3-140.3c-6-11.8-20.4-16.4-32.2-10.4s-16.4,20.4-10.4,32.2c29.7,58,72.9,110.8,126.1,155.3
		C1234.6,680.5,1297.5,716.9,1367,742.4L1367,742.4z"/>
	<path class="st0" d="M921.4,630.4c-10.6,7.9-12.8,22.9-4.9,33.6s22.9,12.8,33.6,4.9c28.9-21.6,57.9-50.9,83.4-83.1
		c25.8-32.6,48.3-68.3,63.6-102.2c5.4-12.1,0.1-26.3-12-31.7c-12.1-5.4-26.3-0.1-31.7,12c-13.7,30.3-34,62.5-57.4,92.1
		C973,585,947,611.3,921.4,630.4L921.4,630.4z"/>
	<path class="st0" d="M1013.7,265.1c108.6,0,206.9,44,278,115.2c71.2,71.2,115.2,169.5,115.2,278c0,108.6-44,206.9-115.2,278
		c-71.2,71.2-169.5,115.2-278,115.2s-206.9-44-278-115.2c-71.2-71.2-115.2-169.5-115.2-278c0-108.6,44-206.9,115.2-278
		C806.8,309.2,905.1,265.1,1013.7,265.1L1013.7,265.1z M1257.8,414.2c-62.5-62.5-148.8-101.1-244.1-101.1
		c-95.3,0-181.6,38.6-244.1,101.1C707.1,476.7,668.5,563,668.5,658.4c0,95.3,38.6,181.6,101.1,244.1
		c62.5,62.5,148.8,101.1,244.1,101.1c95.3,0,181.6-38.6,244.1-101.1c62.5-62.5,101.1-148.8,101.1-244.1
		C1358.9,563,1320.3,476.7,1257.8,414.2z"/>
	<path class="st0" d="M609.7,480c-11.7-6.2-26.2-1.7-32.3,10c-6.2,11.7-1.7,26.2,10,32.3l51.1,26.9c11.7,6.2,26.2,1.7,32.3-10
		c6.2-11.7,1.7-26.2-10-32.3L609.7,480z"/>
	<path class="st0" d="M423.4,348.1c41.5-12.9,85.7-1.3,124.6,28c36.5,27.6,68.6,71.3,88.3,125l0,0c4.6,12.4-1.8,26.2-14.2,30.8
		c-7.9,2.9-16.3,1.4-22.6-3.2c-19-11.8-40-19.6-61.5-22.7c-21.2-3.1-43-1.6-64.2,5c-21.3,6.6-40,17.7-55.6,32.2
		c-16.3,15.1-29.4,34-38.4,55.2l-22-9.4l22.1,9.4c-5.2,12.2-19.3,17.8-31.5,12.6c-7.4-3.2-12.4-9.6-14-17
		c-13.9-55-12.2-108.8,2.2-152.1C352,395.7,381.9,361,423.4,348.1L423.4,348.1z M519.1,414.4c-26.7-20.2-55.8-28.5-81.6-20.5
		c-25.8,8-45,31.3-55.5,63c-6.4,19.1-9.6,41-9.3,64.4c4.2-4.7,8.6-9.1,13.1-13.4c20.8-19.2,45.7-34.1,74-42.9
		c28.3-8.8,57.1-10.7,85-6.6c6.2,0.9,12.3,2.1,18.4,3.6C550.1,442.6,535.1,426.5,519.1,414.4L519.1,414.4z"/>
	<path class="st0" d="M1590,393.9c-25.8-8-54.9,0.3-81.6,20.5c-16,12.1-31.1,28.3-44.1,47.7c6.1-1.5,12.2-2.7,18.4-3.6
		c27.9-4.1,56.8-2.1,85,6.6c28.3,8.8,53.2,23.6,74,42.9c4.6,4.3,9,8.7,13.1,13.4c0.3-23.5-2.9-45.4-9.3-64.4
		C1634.9,425.2,1615.7,401.9,1590,393.9L1590,393.9z M1479.5,376.1c38.9-29.3,83.1-40.9,124.6-28c41.5,12.9,71.4,47.5,86.8,93.8
		c14.4,43.3,16.1,97.2,2.2,152.1c-1.6,7.3-6.6,13.8-14,17c-12.2,5.2-26.3-0.5-31.5-12.6l22.1-9.4l-22,9.4
		c-9.1-21.2-22.1-40.1-38.4-55.2c-15.6-14.4-34.3-25.6-55.6-32.2c-21.3-6.6-43.1-8-64.2-5c-21.6,3.1-42.5,10.9-61.5,22.7
		c-6.3,4.6-14.7,6.1-22.6,3.2c-12.4-4.6-18.8-18.4-14.2-30.8l0,0C1410.9,447.5,1442.9,403.7,1479.5,376.1L1479.5,376.1z"/>
	<path class="st0" d="M1440.1,522.3c11.7-6.2,16.2-20.6,10-32.3c-6.2-11.7-20.6-16.2-32.3-10l-51.1,26.9
		c-11.7,6.2-16.2,20.6-10,32.3c6.2,11.7,20.6,16.2,32.3,10L1440.1,522.3z"/>
	<path class="st0" d="M1398.3,1345c-4.9-23.4-11.9-45.1-23.9-66.4c-25.4-45.4-61.8-80-111.7-104.3c-61.5-29.9-143.4-44.7-249-44.7
		c-99.5,0-180,18.1-241.5,47.6c-66,31.8-110,76.7-131.6,126.3l-79.2,299.8h617.7c-9.2,16.7-2.4,44.2,6.9,48H530.8
		c-2.2,0-4.4-0.2-6.6-0.8c-12.8-3.4-20.5-16.5-17.1-29.3l0.1,0l85.5-323.8c2.8-10.5,5.2-16.2,10.2-26
		c27.7-54.5,77.3-103,148.6-137.3c67.8-32.6,155.3-52.5,262.1-52.5c113,0,201.8,16.4,270,49.6c55,26.8,96.4,64.3,126,112.7
		c4.7,7.7,8.7,14.8,12,22.2C1401.8,1293.7,1401.1,1322.4,1398.3,1345L1398.3,1345z"/>
	<path class="st0" d="M1175,1126.1c7.2-11.1,22-14.2,33.1-7c11.1,7.2,14.2,22,7,33.1c-21.5,32.9-51.7,59.4-87,77.7
		c-35.1,18.1-75.2,28.1-116.7,28.1c-39.8,0-78.4-9.2-112.5-26c-34.3-16.9-64-41.5-86-72.2c-7.7-10.8-5.1-25.7,5.6-33.4
		s25.7-5.1,33.4,5.6c17.3,24.2,40.9,43.6,68.2,57c27.5,13.5,58.8,20.9,91.4,20.9c33.9,0,66.5-8,94.8-22.6
		C1134.3,1172.8,1158.2,1151.9,1175,1126.1L1175,1126.1z"/>
	<path class="st0" d="M1473.1,1437.8c8-3.8,11.4-13.3,7.6-21.3s-13.3-11.4-21.3-7.6c-32.9,15.7-52.6,13.4-89,9.2
		c-10.7-1.2-22.6-2.6-36-3.8l0,0c-2.1-0.2-4.2,0.1-6.1,0.7c-23,5.4-39.3,23.8-45.3,41.9c-2.2,6.5-3.1,13.1-2.7,19.2
		c0.5,7.1,2.7,13.8,6.8,19.4c5.3,7.1,13.1,12.1,23.7,13.4c-4.2,8.1-7.3,15.1-9.7,22.4c-3.6,11.2-5.3,22.1-6.5,37l-31.5,2.3
		c-26.9,2-43.7,19.9-50.3,40.3c-2.7,8.3-3.6,17-2.7,25.2c0.9,8.8,3.9,17.1,8.9,24c9.6,13.1,25.6,20.4,47.8,15l46.1-11.3
		c6.7,9.8,15,17.9,24.5,24c9.5,6.1,20.2,10.2,31.8,12.2l10.3,46.5c6.5,29.4,21.5,45.2,37.9,50.5c9.1,2.9,18.4,2.5,27.1-0.6
		c8.2-3,15.6-8.4,21.6-15.8c13.3-16.5,19.3-43.6,7-74.7l-12.4-31.5c9.8-6.9,19.3-15.1,28.4-24.4c5.7-5.8,11.1-12.1,16.3-18.7
		c9.2,14.6,20,22.5,30.7,25.4c10.8,3,21.1,1.1,29.9-4.1c8-4.8,14.6-12.4,18.8-21.6c8-17.6,7.6-41.6-8.9-62.2
		c-14.4-17.9-26-34.1-32.7-51.4l-14.9,5.7l14.9-5.8c-0.1-0.3-0.2-0.6-0.4-0.8c-6.3-16.5-8.4-34.8-4.7-57.8
		c1.4-8.7-4.6-16.9-13.2-18.3c-8.7-1.4-16.9,4.6-18.3,13.2c-4.7,29.2-1.9,52.7,6.4,74.3c0.1,0.3,0.2,0.7,0.3,1l0,0l0,0l0,0
		c8.3,21.2,21.5,39.8,37.6,59.8c8,9.9,8.4,21,4.8,28.9c-1.5,3.3-3.6,5.9-6.1,7.3c-1.7,1-3.5,1.4-5.3,0.9c-6.6-1.8-14.1-10.8-20.8-31
		c-1-3.9-3.5-7.4-7.2-9.6c-7.6-4.6-17.4-2.1-22,5.5l0,0c-8.4,14-18,26.4-28.3,36.9c-10.3,10.6-21.3,19.4-32.5,26.1
		c-7.2,3.7-10.5,12.4-7.5,20l0,0l17.1,43.6c7.5,19.1,4.8,34.4-2.1,43.1c-2.3,2.8-4.9,4.8-7.6,5.8c-2.2,0.8-4.5,0.9-6.6,0.2
		c-6.4-2-12.7-10.3-16.4-27l-12.5-56.4c-1-7.7-7.4-13.8-15.4-14l-0.4,16l0.4-15.9c-10.4-0.3-19.9-3.2-28-8.4
		c-7.9-5.1-14.4-12.4-19.3-21.7c-3-7.1-10.8-11.1-18.5-9.3l0,0.1l-57.5,14.1c-7.5,1.8-12.3,0.3-14.6-2.9c-1.6-2.1-2.5-5.1-2.9-8.3
		c-0.4-3.9,0-8.1,1.3-12.2c2.9-9.2,10.4-17.3,22.1-18.1l44.6-3.3c8.3-0.2,15.2-6.7,15.6-15.1l-16-0.9l15.9,0.9
		c1.1-19.9,2.3-31.8,5.9-43c3.6-11.1,10.1-22.8,21.7-41.8c2.4-3.3,3.5-7.5,2.8-11.8c-1.4-8.7-9.6-14.7-18.3-13.3l0,0.1l-16.5,2.7
		c-5.1,0.8-7.7,0.5-8.4-0.4c-0.3-0.4-0.5-1.3-0.6-2.4c-0.1-2.2,0.2-4.6,1.1-7.2c2.9-8.7,10.4-17.5,20.9-20.5
		c12.6,1.1,23.2,2.3,32.6,3.4C1409.1,1454.8,1432,1457.4,1473.1,1437.8L1473.1,1437.8z"/>
	<path class="st0" d="M1578.4,1396.5c3.3-2.9,3.6-8,0.7-11.3s-8-3.6-11.3-0.7c-4.7,4.1-10.3,6.8-16.2,7.8c-6,1.1-12.2,0.5-18-1.8
		c-7.1-2.8-12.8-7.8-16.6-14c-3.7-6.2-5.4-13.6-4.5-21.2c0.5-4.4-2.6-8.4-7-8.9s-8.4,2.6-8.9,7c-1.3,11.2,1.2,22.1,6.7,31.3
		c5.5,9.2,14,16.6,24.5,20.7c8.6,3.4,17.8,4.2,26.5,2.6C1563.1,1406.5,1571.5,1402.6,1578.4,1396.5L1578.4,1396.5z"/>
	<circle class="st1" cx="1582.7" cy="1342.1" r="14.8"/>
	<circle class="st1" cx="1537.3" cy="1312.8" r="14.8"/>
	<path class="st0" d="M1527.7,1208.1c35.6-7.8,71.1-0.4,99.7,17.8c28.6,18.3,50.2,47.5,58,83.2c7.8,35.6,0.4,71.1-17.8,99.7
		c-18.3,28.6-47.5,50.2-83.2,58c-35.6,7.8-71.1,0.4-99.7-17.8c-28.6-18.3-50.2-47.5-58-83.2c-7.8-35.6-0.4-71.1,17.8-99.7
		C1462.8,1237.6,1492,1216,1527.7,1208.1z M1610.2,1252.8c-21.6-13.8-48.6-19.4-75.8-13.5c-27.1,6-49.2,22.3-63,43.9
		c-13.8,21.6-19.4,48.6-13.5,75.8c6,27.1,22.3,49.2,43.9,63c21.6,13.8,48.6,19.4,75.8,13.5c27.1-6,49.2-22.3,63-43.9
		c13.8-21.6,19.4-48.6,13.5-75.8C1648.2,1288.7,1631.8,1266.6,1610.2,1252.8z"/>
	<path class="st0" d="M1524,1242.9c2.4-6.4-0.8-13.6-7.3-16.1c-6.4-2.4-13.6,0.8-16.1,7.3c-3.9,10.4-3.4,21.4,0.4,30.7
		c2.7,6.6,7.2,12.5,13.1,16.8c5.9,4.3,13.2,7,21.4,7.2c5.4,0.1,11.1-0.9,17.1-3.2c1.8,5.1,4.5,9.8,7.7,13.7
		c4.7,5.8,10.7,10.2,17.3,12.8c6.9,2.6,14.4,3.3,21.9,1.4c1.7-0.4,3.3-0.9,5-1.6c1,2.8,2.4,5.5,3.9,7.9c3.4,5.4,7.9,9.7,13,12.9
		c4.9,3.1,10.5,5.3,16.3,6.5c12.8,2.6,27,0.4,38.2-6.7c5.8-3.7,7.5-11.4,3.8-17.2c-3.7-5.8-11.4-7.5-17.2-3.8
		c-5.7,3.6-13.1,4.7-19.9,3.3c-2.8-0.6-5.5-1.6-7.9-3.2c-2.2-1.4-4.1-3.1-5.4-5.2c-2.4-3.8-3.5-9.2-2.2-16.1
		c1.5-5.2-0.5-10.9-5.3-13.9c-5.8-3.7-13.5-2.1-17.3,3.7l10.5,6.8l-10.5-6.7c-3.5,5.4-7.3,8.2-11,9.1c-2.4,0.6-4.8,0.3-7.2-0.6
		c-2.6-1-5-2.8-6.9-5.1c-3.3-4.1-5.3-10-4.7-17c0.3-3.2-0.6-6.5-2.8-9.2c-4.4-5.3-12.3-6.1-17.6-1.7l7.9,9.7l-7.9-9.6
		c-7.2,5.9-13.5,8.3-18.6,8.2c-2.8-0.1-5.3-0.9-7.2-2.4c-2-1.5-3.6-3.6-4.7-6.1C1522.6,1251.6,1522.4,1247.1,1524,1242.9
		L1524,1242.9z"/>
	<path class="st0" d="M1476.5,1185.6c-4-4.6-10.9-5.1-15.5-1.1s-5.1,10.9-1.1,15.5l30.2,35c4,4.6,10.9,5.1,15.5,1.1
		s5.1-10.9,1.1-15.5L1476.5,1185.6z"/>
	<path class="st0" d="M1521.6,1183c1.7-5.8-1.7-11.9-7.6-13.6s-11.9,1.7-13.6,7.6l-12.8,44.5c-1.7,5.8,1.7,11.9,7.6,13.6
		s11.9-1.7,13.6-7.6L1521.6,1183z"/>
	<path class="st0" d="M1723.7,1319.3c6.1-0.3,10.7-5.4,10.5-11.4c-0.3-6.1-5.4-10.7-11.4-10.5l-46.2,2.1
		c-6.1,0.3-10.7,5.4-10.5,11.4c0.3,6.1,5.4,10.7,11.4,10.5L1723.7,1319.3z"/>
	<path class="st0" d="M1712.6,1274c3.1-5.2,1.4-12-3.9-15s-12-1.4-15,3.9l-23.6,39.8c-3.1,5.2-1.4,12,3.9,15s12,1.4,15-3.9
		L1712.6,1274z"/>
</g>
<path class="st2" d="M0,0h2048v2048H0V0z"/>
</svg>
