<?xml version="1.0" encoding="utf-8"?>
<!-- Generator: Adobe Illustrator 27.9.0, SVG Export Plug-In . SVG Version: 6.00 Build 0)  -->
<svg version="1.1" id="Layer_1" xmlns="http://www.w3.org/2000/svg" xmlns:xlink="http://www.w3.org/1999/xlink" x="0px" y="0px"
	 viewBox="0 0 24 24" style="enable-background:new 0 0 24 24;" xml:space="preserve">
<style type="text/css">
	.st0{fill:#FFFFFF;}
</style>
<path class="st0" d="M3,5v12h18V5L3,5z M4.7,18H2.5C2.2,18,2,17.8,2,17.5v-13C2,4.2,2.2,4,2.5,4h19C21.8,4,22,4.2,22,4.5v13
	c0,0.3-0.2,0.5-0.5,0.5h-2.2l0.5,1h1.7c0.3,0,0.5,0.2,0.5,0.5S21.8,20,21.5,20h-2c0,0,0,0,0,0h-2c-0.3,0-0.5-0.2-0.5-0.5
	s0.2-0.5,0.5-0.5h1.2l-0.5-1H5.8l-0.5,1h1.2C6.8,19,7,19.2,7,19.5S6.8,20,6.5,20h-2c0,0,0,0,0,0h-2C2.2,20,2,19.8,2,19.5
	S2.2,19,2.5,19h1.7L4.7,18z"/>
</svg>
