<?xml version="1.0" encoding="utf-8"?>
<!-- Generator: Adobe Illustrator 27.9.0, SVG Export Plug-In . SVG Version: 6.00 Build 0)  -->
<svg version="1.1" id="Layer_1" xmlns="http://www.w3.org/2000/svg" xmlns:xlink="http://www.w3.org/1999/xlink" x="0px" y="0px"
	 viewBox="0 0 1024 1056.9" style="enable-background:new 0 0 1024 1056.9;" xml:space="preserve">
<style type="text/css">
	.st0{fill:#FFFFFF;}
</style>
<path class="st0" d="M693.2,740.8h-44.5V171c0-0.3,0-0.6,0-1c0-57.4,46.4-103.9,103.7-104.2h0c57.3,0.2,103.7,46.8,103.7,104.2
	c0,0.4,0,0.8,0,1.2v-0.1l-44.5-0.5c0-32.7-26.5-59.2-59.2-59.2s-59.2,26.5-59.2,59.2L693.2,740.8L693.2,740.8z M366.4,740.8h-44.5
	V170.9c0-0.1,0-0.3,0-0.4c0-57.6,46.5-104.3,104-104.6h0.3c57.3,0.3,103.7,46.8,103.7,104.2c0,0.4,0,0.8,0,1.2v-0.1l-44.5-0.5
	c0-32.8-26.6-59.4-59.4-59.4s-59.4,26.6-59.4,59.4L366.4,740.8z M670.9,314.3H344.2v-44.5h326.8V314.3z M670.9,518.2H344.2v-44.5
	h326.8V518.2z M221.7,273.3H17.8v-44.5h203.9L221.7,273.3z M997.3,273.3H793.4v-44.5h203.9V273.3z M629.3,743
	c-47.6-0.1-90.8-19.2-122.3-50.1l0,0c-31.5,30.8-74.6,49.8-122.2,49.8s-90.7-19-122.2-49.8l0,0c-31.6,30.8-74.8,49.8-122.4,49.8
	c-57.2,0-107.9-27.3-139.9-69.7L0,672.7L35.6,646c24.1,31.9,62,52.2,104.6,52.2s80.5-20.4,104.4-51.9l0.2-0.3l17.8-23.7l17.8,23.7
	c24,31.9,61.8,52.2,104.4,52.2s80.4-20.4,104.2-51.9l0.2-0.3l17.8-23.9l17.8,24c24,32,61.8,52.5,104.3,52.5s80.4-20.5,104.1-52.1
	l0.2-0.3l17.8-24l17.8,23.9c24,31.9,61.8,52.2,104.4,52.2s80.4-20.4,104.2-51.9l0.2-0.3l35.6,26.7c-32.2,42.7-82.9,70.1-140,70.1
	c-47.6,0-90.7-19-122.2-49.8l0,0C720,723.8,676.9,742.9,629.3,743L629.3,743L629.3,743z M629.3,987.9
	c-47.6-0.1-90.8-19.2-122.3-50.1l0,0c-31.5,30.8-74.6,49.8-122.2,49.8s-90.7-19-122.2-49.8l0,0c-31.6,30.8-74.8,49.8-122.4,49.8
	c-57.2,0-107.9-27.3-139.9-69.7L0,917.6l35.6-26.7c24.1,31.9,62,52.2,104.6,52.2s80.5-20.4,104.4-51.9l0.2-0.3l17.8-23.7l17.8,23.7
	c24,31.9,61.8,52.2,104.4,52.2s80.4-20.4,104.2-51.9l0.2-0.3l17.8-23.9l17.8,24c24,32,61.8,52.5,104.3,52.5s80.4-20.5,104.1-52.1
	l0.2-0.3l17.8-24l17.8,23.9c24,31.9,61.8,52.2,104.4,52.2s80.4-20.4,104.2-51.9l0.2-0.3l35.6,26.7c-32.2,42.7-82.9,70.1-140,70.1
	c-47.6,0-90.7-19-122.2-49.8l0,0C720,968.7,676.9,987.8,629.3,987.9L629.3,987.9L629.3,987.9z"/>
</svg>
