<?xml version="1.0" encoding="utf-8"?>
<!-- Generator: Adobe Illustrator 27.9.0, SVG Export Plug-In . SVG Version: 6.00 Build 0)  -->
<svg version="1.1" id="Layer_1" xmlns="http://www.w3.org/2000/svg" xmlns:xlink="http://www.w3.org/1999/xlink" x="0px" y="0px"
	 viewBox="0 0 400 400" style="enable-background:new 0 0 400 400;" xml:space="preserve">
<style type="text/css">
	.st0{fill:none;stroke:#FFFFFF;stroke-width:16;stroke-linecap:round;stroke-linejoin:round;stroke-opacity:0.9;}
	.st1{fill:none;stroke:#FFFFFF;stroke-width:8;stroke-linecap:round;stroke-linejoin:round;stroke-opacity:0.9;}
</style>
<g>
	<path class="st0" d="M168.5,130.4c33-33.9,87.3,32.4,47.6,58.7c-28.9,19.2-66-11.2-50.3-42.4"/>
	<path class="st0" d="M117,296c54.8,8.2,91,7,151,0"/>
	<path class="st0" d="M214,294l9-79"/>
	<path class="st1" d="M268,289l-5.1-234 M120,289l6.2-234"/>
	<g>
		<path class="st0" d="M167.2,217.8c0,26.8,7.5,52.2,7.5,78.8"/>
		<path class="st0" d="M214,302c19.5,10,28.2,14.9,36.5,20c8.3,5.1,45.5,22,51.5,23"/>
		<path class="st0" d="M175,302c-17.3,10-27.2,13.8-34.6,18.9C133,326,102.3,344,97,345"/>
		<path class="st0" d="M167,215c-14,8.5-32,14-49,14"/>
		<path class="st0" d="M223,215c16.5,19.5,37.8,12.9,47,6.6"/>
	</g>
</g>
</svg>
