<?xml version="1.0" encoding="utf-8"?>
<!-- Generator: Adobe Illustrator 27.9.0, SVG Export Plug-In . SVG Version: 6.00 Build 0)  -->
<svg version="1.1" id="Layer_1" xmlns="http://www.w3.org/2000/svg" xmlns:xlink="http://www.w3.org/1999/xlink" x="0px" y="0px"
	 viewBox="0 0 512 324.6" style="enable-background:new 0 0 512 324.6;" xml:space="preserve">
<style type="text/css">
	.st0{fill:none;}
	.st1{fill:#FFFFFF;}
</style>
<path class="st0" d="M503.6,92.9v36.1c0,46.7-110.8,84.5-247.6,84.5c-47.9,0-92.6-4.6-130.5-12.7c-70.3-14.9-117-41.5-117-71.8V93
	L503.6,92.9L503.6,92.9z"/>
<g>
	<path class="st0" d="M170.5,208.4v93.7c0,7.8-6.3,14.1-14.1,14.1s-14.1-6.3-14.1-14.1v-97.9L170.5,208.4L170.5,208.4z"/>
	<path class="st0" d="M52.9,177.4v59.4c0,7.8-6.3,14.1-14.1,14.1s-14.1-6.3-14.1-14.1v-77.5L52.9,177.4L52.9,177.4z"/>
	<path class="st0" d="M487.2,159.3v77.5c0,7.8-6.3,14.1-14.1,14.1s-14.1-6.3-14.1-14.1v-59.4L487.2,159.3L487.2,159.3z"/>
	<path class="st0" d="M369.7,204.2v97.9c0,7.8-6.3,14.1-14.1,14.1s-14.1-6.3-14.1-14.1v-93.7L369.7,204.2L369.7,204.2z"/>
</g>
<path class="st0" d="M24.8,159.3l28.1,18.1v28.1C41.5,200,32,193.9,24.8,187.5V159.3z"/>
<path class="st0" d="M142.4,204.2l28.1,4.2v28.1c-9.7-1.2-19.1-2.6-28.1-4.2V204.2z"/>
<path class="st0" d="M341.5,208.4l28.1-4.2v28.1c-9.1,1.6-18.5,3-28.1,4.2V208.4z"/>
<path class="st0" d="M487.2,159.3v28.1c-7.2,6.4-16.7,12.5-28.1,18.1v-28.1L487.2,159.3z"/>
<path class="st0" d="M125.5,92.9v107.9c-70.3-14.9-117-41.5-117-71.8V93L125.5,92.9L125.5,92.9z"/>
<ellipse class="st0" cx="256" cy="92.9" rx="247.6" ry="84.5"/>
<path class="st0" d="M461.6,92.9c0,32.1-92,58-205.6,58c-23,0-45-1.1-65.7-3c-81.3-7.7-139.9-29.4-139.9-55c0-32.1,92.1-58,205.6-58
	c13.9,0,27.5,0.4,40.6,1.1C390.7,41.4,461.6,64.8,461.6,92.9L461.6,92.9L461.6,92.9z"/>
<path class="st0" d="M461.6,92.9c0,32.1-92,58-205.6,58c-23,0-45-1.1-65.7-3C438.1,89.2,298.9,36.9,296.6,36
	C390.7,41.3,461.6,64.8,461.6,92.9L461.6,92.9L461.6,92.9z"/>
<path class="st1" d="M433.8,25.2C386.2,8.9,323,0,256,0S125.8,8.9,78.2,25.2C27.8,42.4,0,66.5,0,92.9v36.1
	c0,11.9,5.6,23.3,16.3,33.8v74c0,12.4,10.1,22.5,22.5,22.5s22.5-10.1,22.5-22.5v-46.4c5.3,2.2,10.9,4.4,16.9,6.4
	c16.8,5.7,35.5,10.6,55.7,14.4v90.9c0,12.4,10.1,22.5,22.5,22.5s22.5-10.1,22.5-22.5v-84.2c24.6,2.7,50.5,4.1,77.1,4.1
	s52.5-1.4,77.1-4.1v84.2c0,12.4,10.1,22.5,22.5,22.5s22.5-10.1,22.5-22.5v-90.9c20.1-3.8,38.9-8.7,55.7-14.4c18-6.1,33-13.1,45-20.8
	v60.8c0,3.1-2.5,5.6-5.6,5.6s-5.6-2.5-5.6-5.6v-31.3c0-4.7-3.8-8.4-8.4-8.4s-8.4,3.8-8.4,8.4v31.3c0,12.4,10.1,22.5,22.5,22.5
	s22.5-10.1,22.5-22.5v-74c10.7-10.5,16.3-21.9,16.3-33.8V92.9C512,66.5,484.2,42.4,433.8,25.2L433.8,25.2L433.8,25.2z M44.5,236.9
	c0,3.1-2.5,5.6-5.6,5.6s-5.6-2.5-5.6-5.6V176c3.5,2.2,7.2,4.4,11.2,6.5L44.5,236.9L44.5,236.9L44.5,236.9z M162,302.1
	c0,3.1-2.5,5.6-5.6,5.6s-5.6-2.5-5.6-5.6v-87.9c3.7,0.6,7.5,1.1,11.2,1.7L162,302.1L162,302.1L162,302.1z M361.2,302.1
	c0,3.1-2.5,5.6-5.6,5.6s-5.6-2.5-5.6-5.6v-86.3c3.8-0.5,7.5-1.1,11.2-1.7L361.2,302.1L361.2,302.1L361.2,302.1z M428.3,180.9
	c-45.9,15.7-107.1,24.3-172.3,24.3s-126.4-8.6-172.3-24.3c-41.8-14.3-66.8-33.6-66.8-51.8v-1.8c7.2,6.9,15.7,12.6,23.6,17
	c4.1,2.3,9.2,0.8,11.5-3.2s0.8-9.2-3.2-11.5c-26.3-14.7-31.8-28-31.8-36.6c0-18.1,25-37.5,66.8-51.8C129.6,25.5,190.8,16.9,256,16.9
	s126.4,8.6,172.3,24.3c41.8,14.3,66.8,33.6,66.8,51.8s-25,37.5-66.8,51.8C382.4,160.4,321.2,169,256,169
	c-69.5,0-135.8-10.1-181.8-27.7c-4.3-1.7-9.2,0.5-10.9,4.9s0.5,9.2,4.9,10.9c47.9,18.3,116.3,28.8,187.8,28.8
	c67,0,130.2-8.9,177.8-25.2c27.4-9.4,48.1-20.8,61.3-33.4v1.8C495.1,147.2,470.2,166.6,428.3,180.9L428.3,180.9z"/>
<path class="st1" d="M256,159.4c55.7,0,108.1-6.1,147.7-17.3c43.4-12.3,66.4-29.3,66.4-49.2s-22.6-36.7-65.4-48.9
	c-4.5-1.3-9.1,1.3-10.4,5.8s1.3,9.2,5.8,10.4c24.5,7,53.1,19.8,53.1,32.7c0,20.7-75,49.6-197.1,49.6S58.9,113.7,58.9,92.9
	s75-49.6,197.1-49.6c41.9,0,82.1,3.6,116.2,10.3c4.6,0.9,9-2.1,9.9-6.6s-2.1-9-6.6-9.9c-35.2-7-76.5-10.6-119.5-10.6
	c-55.7,0-108.1,6.2-147.7,17.3C64.9,56,42,73,42,92.9s22.9,36.9,66.4,49.2C147.9,153.3,200.3,159.4,256,159.4L256,159.4L256,159.4z"
	/>
</svg>
