<?xml version="1.0" encoding="utf-8"?>
<!-- Generator: Adobe Illustrator 27.9.0, SVG Export Plug-In . SVG Version: 6.00 Build 0)  -->
<svg version="1.1" id="Flat" xmlns="http://www.w3.org/2000/svg" xmlns:xlink="http://www.w3.org/1999/xlink" x="0px" y="0px"
	 viewBox="0 0 256 256" style="enable-background:new 0 0 256 256;" xml:space="preserve">
<style type="text/css">
	.st0{fill:#FFFFFF;}
</style>
<path class="st0" d="M168.6,160.3c3.2,3.1,3.2,8.1,0.2,11.3c-3.1,3.2-8.1,3.2-11.3,0.2c-16.5-15.7-42.5-15.7-59,0
	c-3.2,3.1-8.2,3-11.3-0.2c-3.1-3.2-3-8.2,0.2-11.3C110.1,138.6,145.9,138.6,168.6,160.3L168.6,160.3z M128,96
	c-27.9-0.1-54.7,10.8-74.6,30.4c-3.2,3.1-3.2,8.2-0.1,11.3c3.1,3.2,8.2,3.2,11.3,0.1c35.3-34.4,91.5-34.4,126.8,0
	c3.2,3.1,8.2,3.1,11.3-0.1c3.1-3.2,3.1-8.2-0.1-11.3l0,0C182.7,106.8,155.9,95.9,128,96z M236.5,92.5c-60.2-59.3-156.9-59.3-217.1,0
	c-3.1,3.1-3.2,8.2-0.1,11.3s8.2,3.2,11.3,0.1l0,0c54-53.2,140.6-53.2,194.6,0c3.1,3.1,8.2,3.1,11.3-0.1
	C239.7,100.7,239.7,95.6,236.5,92.5L236.5,92.5z M128,188c-6.6,0-12,5.4-12,12s5.4,12,12,12c6.6,0,12-5.4,12-12
	C140,193.4,134.6,188,128,188z"/>
</svg>
