<?xml version="1.0" encoding="UTF-8"?>
<svg id="Layer_1" data-name="Layer 1" xmlns="http://www.w3.org/2000/svg" viewBox="0 0 20.45 10.67">
  <defs>
    <style>
      .cls-1 {
        fill: #fff;
        fill-rule: evenodd;
        stroke-width: 0px;
      }
    </style>
  </defs>
  <path class="cls-1" d="m11.11,7.06c.13-.1.37-.3.63-.52.26-.23.53-.49.67-.61.14-.13.14-.12.11-.06-.03.06-.08.16-.23.33-.15.17-.39.4-.61.57s-.4.28-.52.34c-.12.06-.16.07-.18.07-.02,0,0-.01.12-.12m2.41-.65c0-.11,0-.33,0-.43,0-.07,0-.11,0-.1,0,0,.03.01.08.03.05.02.13.05.2.06.07.02.13.02.16.02.03,0,.03,0,.03.02,0,.01,0,.04,0,.15s0,.29,0,.41c0,.12-.02.17-.02.19v.02s-.02,0-.02,0c-.01,0-.04-.02-.09-.06s-.14-.08-.2-.11c-.06-.03-.1-.05-.12-.06s-.04-.02-.05-.02c0,0,0,0,0-.11h0Zm-.73-.28c.18.15.53.45.83.68.3.23.55.39.71.49.16.1.22.13.27.12.05,0,.09-.05.09-.1,0-.05-.04-.12-.06-.16-.02-.04-.03-.05-.11-.1s-.26-.14-.34-.18c-.06-.03-.08-.07-.08-.13,0-.09,0-.26.01-.42s0-.31,0-.39c0-.07,0-.07-.02-.06-.01,0-.03.01-.06.02s-.09,0-.18-.02c-.09-.03-.22-.09-.3-.13-.08-.04-.11-.05-.13-.05-.02,0-.02.03-.02.04,0,.01.01.02.02.03.01,0,.02.02.03.03,0,.02,0,.04.01.07,0,.03,0,.07,0,.17,0,.1,0,.25,0,.32,0,.08,0,.07-.02.07-.01,0-.04-.02-.17-.1s-.38-.24-.51-.31c-.13-.07-.14-.07-.15-.06s0,.02.19.17h0Zm-2.18.09c-.01-.09-.02-.27-.03-.45-.01-.18-.02-.36-.01-.52.01-.16.05-.3.07-.36.02-.06.03-.05.03-.02,0,.03.02.09.02.2,0,.11,0,.28,0,.42s0,.26,0,.37,0,.22,0,.3c0,.08-.02.13-.03.15-.02.02-.04,0-.05-.09h0Zm-1.19-4.37s.06-.13.11-.2c.05-.07.13-.11.19-.15.06-.03.12-.05.14-.1.03-.05.03-.12,0-.19-.03-.07-.09-.12-.17-.17-.08-.05-.18-.09-.24-.13-.06-.04-.09-.09-.1-.15,0-.06,0-.14.06-.24.06-.1.16-.22.23-.3.07-.08.1-.13.11-.16,0-.03-.01-.06-.06-.06-.05,0-.12,0-.2.07-.08.07-.18.2-.23.31s-.07.21-.07.33.01.27.07.35c.05.09.14.11.22.13.08.02.15.03.19.04.04.01.04.03.04.04,0,.02-.02.04-.06.07-.04.03-.11.06-.16.1-.05.05-.08.12-.1.19s-.03.15-.02.19.03.06.05.02h0Zm-.15.85s0,.01-.02.19c-.01.17-.04.51-.05.68,0,.11,0,.15.05.12.06-.04.18-.14.24-.19.06-.05.07-.06.07-.19s0-.37,0-.49c0-.12,0-.12-.03-.12-.03,0-.07,0-.12,0-.04,0-.08,0-.11,0s-.03,0-.04,0h0Zm-.45,1.92c.01.2,0,.61.01.8,0,.2.01.18.03.06s.05-.33.07-.54c.02-.21.02-.41.02-.51s0-.1.1-.17c.1-.07.29-.2.49-.34.2-.15.42-.31.57-.44.14-.13.22-.24.27-.35.06-.11.1-.23.09-.27,0-.05-.06-.02-.15.04-.09.06-.21.17-.32.26-.11.09-.22.15-.27.19-.05.03-.06.03-.06-.04s0-.21,0-.34,0-.26.01-.32c0-.06,0-.06-.03-.06s-.09,0-.17-.01-.18-.01-.22-.02c-.05,0-.05-.01-.03-.06s.05-.14.08-.18c.02-.05.04-.05.09-.04.06,0,.15.02.22.04.07.02.11.03.15.04s.1,0,.15-.03c.05-.03.11-.07.13-.1s0-.04-.05-.05-.13-.03-.23-.05c-.1-.01-.22-.01-.31-.01-.09,0-.14,0-.18,0s-.04,0-.05.04c-.01.03-.03.08-.07.17-.04.09-.09.21-.12.27-.03.07-.02.08-.01.08,0,0,.02,0,.04,0s.04,0,.05.01,0,.03,0,.05c0,.02,0,.03-.01.21-.01.18-.03.53-.04.7s-.01.18-.02.19c0,0-.02.02-.15.11s-.35.26-.53.4c-.18.14-.3.26-.37.33-.07.07-.09.1-.09.14,0,.04,0,.09.06.1.05.01.14,0,.28-.09.14-.08.32-.22.42-.3s.14-.09.15.1h0Zm2.3-1.44c.1.12.3.31.53.51.22.2.47.41.59.53.12.11.12.12.12.34,0,.22,0,.64,0,.88s.01.3.02.32c0,.02,0,0,0-.09s0-.28.02-.49c.02-.2.04-.43.06-.55.02-.12.04-.12.09-.1.06.02.15.08.23.13.08.05.14.09.22.11s.17.02.23,0,.08-.08.06-.12c-.02-.04-.08-.07-.12-.08s-.07-.03-.2-.12-.36-.25-.68-.5c-.31-.25-.71-.58-.93-.78-.22-.2-.27-.26-.31-.27-.03-.01-.05.03-.06.07,0,.05,0,.1.1.22h0Zm2.61,1.96c.05-.05.15-.12.21-.18.07-.05.11-.08.13-.11s.02-.05,0-.07c-.01-.02-.03-.04-.07-.05-.04-.02-.1-.03-.16-.07-.06-.04-.13-.11-.16-.21s-.04-.23,0-.38c.04-.15.12-.31.18-.43.06-.12.11-.18.13-.18s.02.07-.01.17-.08.21-.12.31c-.04.1-.07.19-.08.26-.01.07-.01.12.03.19.04.07.12.14.2.2.07.05.14.08.17.12.04.04.04.09.03.13-.01.05-.04.1-.1.14-.06.04-.14.08-.21.11-.07.03-.12.07-.17.09s-.07.03-.08.03c0,0,0-.02.06-.06h0Zm-4.44,4.13c-.06,0-.13,0-.19,0v-.04c0-.07.02-.22.03-.4s.01-.4.02-.54,0-.2,0-.23c0-.03-.01-.03-.08-.03-.07,0-.19,0-.37,0-.18,0-.41,0-.61,0s-.35,0-.45,0c-.11,0-.17-.02-.22-.04-.05-.02-.08-.05-.11-.06-.03,0-.06.03-.07.08-.01.05,0,.13,0,.17,0,.04,0,.04-.02.04-.02,0-.05,0-.11-.01-.05-.01-.13-.03-.16-.05-.04-.01-.04-.02-.03-.09s.01-.2.02-.27c0-.07.01-.07.09-.07s.22,0,.4,0c.18,0,.41.02.71.05s.67.07.89.09c.22.02.28.02.31.03.03,0,.03,0,.03.04,0,.04,0,.1,0,.25,0,.15-.01.37-.03.57s-.03.4-.04.5c0,.01,0,.02,0,.03h0ZM.2,10.42c-.06.02-.11.03-.14.06-.03.03-.05.07-.05.1,0,.03,0,.06,0,.08.01.02.03.02.24-.02s.6-.12,1.13-.22c.53-.1,1.18-.22,1.81-.33.63-.1,1.22-.19,1.77-.26.54-.07,1.03-.14,1.57-.2.54-.06,1.12-.11,1.61-.12.5-.02.91,0,1.37.01s1,.04,1.5.08c.5.03.98.07,1.72.13.74.06,1.73.14,2.7.23.96.09,1.89.18,2.68.26s1.45.15,1.82.19c.37.04.45.05.49.02s.05-.09.03-.14-.05-.09-.42-.13-1.07-.1-1.85-.16c-.77-.06-1.61-.14-2.52-.22-.49-.05-.99-.09-1.52-.14,0-.02,0-.04,0-.08-.01-.13-.03-.38-.04-.69s0-.66,0-.84v-.18h.05s.14,0,.28,0,.3,0,.4-.03.12-.08.1-.13-.08-.09-.21-.11c-.13-.03-.33-.04-.77-.05-.45-.01-1.14-.03-1.64-.06-.49-.03-.78-.07-.94-.09-.15-.02-.17-.03-.17,0,0,.02.04.08.07.12.04.04.08.07.17.09.09.02.23.02.47.04.23.02.56.05.76.07.21.02.29.03.34.04.05,0,.05,0,.06.07,0,.06.02.18.03.28,0,.1,0,.17-.01.22-.02.05-.04.08-.12.09-.08.02-.22.02-.33.03s-.17.01-.2.03c-.03.02-.03.04-.03.06,0,.02.02.02.13.02.11,0,.33,0,.45,0s.14,0,.16,0,.02,0,.02-.14,0-.39,0-.52v-.13s.06,0,.06,0c.06,0,.18.02.33.03s.3.04.39.05c.05,0,.08.03.08.06,0,.05,0,.14,0,.28s0,.31,0,.52c0,.21.03.46.04.64.01.17.01.26.01.31-.41-.04-.84-.08-1.28-.11-.65-.05-1.32-.11-1.93-.15.06,0,.12-.02.18-.03.16-.02.29-.03.4-.03.11,0,.19.02.26.03.07.01.12.02.15.02.04,0,.06,0,.08-.01.02,0,.03-.03.04-.04,0-.01,0-.02,0-.04,0-.02-.01-.05-.02-.08,0-.03-.01-.06-.02-.17,0-.11,0-.3,0-.39v-.09s.04.02.04.02c.04.02.11.07.17.09s.09.03.12.03c.02,0,.04-.01.04-.03,0-.02,0-.03-.06-.08s-.18-.12-.24-.16-.06-.05-.07-.07c0-.02,0-.06,0-.07,0-.01,0-.02,0-.02,0,0,0,0,0,0,0,0,.03,0,.04,0,.01,0,.02,0,.03-.02s.02-.02.02-.03c0-.01.01-.03.01-.05,0-.02,0-.04-.02-.06-.02-.02-.04-.05-.07-.09-.03-.03-.07-.07-.2-.16-.13-.09-.36-.23-.76-.49s-.96-.62-1.45-.92-.88-.53-1.09-.64c-.21-.11-.23-.12-.24-.1-.01.01-.02.04.03.1.05.06.16.14.32.26.16.12.38.28.61.44.24.16.49.33.82.53s.73.45,1.03.64c.3.19.5.32.6.39.1.07.11.08.11.1s0,.06,0,.08c0,.02,0,.02-.02,0-.02,0-.06-.03-.11-.04s-.1-.01-.14-.01-.04,0-.04.01c0,.01.02.04.08.09.06.05.15.11.19.14.05.03.05.04.05.13s0,.28.01.38c0,.1,0,.12,0,.13,0,.01,0,.02-.13.03-.12.01-.35.03-.54.04-.19.01-.34.01-.41.01s-.08,0-.08,0c0,0,0,0,.02-.07.02-.07.05-.22.07-.32.02-.1.02-.15.02-.17s0-.03-.04-.03-.11,0-.26.02c-.15.01-.36.04-.5.05s-.18.03-.22.04c-.04.02-.06.05-.02.06.04.01.15,0,.31,0s.38-.02.49-.03h.11s0,0,0,0c0,.02-.01.05-.03.08s-.03.08-.06.15c-.02.06-.05.15-.06.21s0,.11,0,.14c0,.02,0,.03,0,.04-.23-.01-.45-.03-.65-.04-.13,0-.26-.01-.37-.02,0-.03,0-.07,0-.14,0-.11.01-.3.03-.51.01-.2.02-.41.03-.53s.01-.15.02-.17,0-.02.08-.02.21,0,.38,0,.37.03.55.04c.18.01.35.03.45.03.11,0,.15,0,.17-.02.02-.03.03-.08,0-.12-.02-.04-.05-.07-.12-.08-.07-.02-.18-.03-.38-.05s-.51-.03-.72-.05-.33-.02-.38-.02c-.04,0-.06,0-.06-.01,0-.01,0-.04-.01-.05-.01-.01-.04-.02-.06,0-.02.01-.03.04-.04.05,0,0-.02.01-.04.01-.03,0-.09,0-.24-.01s-.38-.03-.58-.05-.36-.03-.53-.05c-.17-.02-.36-.03-.54-.05-.18-.01-.36-.02-.45-.03s-.09,0-.09-.02c0-.02,0-.05-.02-.07-.01-.02-.04-.02-.06,0-.02.01-.02.04-.03.05h0s-.12,0-.12,0c-.12,0-.36-.01-.6-.03-.24-.01-.48-.02-.61-.03-.12,0-.13,0-.12-.01,0,0,.02-.02.14-.09s.33-.21.53-.33c.2-.13.39-.25.64-.41s.57-.37.78-.51c.21-.14.32-.21.38-.27.07-.06.1-.11.1-.15,0-.04-.02-.08-.05-.09-.03-.02-.08-.02-.15.02s-.18.1-.43.27c-.25.17-.65.43-1.05.7-.4.26-.79.52-1.15.77-.37.24-.71.47-.9.62-.19.14-.23.2-.24.23-.02.03-.01.03,0,.03.02,0,.06,0,.12-.02.06-.02.13-.06.27-.14.14-.08.35-.21.5-.29.15-.08.22-.12.27-.15s.06-.02.27,0,.6.04.86.07c.26.02.39.04.45.05.06.01.06.02.06.08,0,.06,0,.18-.01.25,0,.07,0,.08,0,.08,0,0,0,0-.13-.03-.12-.03-.37-.1-.56-.15s-.34-.08-.47-.1c-.13-.02-.25-.03-.31-.03-.06,0-.07,0-.07.01s0,.02,0,.04c0,.01.01.03.03.04.02.01.05.02.15.05s.27.06.47.11c.2.05.44.12.58.16s.17.04.2.04c.03,0,.04,0,.06,0,.02,0,.03,0,.04.08s.02.23.02.38c0,.15,0,.3,0,.4s-.02.13-.02.16c0,.03,0,.04.03.05.02,0,.06.02.09.02.03,0,.05,0,.06-.03,0-.03,0-.08,0-.18,0-.1-.02-.26-.02-.4,0-.15.01-.29.02-.36v-.07s.06,0,.06,0c.05,0,.16.01.21.02h.05s0,.07,0,.07c0,.06-.01.19-.03.3-.01.11-.03.2-.03.26,0,.07,0,.11.01.13.01.02.04.02.06,0,.02-.02.05-.05.06-.11s.02-.16.03-.27c0-.11.02-.24.03-.33s.01-.14.02-.17,0-.03,0-.03c0,0,.03,0,.09,0,.09,0,.28,0,.55.02s.63.02.81.03h.18s0,.19,0,.19c0,.18-.03.54-.04.73v.16c-.38,0-.68,0-.97,0-.48.02-.92.05-1.46.11-.54.06-1.18.14-1.84.23-.67.09-1.36.2-2.08.33-.72.13-1.45.27-1.86.36-.41.08-.48.1-.55.12h0Zm4.71-1.87c.12-.03.35-.04.63-.02s.6.1.79.14c.19.05.24.07.27.09s.03.05.02.07c0,.02,0,.04-.04.05-.03.01-.1.01-.21,0-.12-.01-.29-.05-.47-.08-.18-.03-.38-.07-.55-.09-.18-.02-.33-.03-.43-.04-.09,0-.12-.02-.13-.05-.01-.02,0-.06.12-.09h0Zm-.27-.54s-.05.11-.06.22c-.01.11-.02.24-.02.37,0,.12-.01.23-.03.32-.01.08-.04.14-.04.2s0,.11.01.15.02.06.04.06c.01,0,.02-.03.05-.09.02-.06.06-.16.08-.3s.03-.29.03-.45c0-.16.01-.32,0-.4-.01-.09-.04-.09-.06-.06h0Zm5.06-2.43c0-.12.04-.34.06-.52s.04-.31.06-.41.02-.15.02-.18c0-.03,0-.03-.02-.03s-.04-.02-.05-.02c0,0,0-.02.02-.03s.04-.04.07-.05c.04-.01.09,0,.21,0,.13.02.33.04.56.07.23.02.48.05.63.06s.18.03.23.04c.04.01.1.02.17.03.07,0,.16,0,.21,0s.04.02.02.03-.06.02-.08.03c-.03,0-.04.02-.05.03,0,.01,0,.03,0,.09,0,.06.01.17,0,.28,0,.11-.03.23-.06.35-.03.12-.06.24-.08.35-.02.11-.02.21-.02.28,0,.07-.02.1-.03.1,0,0-.01-.04-.01-.1,0-.06,0-.13,0-.26,0-.13.03-.31.06-.5.02-.19.05-.38.06-.47.01-.09,0-.09-.01-.09-.02,0-.04,0-.09,0s-.11-.03-.17-.04-.11-.03-.22-.04-.26-.01-.45-.04-.41-.06-.54-.08-.18-.03-.2-.03c-.02,0-.02.01-.02.03s.02.05.02.11c0,.06,0,.16-.01.29-.01.13-.04.3-.06.44-.02.14-.05.26-.08.33-.03.07-.07.09-.09.09-.02,0-.04-.03-.03-.15h0Z"/>
  <path class="cls-1" d="m14.91,7.25c.02-.06.07-.16.14-.26.08-.1.18-.21.26-.29.08-.09.12-.16.15-.19.03-.04.03-.05.05-.05.02,0,.06.02.1.04s.11.04.17.06.13.05.18.06c.05.01.09.02.12.03s.08.01.1.02.04.01.04.03c0,.02-.02.05-.05.1s-.09.12-.13.18-.08.12-.11.16c-.03.04-.05.08-.05.1,0,.03,0,.05,0,.07s.03.04.07.05c.04.02.11.03.17.04s.12.01.18.02c.06,0,.11,0,.16.02s.1.02.14.04c.04.01.08.03.1.04.02.01.03.03.03.04,0,.02-.01.04-.04.07-.02.03-.06.06-.09.09-.04.03-.07.06-.11.09-.04.03-.07.06-.11.1-.03.03-.07.06-.1.1-.03.03-.07.07-.1.11s-.05.06-.06.09c-.01.03-.02.06-.03.09,0,.03,0,.05,0,.07,0,.02.03.04.05.05.02,0,.05.01.08,0,.03,0,.06,0,.09,0s.08,0,.1.02c.02.01.03.03.03.05,0,.02-.02.05-.04.07-.02.02-.05.03-.09.08s-.11.13-.19.2c-.08.07-.16.14-.24.19-.08.04-.14.06-.17.07-.03,0-.03,0-.03-.02s0-.06,0-.18.02-.32.02-.48,0-.26,0-.35-.01-.17-.04-.22-.07-.07-.12-.05c-.05.02-.09.09-.12.19-.03.1-.03.24-.03.31,0,.07,0,.07-.03.05-.02-.02-.06-.04-.12-.06s-.12-.04-.16-.05c-.04,0-.06-.01-.08-.03-.01-.02-.02-.05-.01-.08s.04-.07.11-.12c.06-.05.16-.11.24-.18.08-.07.14-.14.18-.19.04-.05.04-.08.05-.12s0-.08,0-.11c0-.03-.02-.06-.06-.07-.04-.02-.11-.04-.18-.04s-.14,0-.2.01-.1,0-.14,0c-.04,0-.06,0-.08,0s-.03,0,0-.07m-12.5,2.62c0-.16.02-.53.05-.82.03-.29.07-.52.09-.64.03-.12.04-.13.05-.13.01,0,.02.03.03.11,0,.09,0,.25,0,.32,0,.08,0,.07.06.02.06-.05.18-.15.29-.26.11-.11.21-.24.27-.33.06-.09.08-.15.08-.19s-.02-.04-.05-.05c-.03,0-.07,0-.11,0-.03,0-.06-.02-.06-.05,0-.03,0-.07.02-.11.02-.04.04-.07.05-.12.02-.05.03-.12.03-.19s0-.16-.04-.25c-.04-.09-.11-.2-.2-.27s-.2-.11-.29-.13c-.09-.02-.16-.02-.19-.03-.03-.02-.01-.05.02-.1.03-.05.06-.11.11-.2.04-.1.1-.23.13-.33.03-.1.04-.17.03-.19s-.04,0-.1.02-.16.04-.28.09c-.12.05-.28.12-.36.16-.08.04-.08.04-.07.05.01,0,.04.02.06.04s.03.04.02.07-.04.07-.08.12c-.04.06-.1.13-.16.2-.06.07-.13.14-.19.2-.06.06-.11.09-.14.13-.04.04-.06.07-.06.08s0,.02.04.05c.04.03.1.08.15.12.05.04.08.07.1.09.02.02.03.04.03.06,0,.02-.01.04-.04.06s-.05.05-.08.07-.06.06-.09.09c-.03.03-.05.06-.06.08,0,.02,0,.04.03.06.03.02.08.04.12.05s.1.01.17.02c.08,0,.18.01.27.02s.17,0,.23.02c.06,0,.09.02.12.04s.05.03.06.06c0,.03,0,.07-.04.1-.04.03-.1.05-.16.07-.06.01-.11.02-.16.03s-.11.04-.14.06-.05.04-.06.05c-.01.02-.02.03-.02.05,0,.02,0,.04.08.08.07.04.19.09.28.13.09.04.14.07.16.09s.04.03.04.04c0,0,0,.02-.02.02s-.04,0-.08-.01c-.05-.01-.11-.04-.18-.06-.07-.02-.13-.04-.2-.06-.07-.01-.14-.02-.21-.04-.06-.01-.11-.03-.15-.06-.04-.03-.06-.06-.07-.1-.01-.04-.01-.09,0-.13s.05-.05.12-.06c.07,0,.16,0,.24-.02.08-.02.15-.06.18-.08.03-.02.02-.02-.01-.01-.03,0-.07,0-.17-.01-.1-.02-.26-.05-.38-.08s-.19-.06-.25-.09c-.06-.03-.12-.06-.14-.08-.03-.02-.03-.03,0-.05.02-.02.07-.05.12-.08s.12-.07.17-.1c.04-.03.06-.04.06-.05,0,0,0-.01-.02-.03s-.05-.05-.09-.08-.07-.09-.11-.14c-.04-.06-.07-.12-.09-.18s0-.1.03-.15c.04-.05.11-.11.17-.16.06-.05.12-.09.18-.13.06-.04.13-.08.17-.11s.07-.05.07-.07c0-.01-.03-.01-.05-.02s-.05-.02-.07-.04c-.02-.02-.03-.05-.02-.08s.03-.06.05-.09.05-.07.08-.1.07-.07.14-.11c.07-.04.19-.07.33-.12.14-.05.31-.12.43-.17.11-.04.17-.06.2-.06s.04.04.05.09c0,.05,0,.12-.02.2-.02.08-.07.17-.1.25-.04.08-.07.15-.09.21-.02.06-.03.13-.03.16s0,.03.02.03.04,0,.09,0c.05,0,.12.03.18.07.06.04.12.11.17.18.05.07.11.15.15.23.04.08.06.16.07.26,0,.1,0,.21-.01.27s0,.07,0,.08c0,0,.02.02.04.03.02.02.04.04.05.08s.02.1-.01.21-.1.25-.2.39c-.11.14-.26.28-.37.36-.11.08-.18.11-.22.13-.04.02-.05.04-.06.1s-.04.17-.06.33-.05.37-.08.5c-.02.12-.04.16-.04,0h0Zm3.92-5.69c-.13.03-.36.07-.56.11s-.36.07-.48.08-.19-.02-.25-.05c-.06-.03-.1-.08-.11-.1,0-.03.02-.04.13-.1.11-.06.3-.18.45-.28s.27-.19.33-.24.08-.06.06-.07-.06-.01-.13-.03c-.06-.02-.14-.05-.2-.09s-.1-.07-.08-.09c.02-.03.08-.04.15-.06.07-.02.13-.05.29-.2s.4-.45.57-.64.26-.29.31-.34c.05-.04.06-.03.07,0,.01.03.03.08.08.17.06.08.15.2.27.32.12.11.26.23.36.32.09.1.13.18.14.27s-.01.19-.05.26c-.03.07-.08.12-.1.15-.02.02-.02.03-.02.03,0,0,.02.02.05.09.03.07.07.18.08.28s-.01.19-.06.28-.11.21-.19.29-.16.11-.23.13c-.08.02-.14.02-.17.02-.02,0,0,0,.05-.04.05-.04.15-.11.24-.21.09-.1.17-.24.2-.36.03-.12,0-.23-.06-.29s-.16-.09-.22-.12c-.06-.03-.07-.08-.06-.11,0-.03.02-.06.06-.07.04-.01.11-.01.16-.03s.11-.04.14-.08c.04-.04.06-.08.06-.13s-.02-.12-.06-.17c-.04-.05-.09-.1-.18-.17s-.22-.16-.32-.27c-.1-.1-.18-.22-.21-.28-.04-.06-.04-.06-.04-.05,0,0-.02.03-.07.08-.07.08-.2.25-.32.39s-.24.26-.33.35c-.09.09-.16.14-.19.16-.03.03-.03.03-.02.03.01,0,.04.02.09.03.05.02.13.04.18.05s.08.02.09.03c.02,0,.02.02.01.04s-.03.05-.07.07c-.04.02-.09.05-.18.12-.09.07-.22.19-.3.27s-.12.12-.13.14c-.02.02,0,.03.03.04.04,0,.12.02.19.03.08,0,.15,0,.23,0h.23c.08,0,.17,0,.2,0,.03,0,.01.02-.11.05h0Zm.34,1.31c0-.21,0-.63.02-.96.03-.34.07-.59.11-.72.03-.13.05-.14.07-.14.02,0,.06,0,.08,0,.02,0,.02,0,.02.05,0,.05,0,.14-.01.24s-.02.22-.04.38c-.02.16-.04.36-.07.53-.02.17-.04.3-.06.41-.02.11-.03.18-.05.25-.01.06-.02.12-.04.14-.01.02-.03.02-.04-.19h0Zm8.9,4.22s.05-.1.07-.18c.02-.07.03-.15.05-.19.01-.04.03-.05.07-.08s.13-.08.25-.14c.12-.07.28-.15.38-.24s.17-.19.19-.29c.02-.1,0-.19-.03-.25s-.09-.09-.11-.11c-.02-.02-.02-.02,0-.05.02-.03.06-.07.15-.17.08-.09.21-.24.25-.34.04-.1,0-.17-.04-.22-.04-.05-.1-.1-.2-.13s-.24-.07-.33-.09c-.09-.02-.11-.04-.12-.05-.01-.01-.01-.02,0-.05.02-.03.05-.08.11-.19s.15-.27.2-.37c.05-.1.07-.14.05-.15-.02,0-.06.03-.15.04s-.21,0-.3,0c-.09,0-.13-.02-.2-.04-.07-.02-.15-.06-.22-.09s-.12-.06-.16-.08c-.04-.02-.07-.03-.1,0s-.05.07-.09.13c-.04.06-.09.14-.15.21s-.12.15-.18.22-.11.13-.14.18c-.04.05-.05.09-.07.13-.01.04-.02.08-.02.12,0,.04,0,.08.01.11.01.03.04.06.08.08.03.02.08.02.13.02.05,0,.12,0,.17,0s.1,0,.13,0,.07,0,.09.01c.02,0,.03.02.03.04s0,.03-.01.06-.05.07-.08.1-.07.06-.11.09c-.04.03-.07.06-.12.1s-.1.08-.15.12c-.05.04-.1.09-.13.13-.03.04-.05.08-.06.1,0,.03,0,.05.02.07s.04.04.07.06c.03.02.06.04.1.05s.07.03.11.03c.04,0,.07.01.1.02s.07,0,.1.01.05.01.07.03c.02.01.03.03.04.05,0,.03,0,.07,0,.11,0,.05-.01.11-.01.16,0,.05,0,.09,0,.14v.17c0,.06,0,.12,0,.17s0,.11,0,.16,0,.11,0,.15.01.05.02.07c.01.02.03.04.05.05.02.01.04.02.06.01s.05,0,.07-.05h0Z"/>
</svg>