<?xml version="1.0" encoding="UTF-8"?>
<svg id="Camada_1" data-name="Camada 1" xmlns="http://www.w3.org/2000/svg" viewBox="0 0 813.24 280.21">
  <defs>
    <style>
      .cls-1 {
        fill: #fff;
        fill-rule: evenodd;
        stroke-width: 0px;
      }
    </style>
  </defs>
  <path class="cls-1" d="m441.63,185.34c5.07-2.72,14.71-7.81,25.02-13.74,10.3-5.94,21.27-12.75,26.8-16.05,5.53-3.31,5.62-3.14,4.55-1.64-1.07,1.48-3.31,4.3-9.26,8.77-5.94,4.47-15.6,10.62-24.15,15.09s-16.01,7.29-20.66,8.83c-4.65,1.56-6.49,1.87-7.18,1.84-.67-.02-.2-.37,4.87-3.09m95.79-17.02c.14-2.85.11-8.54.11-11.37,0-1.9.11-2.81.34-2.72.35.11,1.06.34,3.05.86,1.99.51,5.26,1.3,8.14,1.7,2.86.4,5.31.4,6.54.41,1.24,0,1.26.03,1.33.4.08.37.21,1.09.21,3.9s-.11,7.7-.37,10.77c-.26,3.08-.66,4.35-.86,4.99l-.2.64-.46-.2c-.46-.2-1.39-.6-3.5-1.45s-5.42-2.16-7.79-3c-2.37-.84-3.84-1.22-4.9-1.48s-1.7-.41-1.88-.49c-.18-.08.11-.08.23-2.92l.02-.03Zm-29.14-7.27c7.15,4.06,21.08,11.86,33,17.92,11.91,6.06,21.81,10.35,28.05,12.89,6.24,2.54,8.85,3.32,10.87,3.17,2.04-.14,3.5-1.21,3.52-2.65,0-1.44-1.42-3.26-2.27-4.29-.84-1.03-1.07-1.26-4.53-2.56s-10.15-3.66-13.5-4.85c-2.23-.79-3.31-1.93-3.21-3.43.12-2.25.38-6.75.49-10.99s.05-8.22-.09-10.15c-.12-1.93-.34-1.82-.77-1.67-.43.14-1.1.32-2.54.44s-3.66.21-7.3-.55c-3.63-.77-8.68-2.37-11.86-3.37-3.18-.98-4.52-1.33-5.26-1.19-.75.12-.92.73-.84,1.12.09.37.43.52.84.7.4.18.87.41,1.13.86.28.43.37,1.07.44,1.91.09.86.17,1.91.24,4.44.08,2.53.12,6.5.08,8.48-.06,1.97-.23,1.94-.8,1.76-.57-.18-1.52-.54-6.92-2.71s-15.27-6.18-20.46-8.14c-5.19-1.96-5.71-1.87-5.79-1.68s.31.47,7.45,4.53h.02Zm-86.72,2.43c-.55-2.48-.87-7.06-1.32-11.72-.43-4.68-.96-9.46-.47-13.64.47-4.18,1.97-7.76,2.82-9.43.84-1.65,1.04-1.39,1.36-.52.32.87.75,2.37.93,5.28.18,2.91.12,7.22.02,10.93-.11,3.7-.23,6.84-.18,9.8s.28,5.74.14,7.81c-.15,2.05-.67,3.38-1.33,3.87-.64.47-1.41.12-1.96-2.36v-.02Zm-47.25-114.88c1.03-1.03,2.31-3.49,4.45-5.31,2.14-1.82,5.17-3,7.73-3.86,2.54-.86,4.61-1.38,5.68-2.62,1.07-1.22,1.16-3.15.02-4.9-1.15-1.73-3.5-3.28-6.67-4.55-3.15-1.27-7.12-2.28-9.67-3.38-2.57-1.1-3.75-2.28-4.13-3.9-.37-1.62.06-3.69,2.34-6.28,2.28-2.59,6.41-5.71,9.15-7.85,2.74-2.16,4.1-3.34,4.39-4.24.29-.9-.51-1.52-2.31-1.68-1.81-.17-4.61.09-7.9,1.88-3.29,1.81-7.07,5.13-9.26,8.1s-2.82,5.56-2.83,8.75.55,7.03,2.59,9.26c2.04,2.23,5.56,2.89,8.74,3.35,3.18.46,6.03.72,7.58,1.03,1.53.31,1.76.66,1.53,1.12-.21.46-.87,1.03-2.53,1.71-1.65.67-4.29,1.47-6.18,2.74-1.91,1.27-3.09,3.03-3.86,4.91s-1.12,3.9-.9,5.11,1.01,1.61,2.04.57l.02.03Zm-5.98,22.21c-.17.12-.2.34-.75,4.88-.55,4.55-1.64,13.41-2.17,17.83-.36,2.95.24,4.03,1.81,3.24,2.34-1.18,7.04-3.55,9.49-4.9,2.45-1.33,2.65-1.64,2.83-4.99s.32-9.76.31-12.96c-.03-3.2-.23-3.2-1.26-3.28-1.04-.08-2.91-.23-4.61-.24-1.71,0-3.28.11-4.21.18s-1.24.11-1.41.23h-.03Zm-17.83,50.45c.55,5.19.37,15.98.47,21.14.11,5.16.54,4.65,1.33,1.61s1.99-8.66,2.65-14.11c.67-5.45.83-10.76.98-13.41s.31-2.65,4.13-4.39c3.84-1.73,11.36-5.2,19.45-9.05,8.11-3.84,16.8-8.04,22.56-11.56,5.75-3.54,8.59-6.4,10.79-9.32,2.22-2.94,3.81-5.95,3.55-7.18-.26-1.22-2.4-.64-5.89,1.03-3.49,1.68-8.34,4.47-12.86,6.73-4.52,2.27-8.72,4.03-10.87,4.9-2.16.87-2.27.87-2.4-.98s-.29-5.56-.21-9.03c.08-3.47.38-6.72.47-8.31.09-1.61-.02-1.56-1.24-1.62s-3.55-.21-6.66-.38-6.99-.37-8.92-.54c-1.93-.17-1.88-.32-1.16-1.58s2.14-3.63,3.11-4.85c.98-1.22,1.5-1.3,3.7-1.1,2.19.18,6.05.64,8.74,1.1,2.69.46,4.21.92,5.98,1.06s3.8-.06,5.91-.77c2.11-.7,4.33-1.93,5.02-2.65s-.15-.95-2.11-1.33-5.05-.92-9.05-1.21c-3.98-.29-8.88-.32-12.41-.37-3.55-.03-5.75-.08-6.99,0s-1.5.26-2.02,1.07c-.52.8-1.29,2.22-2.77,4.5-1.48,2.3-3.7,5.45-4.74,7.18-1.06,1.71-.93,1.99-.57,2.11.37.14.98.14,1.71.14s1.62,0,2.02.31.32.92.29,1.39c-.05.47-.05.83-.44,5.53-.4,4.71-1.21,13.79-1.62,18.37-.41,4.58-.46,4.65-.78,4.87-.32.21-.93.55-5.83,2.94s-14.1,6.81-21.15,10.53c-7.06,3.72-11.98,6.73-14.82,8.62-2.85,1.88-3.61,2.65-3.73,3.69-.14,1.03.37,2.33,2.45,2.66,2.08.34,5.74-.26,11.14-2.45,5.4-2.17,12.53-5.91,16.74-7.99s5.51-2.49,6.06,2.69l-.02.02Zm91.36-37.77c4.12,3.2,12.09,8.16,21,13.42,8.91,5.28,18.75,10.88,23.66,13.82,4.91,2.95,4.91,3.26,4.9,8.94-.03,5.68-.08,16.73.11,23.03s.58,7.87.75,8.48c.18.61.12.24.23-2.33s.35-7.36.98-12.75c.63-5.37,1.64-11.33,2.45-14.39.81-3.05,1.41-3.2,3.66-2.57,2.25.63,6.14,2.05,9.29,3.31,3.15,1.26,5.57,2.37,8.68,2.92s6.89.55,9.21-.18,3.18-2.19,2.42-3.26c-.75-1.06-3.12-1.71-4.87-2.22s-2.85-.86-8.02-3.2-14.4-6.69-26.89-13.22c-12.49-6.54-28.24-15.26-37.08-20.46-8.86-5.2-10.82-6.86-12.18-7.19-1.36-.32-2.11.69-2.37,1.91-.24,1.24,0,2.69,4.12,5.91l-.03.03Zm103.89,51.59c2.11-1.22,5.82-3.24,8.49-4.64,2.68-1.39,4.32-2.16,5.08-2.85s.64-1.3.21-1.81c-.44-.52-1.21-.93-2.79-1.36-1.58-.41-3.99-.84-6.47-1.93-2.48-1.09-5.04-2.85-6.43-5.46s-1.62-6.09-.11-9.99c1.52-3.92,4.74-8.26,7.27-11.31,2.53-3.05,4.32-4.81,5.11-4.74s.61,1.93-.47,4.35-3.08,5.4-4.59,8.05c-1.53,2.65-2.6,4.97-3.09,6.83-.49,1.85-.41,3.23,1.26,4.94,1.68,1.71,4.96,3.78,7.87,5.19,2.89,1.41,5.42,2.17,6.83,3.18,1.41,1.01,1.71,2.27,1.3,3.54-.41,1.26-1.56,2.53-3.8,3.61-2.23,1.09-5.56,2-8.3,2.91-2.75.9-4.93,1.78-6.58,2.37s-2.8.9-3.11.84c-.31-.06.23-.47,2.34-1.7l-.03-.02Zm-176.59,108.57c-2.57-.06-5.05-.11-7.47-.14l.14-1.16c.23-1.93.69-5.8,1.01-10.61.32-4.81.49-10.58.61-14.25s.17-5.26.06-6.01c-.12-.75-.4-.66-3.06-.7-2.65-.05-7.67-.21-14.83-.23-7.16,0-16.47.12-24.15.17-7.68.05-13.73,0-18.01-.2-4.29-.18-6.78-.51-8.74-1.09-1.94-.58-3.32-1.41-4.53-1.47-1.19-.06-2.2.66-2.62,2.04-.41,1.36-.24,3.38-.2,4.39.05,1.01-.03.99-.75.96-.73-.03-2.11-.06-4.24-.37-2.13-.31-5.02-.87-6.46-1.24-1.44-.37-1.44-.54-1.3-2.37s.4-5.34.64-7.12c.24-1.78.47-1.81,3.44-1.84s8.66-.05,16.02.14c7.35.18,16.36.57,28.24,1.27s26.65,1.74,35.26,2.31c8.62.55,11.1.63,12.35.7,1.24.08,1.26.14,1.27,1.07.03.93.06,2.71-.09,6.52-.17,3.81-.54,9.63-1.04,15.09s-1.16,10.59-1.45,13.22c-.03.34-.06.64-.09.9h-.02ZM7.93,273.59c-2.53.44-4.45.92-5.72,1.65-1.27.73-1.87,1.73-2.1,2.6-.23.87-.11,1.61.34,2.04.43.43,1.16.57,9.4-.43,8.23-.99,23.97-3.14,44.89-5.8,20.94-2.66,47.06-5.86,71.99-8.57,24.93-2.69,48.65-4.9,70.22-6.87,21.56-1.96,40.96-3.7,62.26-5.2,21.29-1.5,44.49-2.77,64.22-3.23,19.73-.46,36-.14,54.65.37s39.73,1.16,59.8,2c20.06.83,39.13,1.84,68.47,3.4,29.34,1.56,68.98,3.69,107.18,5.94,38.22,2.25,75.01,4.62,106.48,6.76,31.47,2.14,57.61,4.06,72.26,5.1,14.65,1.04,17.78,1.19,19.44.46s1.81-2.34,1.22-3.64-1.88-2.3-16.56-3.49c-14.68-1.19-42.73-2.57-73.48-4.21-30.73-1.65-64.16-3.57-100.03-5.79-19.35-1.19-39.43-2.49-60.29-3.78-.05-.47-.14-1.13-.24-2.04-.44-3.35-1.32-10.07-1.71-18.12-.4-8.05-.31-17.43-.26-22.13l.05-4.7h1.91c1.91-.05,5.72-.09,11-.14s12.05-.09,15.86-.81,4.7-2.13,3.95-3.35-3.12-2.28-8.22-2.95c-5.11-.67-12.96-.99-30.73-1.33-17.77-.35-45.46-.75-65.03-1.45-19.59-.7-31.08-1.71-37.21-2.3-6.12-.6-6.87-.77-6.64-.15.21.61,1.41,2.02,2.8,3.12,1.41,1.1,3.03,1.88,6.64,2.33,3.61.44,9.23.52,18.52,1.01,9.27.49,22.22,1.36,30.38,1.96,8.16.6,11.54.9,13.33,1.07,1.81.17,2.02.21,2.37,1.84.35,1.62.83,4.82,1.01,7.35.17,2.53.05,4.36-.55,5.66-.6,1.3-1.64,2.04-4.96,2.49-3.31.46-8.88.64-12.96.8-4.09.15-6.67.29-7.96.7-1.3.41-1.3,1.12-1.03,1.53.26.41.8.55,5.28.6,4.5.05,12.96,0,17.71-.02s5.74-.02,6.29-.06.64-.14.61-3.6-.15-10.32-.21-13.73l-.06-3.43,2.43.15c2.43.15,7.3.46,12.96.87s12.11.95,15.34,1.21c2.15.17,3.23.68,3.23,1.52,0,1.26,0,3.75-.11,7.3s-.32,8.16-.05,13.76c.29,5.59,1.07,12.17,1.48,16.7.41,4.41.46,6.86.47,8.11-16.47-1.01-33.43-2.04-50.92-3-25.67-1.42-52.48-2.77-76.86-3.83,2.34-.23,4.79-.47,7.12-.67,6.17-.52,11.51-.75,15.79-.69,4.3.06,7.56.4,10.16.69,2.62.29,4.58.52,6.05.58,1.47.06,2.45-.06,3.18-.32.73-.26,1.22-.66,1.5-.99.28-.34.34-.6.18-1.09-.14-.49-.49-1.21-.8-2.02-.31-.81-.57-1.7-.64-4.59-.09-2.88,0-7.76.05-10.19l.05-2.43,1.48.58c1.48.58,4.45,1.73,6.69,2.39s3.73.84,4.71.77c.98-.08,1.44-.38,1.64-.8.2-.4.14-.89-2.3-2.13s-7.25-3.23-9.7-4.3-2.54-1.21-2.63-1.74c-.11-.54-.21-1.45-.28-1.91-.04-.31-.06-.45-.06-.44,0,.02-.02.05.32.06.35.02,1.04.02,1.55-.05.51-.06.81-.2,1.12-.41s.61-.52.87-.9c.26-.37.49-.81.46-1.27-.02-.46-.29-.95-.92-1.58-.64-.64-1.64-1.42-2.92-2.3-1.27-.87-2.8-1.84-8.14-4.19-5.33-2.34-14.45-6.08-30.26-12.78s-38.31-16.41-57.47-24.26c-19.16-7.85-35-13.85-43.31-16.88-8.31-3.02-9.11-3.05-9.58-2.71-.47.35-.66,1.07,1.38,2.54,2.04,1.47,6.28,3.69,12.69,6.89,6.43,3.2,15.03,7.38,24.44,11.63,9.41,4.27,19.62,8.62,32.71,13.99,13.09,5.37,29.06,11.78,41.05,16.71,11.98,4.93,19.97,8.39,24.03,10.21,4.07,1.82,4.21,1.99,4.33,2.62s.2,1.68.21,2.2c0,.52-.05.49-.84.23-.8-.26-2.33-.75-4.21-1.03s-4.13-.34-5.45-.37-1.68-.03-1.5.37c.18.38.93,1.16,3.12,2.36,2.19,1.19,5.83,2.82,7.7,3.66,1.87.86,1.99.93,2.14,3.4s.37,7.32.46,9.98c.11,2.66.11,3.15,0,3.46-.12.31-.35.41-5.05.73-4.7.32-13.87.84-21.41,1.12-7.55.29-13.45.35-16.5.35s-3.21-.06-3.29-.08c-.08,0-.05,0,.67-1.93.72-1.94,2.13-5.86,2.91-8.45.78-2.59.92-3.83.98-4.48s.03-.75-1.44-.75-4.38.09-10.15.44c-5.77.37-14.39.99-19.71,1.42s-7.35.66-8.79,1.18c-1.44.52-2.31,1.33-.61,1.64,1.68.32,5.92.14,12.41-.11,6.49-.24,15.23-.57,19.59-.72l4.36-.15-.15.4c-.15.4-.47,1.21-1.04,2.19s-1.38,2.13-2.34,3.84c-.96,1.7-2.1,3.95-2.48,5.62s-.05,2.77.23,3.7c.11.4.21.75.32,1.09-9.2-.37-17.88-.69-25.83-.93-5.25-.17-10.18-.31-14.83-.43.02-.67.06-1.74.2-3.8.2-2.97.58-7.97.99-13.27.4-5.28.81-10.84,1.13-14.02s.54-3.99.73-4.39.37-.4,3.23-.4,8.39.03,15.14.26c6.75.23,14.71.66,21.98,1.04,7.29.37,13.9.69,18.09.86,4.21.17,6,.2,6.93-.47.93-.69.99-2.08.35-3.12-.64-1.04-1.99-1.71-4.81-2.22-2.82-.51-7.1-.86-15.26-1.27s-20.19-.92-28.51-1.22c-8.33-.31-12.93-.43-15.23-.49-1.54-.04-2.31-.17-2.31-.38,0-.34-.03-.99-.54-1.35-.51-.37-1.52-.43-2.27-.12-.75.31-1.24,1.01-1.48,1.35-.16.23-.66.34-1.48.32-1.24-.03-3.73-.08-9.61-.35-5.88-.28-15.17-.77-22.97-1.21s-14.13-.81-20.97-1.22c-6.83-.41-14.16-.87-21.34-1.22-7.19-.35-14.23-.6-17.72-.73s-3.44-.15-3.5-.6c-.06-.44-.23-1.32-.81-1.76-.57-.44-1.55-.44-2.2-.08-.66.35-.98,1.07-1.15,1.44l-.17.35-4.74-.12c-4.74-.12-14.23-.38-23.83-.67-9.6-.28-19.28-.58-24.18-.73-4.91-.15-5.04-.15-4.79-.34.24-.18.86-.54,5.4-2.46s13.01-5.4,20.98-8.74c7.96-3.34,15.41-6.52,25.45-10.87,10.04-4.35,22.65-9.83,31.07-13.51,8.4-3.67,12.6-5.54,15.29-7.09,2.69-1.55,3.87-2.77,4.03-3.83.15-1.07-.72-1.99-2.07-2.42-1.33-.44-3.12-.4-6.08.47s-7.07,2.59-17.1,6.96c-10.02,4.36-25.97,11.39-41.71,18.3-15.75,6.93-31.3,13.77-45.92,20.2-14.6,6.43-28.27,12.43-35.83,16.19-7.56,3.77-9.01,5.3-9.7,6.09-.67.8-.58.86.31.87.87.02,2.54-.02,4.84-.52,2.31-.51,5.25-1.45,10.93-3.58,5.66-2.13,14.07-5.4,19.84-7.59,5.77-2.19,8.92-3.28,10.76-3.84s2.37-.6,10.55-.21,23.98,1.18,34.39,1.79c10.39.61,15.37,1.04,17.86,1.33,2.48.28,2.48.41,2.37,2.07-.12,1.65-.35,4.84-.49,6.57-.15,1.73-.21,1.99-.37,2.14-.15.15-.38.18-5.33-.69-4.94-.87-14.59-2.66-22.28-3.98-7.7-1.32-13.42-2.14-18.64-2.63-5.2-.49-9.89-.66-12.32-.67-2.43-.02-2.63.12-2.79.37s-.24.61-.14.98c.12.37.44.73,1.22,1.06.78.34,2,.63,5.98,1.24s10.71,1.55,18.79,2.94c8.1,1.39,17.54,3.24,22.99,4.22s6.92,1.07,7.97,1.13c1.06.05,1.73.05,2.31.08.6.03,1.12.08,1.56,2.13s.81,6.09.92,10.09c.12,3.99-.02,7.94-.29,10.41s-.72,3.46-.8,4.13c-.08.66.18.99,1.09,1.26.92.26,2.46.46,3.66.47,1.19.02,2.02-.15,2.37-.89.35-.75.21-2.07-.06-4.76-.28-2.68-.72-6.73-.67-10.61.03-3.87.54-7.59.78-9.44l.24-1.85,2.05.09c2.05.11,6.17.29,8.22.4l2.05.09-.18,1.68c-.18,1.68-.55,5.07-1.03,7.94-.47,2.86-1.07,5.22-1.32,6.95-.23,1.73-.09,2.82.43,3.4.54.58,1.45.64,2.37.23.92-.41,1.81-1.32,2.37-2.98s.8-4.13,1.15-7.04c.35-2.92.81-6.29,1.16-8.66s.58-3.73.7-4.41.12-.67.12-.69c0-.01,1.24.02,3.72.08,3.72.08,11.16.21,22.01.44s25.12.55,32.25.7l7.13.15-.37,4.78c-.37,4.78-1.09,14.31-1.44,19.09l-.31,4.09c-14.77-.18-26.71-.08-38.19.2-19.01.46-36.72,1.38-58.22,2.89-21.49,1.52-46.77,3.64-73.28,6.09-26.51,2.46-54.24,5.26-82.69,8.59-28.47,3.34-57.65,7.19-73.82,9.35-16.16,2.14-19.28,2.57-21.81,3.03l.05-.03Zm187.24-49.04c4.81-.69,14.1-1.15,25.21-.44,11.11.7,24.03,2.57,31.56,3.78,7.53,1.19,9.66,1.73,10.73,2.33s1.07,1.24.95,1.81c-.11.57-.34,1.07-1.68,1.35-1.33.29-3.78.37-8.42-.02-4.65-.38-11.51-1.22-18.79-2.1-7.29-.87-14.98-1.79-21.95-2.33-6.98-.54-13.22-.69-16.94-.93-3.72-.24-4.9-.6-5.34-1.22-.44-.63-.14-1.55,4.67-2.23l.02.02Zm-10.81-14.28c-.98.9-1.85,2.95-2.36,5.77-.52,2.82-.67,6.4-.87,9.63-.21,3.21-.47,6.08-1.04,8.3-.57,2.2-1.45,3.78-1.71,5.26s.08,2.89.52,3.87.98,1.5,1.45,1.45c.47-.06.9-.7,1.87-2.36.98-1.65,2.49-4.33,3.35-7.77s1.04-7.68,1.26-11.89c.21-4.21.44-8.4.02-10.64-.41-2.23-1.48-2.49-2.46-1.61l-.02-.02Zm201.37-63.78c.31-3.23,1.41-8.98,2.34-13.64s1.7-8.2,2.23-10.7.84-3.95.92-4.67c.08-.72-.08-.72-.7-.86s-1.73-.4-2.1-.64c-.37-.24.02-.47.64-.92s1.5-1.09,2.95-1.38c1.45-.29,3.47-.21,8.52.18,5.05.4,13.15,1.13,22.27,1.78,9.12.64,19.27,1.22,25.08,1.64s7.3.69,9.08.99c1.78.31,3.84.64,6.66.7,2.83.06,6.41-.17,8.17-.11s1.68.4.92.7-2.22.57-3.26.8c-1.06.23-1.7.41-2.02.77-.32.34-.32.84-.18,2.49.14,1.65.4,4.48.08,7.44-.32,2.95-1.24,6.05-2.4,9.2-1.16,3.15-2.57,6.35-3.26,9.26-.69,2.89-.64,5.49-.95,7.27-.31,1.78-.95,2.72-1.32,2.69-.37-.05-.44-1.07-.55-2.54-.11-1.47-.26-3.38.09-6.75.37-3.38,1.24-8.22,2.19-13.13.95-4.9,1.99-9.87,2.39-12.32.4-2.46.17-2.42-.49-2.34-.67.08-1.78.18-3.66,0s-4.56-.69-6.93-1.09-4.42-.7-8.62-.93-10.53-.38-18.04-.93-16.22-1.5-21.49-2.1-7.1-.83-7.99-.78c-.9.03-.86.34-.61.86s.7,1.24.9,2.88c.18,1.64.11,4.19-.44,7.65-.55,3.46-1.58,7.81-2.56,11.56-.98,3.77-1.88,6.93-3.08,8.75-1.18,1.84-2.63,2.33-3.61,2.23-.98-.09-1.47-.78-1.16-4.01l-.02-.02Z"/>
  <path class="cls-1" d="m592.8,190.51c.78-1.45,2.69-4.16,5.72-6.89,3.03-2.72,7.19-5.48,10.19-7.74,3-2.27,4.82-4.07,5.88-5.11,1.06-1.06,1.32-1.36,2.14-1.26.83.09,2.19.6,4.1,1.13s4.35,1.1,6.9,1.7,5.23,1.21,7.27,1.58c2.04.38,3.46.54,4.94.7s3.05.37,4.1.54,1.58.32,1.53.83c-.06.49-.7,1.33-2.07,2.65s-3.41,3.11-5.17,4.73-3.2,3.08-4.32,4.24c-1.1,1.16-1.87,2.04-2.17,2.75-.31.7-.15,1.24.23,1.73s.99.95,2.62,1.38c1.62.41,4.25.8,6.73,1.03s4.81.31,7.03.4c2.22.09,4.32.21,6.34.46s3.96.63,5.63,1.01c1.65.38,3.03.77,3.87,1.13.84.37,1.15.7,1.07,1.16-.08.46-.54,1.03-1.44,1.76-.9.72-2.23,1.61-3.63,2.42-1.39.83-2.85,1.58-4.3,2.4-1.45.83-2.91,1.7-4.25,2.54-1.36.84-2.62,1.64-3.99,2.56-1.38.92-2.86,1.94-4.01,2.79s-1.94,1.48-2.49,2.25c-.55.77-.86,1.64-.99,2.34-.14.7-.09,1.24.26,1.73.37.49,1.06.95,1.99,1.21.93.24,2.11.29,3.31.26,1.18-.02,2.37-.09,3.77-.03s3,.24,3.93.57c.93.32,1.21.78.99,1.36-.21.57-.9,1.26-1.73,1.76-.84.49-1.84.8-3.69,2.02s-4.56,3.35-7.64,5.33c-3.08,1.96-6.5,3.77-9.5,4.88-3,1.13-5.56,1.58-6.86,1.76-1.3.17-1.33.06-1.33-.47s.05-1.48.29-4.64.7-8.49.93-12.53.23-6.8.08-9.18-.46-4.41-1.52-5.69-2.85-1.81-4.67-1.21c-1.84.61-3.7,2.37-4.73,5.1-1.03,2.72-1.22,6.43-1.38,8.25-.15,1.81-.26,1.73-1.16,1.33-.9-.4-2.57-1.13-4.73-1.7s-4.79-.99-6.52-1.26c-1.73-.26-2.57-.38-3.15-.86-.57-.47-.87-1.32-.4-2.22s1.73-1.85,4.24-3.15c2.49-1.3,6.24-2.94,9.35-4.7,3.11-1.76,5.59-3.63,6.98-4.96,1.39-1.33,1.7-2.14,1.81-3.08s.05-2-.31-2.85c-.34-.84-.95-1.45-2.57-1.96-1.62-.52-4.25-.93-6.96-1.01s-5.49.18-7.79.32-4.09.14-5.48.15c-1.39.02-2.39.06-3.06-.02s-1.01-.26-.23-1.71m-497.09,68.75c.09-4.3.96-13.82,2.14-21.5,1.19-7.68,2.69-13.56,3.75-16.68,1.04-3.14,1.62-3.54,2.14-3.46.52.09.98.67,1.07,3.02.09,2.36-.2,6.47-.35,8.45-.14,1.97-.14,1.81,2.2.41,2.36-1.39,7.06-4.01,11.37-6.93,4.33-2.94,8.26-6.18,10.62-8.59,2.36-2.4,3.11-3.98,3.08-4.88s-.84-1.13-2.1-1.19c-1.26-.06-2.94.06-4.24-.06-1.3-.12-2.23-.46-2.43-1.22-.2-.75.32-1.91.98-2.94.67-1.01,1.48-1.88,2.1-3.2.61-1.3,1.01-3.05,1.13-4.99s-.06-4.09-1.53-6.54c-1.48-2.43-4.27-5.17-7.84-7.03s-7.93-2.85-11.56-3.31c-3.63-.46-6.54-.41-7.64-.84-1.1-.43-.41-1.36.67-2.62,1.07-1.26,2.53-2.82,4.27-5.37,1.74-2.56,3.78-6.09,5.02-8.74,1.26-2.65,1.71-4.38,1.33-4.96s-1.59,0-4.06.58-6.18,1.16-11.08,2.43c-4.9,1.27-11,3.24-14.13,4.27-3.14,1.01-3.31,1.07-2.79,1.27.52.2,1.74.55,2.49,1.04s1.04,1.13.61,1.94-1.59,1.81-3.28,3.28c-1.68,1.48-3.89,3.46-6.38,5.37-2.49,1.91-5.28,3.77-7.61,5.22-2.33,1.45-4.18,2.49-5.57,3.43-1.39.93-2.33,1.74-2.56,2.2s.23.58,1.74,1.33c1.52.75,4.06,2.14,5.98,3.21,1.91,1.07,3.2,1.82,4.06,2.43.87.61,1.33,1.07,1.3,1.53-.03.46-.55.93-1.39,1.48s-2,1.19-3.17,1.91-2.33,1.55-3.4,2.3c-1.07.75-2.07,1.45-2.37,2.04-.32.58.03,1.04,1.16,1.53,1.13.49,3.05,1.01,4.96,1.3s3.83.35,6.83.49c2.98.14,7.06.38,10.65.52s6.73.2,9,.41c2.27.2,3.66.55,4.82.96s2.1.87,2.4,1.62c.32.75.03,1.81-1.39,2.62-1.42.81-3.98,1.39-6.29,1.74-2.33.35-4.41.46-6.5.81s-4.18.93-5.54,1.45-2,.98-2.46,1.42c-.46.43-.75.84-.72,1.33.03.49.38,1.07,3.05,2.07,2.66.98,7.67,2.37,11.11,3.43,3.46,1.04,5.37,1.74,6.5,2.23s1.48.78,1.56,1.04c.09.26-.09.49-.64.58s-1.48.03-3.28-.35c-1.81-.38-4.47-1.07-7.09-1.68-2.62-.61-5.17-1.13-7.93-1.52-2.75-.38-5.72-.61-8.19-.98-2.46-.38-4.44-.9-5.89-1.56-1.45-.67-2.37-1.48-2.85-2.59-.46-1.1-.46-2.49.26-3.43s2.17-1.39,4.79-1.55c2.62-.14,6.38.03,9.69-.41,3.31-.43,6.15-1.48,7.32-1.97,1.16-.49.64-.43-.46-.38-1.1.06-2.79.12-6.8-.32-4.01-.43-10.33-1.36-14.92-2.2s-7.42-1.59-9.92-2.37c-2.49-.78-4.64-1.59-5.72-2.14-1.07-.55-1.07-.84-.2-1.33.87-.49,2.62-1.19,4.85-2.07s4.96-1.91,6.64-2.65c1.68-.72,2.33-1.13,2.53-1.39.2-.26-.03-.38-.81-.81s-2.11-1.19-3.54-2.2-2.94-2.3-4.38-3.8c-1.45-1.52-2.85-3.24-3.43-4.67s-.35-2.53,1.16-3.83c1.52-1.3,4.3-2.82,6.8-4.09,2.49-1.27,4.7-2.33,7.12-3.4,2.4-1.07,5.02-2.17,6.8-3.02s2.69-1.42,2.65-1.71c-.06-.29-1.1-.29-2.17-.49s-2.17-.61-2.91-1.16c-.72-.55-1.07-1.26-.81-2s1.13-1.56,2.07-2.4,1.91-1.71,3.14-2.65,2.66-1.91,5.63-2.88c2.95-.96,7.42-1.88,13.06-3.28,5.63-1.39,12.43-3.24,16.94-4.41,4.53-1.16,6.8-1.62,8.13-1.45s1.74.98,1.88,2.33c.14,1.33.03,3.2-.87,5.34-.9,2.14-2.59,4.59-4.09,6.67-1.52,2.1-2.85,3.83-3.72,5.51-.87,1.68-1.27,3.31-1.3,4.12s.32.81.96.81,1.56,0,3.43.26c1.85.26,4.64.78,7.12,1.94,2.46,1.16,4.61,2.95,6.76,4.85,2.14,1.88,4.3,3.86,5.83,5.92,1.53,2.07,2.46,4.21,2.69,6.73.23,2.53-.23,5.43-.43,6.99s-.14,1.81.17,2.04c.32.23.9.46,1.56.9.67.43,1.42,1.07,1.88,2.2s.64,2.75-.58,5.48-3.83,6.57-8.1,10.24c-4.27,3.69-10.19,7.22-14.54,9.35-4.35,2.11-7.13,2.82-8.68,3.4-1.53.58-1.82,1.04-2.4,2.69s-1.45,4.5-2.43,8.71-2.1,9.78-2.98,13.02c-.9,3.24-1.59,4.18-1.52-.12l-.05.06ZM251.65,109.86c-5.07.73-14.46,1.9-22.33,2.91-7.87,1.01-14.23,1.87-18.9,1.99s-7.65-.47-9.95-1.33c-2.3-.86-3.92-1.97-4.19-2.68-.28-.7.78-1.01,5.05-2.65,4.27-1.64,11.74-4.62,17.74-7.3s10.55-5.05,13.07-6.38,3.03-1.64,2.34-1.87-2.56-.38-5.07-.9c-2.53-.54-5.71-1.44-8.05-2.34s-3.86-1.82-3.26-2.48c.61-.66,3.34-1.06,5.98-1.59,2.65-.54,5.22-1.19,11.43-5.33s16.05-11.75,22.79-16.88,10.38-7.74,12.4-8.91c2.02-1.16,2.42-.86,2.92-.03.51.83,1.12,2.19,3.31,4.42,2.19,2.22,5.98,5.3,10.74,8.3,4.78,3,10.53,5.92,14.19,8.51,3.66,2.57,5.22,4.79,5.57,7.19s-.51,4.97-1.84,6.92c-1.33,1.94-3.15,3.26-4.06,3.92-.6.44-.82.72-.66.86.24.2.75.61,1.87,2.34,1.12,1.74,2.83,4.82,3.26,7.47s-.43,4.87-2.19,7.47-4.44,5.57-7.44,7.55-6.34,2.92-9.31,3.46c-2.98.54-5.6.63-6.58.61-.98-.03-.32-.18,1.84-1.16,2.17-.98,5.86-2.8,9.38-5.48,3.54-2.68,6.92-6.21,8.1-9.38,1.18-3.18.18-6-2.3-7.74s-6.41-2.4-8.6-3.28c-2.19-.89-2.65-1.99-2.56-2.88.11-.89.75-1.55,2.37-1.87,1.62-.32,4.19-.32,6.46-.7s4.24-1.13,5.63-2.1c1.39-.96,2.19-2.13,2.19-3.54s-.81-3.08-2.3-4.51c-1.48-1.44-3.66-2.65-7.24-4.47s-8.59-4.24-12.57-6.99c-3.99-2.75-6.96-5.83-8.51-7.35-1.55-1.52-1.64-1.47-1.68-1.44-.03.02-.93.75-2.69,2.19-2.65,2.17-7.94,6.5-12.87,10.24s-9.46,6.86-13.1,9.11c-3.63,2.25-6.37,3.61-7.67,4.32-1.32.7-1.21.75-.69.9.54.15,1.48.4,3.49.83,1.99.43,5.02,1.04,7.04,1.39s3.03.46,3.63.69c.61.23.81.58.43,1.12s-1.33,1.24-2.88,1.87c-1.55.63-3.66,1.19-7.22,3.03-3.55,1.84-8.56,4.97-11.78,7.04s-4.7,3.08-5.3,3.66c-.61.58-.35.73,1.29.98,1.64.24,4.67.61,7.73.78,3.06.18,6.14.18,9.11.18h9.01c3.15,0,6.58,0,7.93.15,1.33.15.58.46-4.48,1.19l-.03-.02Zm13.53,34.3c-.32-5.53-.23-16.48.78-25.28,1.01-8.8,2.92-15.47,4.21-18.9,1.29-3.43,1.94-3.63,2.92-3.69.98-.05,2.3.05,3.06.15.75.11.96.2.98,1.44.03,1.24-.12,3.61-.47,6.34s-.9,5.8-1.67,10.02c-.75,4.21-1.71,9.57-2.6,14-.89,4.44-1.68,7.97-2.4,10.74-.7,2.77-1.32,4.79-1.79,6.49-.47,1.68-.83,3.06-1.39,3.69-.55.63-1.32.54-1.64-4.99l.02-.02Zm353.96,110.73c.93-.98,1.84-2.75,2.6-4.67.75-1.91,1.36-3.99,1.91-5.1.55-1.12,1.06-1.26,2.95-1.99s5.17-2.05,9.92-3.78c4.74-1.74,10.96-3.92,15.27-6.34s6.73-5.1,7.65-7.62c.9-2.53.31-4.9-1.06-6.46s-3.49-2.33-4.47-2.77c-.98-.46-.83-.61.08-1.29.9-.69,2.57-1.9,5.88-4.36,3.31-2.48,8.25-6.21,9.99-8.91,1.74-2.69.28-4.36-1.48-5.79-1.76-1.41-3.84-2.57-7.77-3.54s-9.73-1.71-13.12-2.3c-3.38-.58-4.35-.98-4.79-1.26-.46-.28-.4-.43.31-1.19.7-.75,2.07-2.13,4.52-4.93,2.45-2.8,5.98-7.04,8.02-9.69,2.05-2.65,2.6-3.7,1.97-3.84-.63-.12-2.45.69-5.83,1.04s-8.33.24-11.74.08c-3.41-.18-5.28-.43-7.9-1.01-2.62-.58-6-1.48-8.68-2.3s-4.64-1.52-6.21-1.97c-1.56-.46-2.72-.66-3.84-.11s-2.17,1.87-3.7,3.5c-1.55,1.64-3.55,3.61-5.8,5.6s-4.71,4.01-6.96,5.8-4.27,3.35-5.65,4.64c-1.39,1.29-2.14,2.3-2.65,3.34-.51,1.04-.75,2.1-.86,3.15-.11,1.06-.05,2.13.54,3,.58.89,1.68,1.59,3.06,1.99,1.36.4,2.98.51,5.1.54,2.13.03,4.74-.03,6.89-.11s3.81-.18,5.33-.18,2.88.11,3.7.32c.83.23,1.13.58,1.32.96s.23.78-.4,1.48-1.94,1.71-3.31,2.6-2.77,1.64-4.19,2.42c-1.41.78-2.83,1.59-4.59,2.56s-3.89,2.07-5.88,3.26c-1.99,1.18-3.86,2.45-5.17,3.54-1.32,1.09-2.07,1.99-2.33,2.69-.24.7,0,1.21.66,1.76s1.71,1.16,2.91,1.68c1.19.54,2.49.98,3.89,1.36s2.85.69,4.27.9c1.41.23,2.77.38,4.16.51s2.8.23,3.99.38,2.14.35,2.91.66c.75.31,1.32.7,1.52,1.41.2.7.05,1.71-.15,3-.2,1.29-.46,2.85-.58,4.13-.12,1.29-.12,2.3-.12,3.61v4.5c0,1.56,0,3.08-.03,4.51s-.08,2.8-.08,4.21.05,2.88.2,3.84.4,1.41.89,1.91c.47.51,1.19,1.06,1.91,1.39.73.32,1.48.43,2.34.38s1.82-.26,2.75-1.24l-.06.05Z"/>
</svg>