<?xml version="1.0" encoding="UTF-8"?>
<svg id="Layer_1" data-name="Layer 1" xmlns="http://www.w3.org/2000/svg" viewBox="0 0 2397.21 826">
  <defs>
    <style>
      .cls-1 {
        fill: #46684c;
      }

      .cls-1, .cls-2 {
        fill-rule: evenodd;
        stroke-width: 0px;
      }

      .cls-2 {
        fill: #a93d2c;
      }
    </style>
  </defs>
  <path class="cls-2" d="m1301.75,546.4c14.93-8.02,43.38-23.01,73.76-40.53,30.38-17.52,62.71-37.56,79-47.32,16.29-9.76,16.55-9.24,13.38-4.85-3.17,4.4-9.76,12.67-27.28,25.86-17.52,13.19-45.96,31.29-71.18,44.48-25.21,13.19-47.19,21.46-60.9,26.05-13.71,4.59-19.14,5.5-21.14,5.43-2-.06-.58-1.1,14.35-9.11m282.38-50.18c.39-8.38.34-25.15.31-33.54q-.03-8.38,1.01-8.05c1.03.34,3.1,1.01,8.97,2.52,5.87,1.51,15.54,3.86,23.98,5.03,8.44,1.17,15.65,1.17,19.29,1.2,3.63.03,3.69.08,3.91,1.17.22,1.09.61,3.21.64,11.49.03,8.27-.31,22.7-1.06,31.78-.75,9.08-1.93,12.83-2.52,14.7l-.59,1.87-1.37-.59c-1.37-.59-4.11-1.76-10.34-4.28-6.23-2.52-15.96-6.37-22.98-8.86-7.02-2.49-11.32-3.61-14.42-4.39-3.1-.78-5-1.23-5.53-1.45-.53-.22.31-.22.7-8.61Zm-85.89-21.43c21.08,11.94,62.15,34.98,97.26,52.84,35.11,17.85,64.27,30.52,82.68,38,18.41,7.48,26.06,9.78,32.05,9.35,5.99-.43,10.33-3.57,10.37-7.82.04-4.25-4.21-9.61-6.67-12.62-2.47-3.02-3.15-3.7-13.35-7.52-10.2-3.83-29.92-10.8-39.79-14.28q-9.86-3.49-9.48-10.12c.38-6.63,1.15-19.89,1.45-32.39.3-12.5.13-24.23-.25-29.92-.38-5.7-.98-5.36-2.25-4.93-1.27.43-3.23.93-7.48,1.32-4.25.38-10.8.64-21.51-1.61-10.71-2.25-25.59-7.01-34.98-9.9-9.39-2.89-13.3-3.91-15.51-3.53-2.21.38-2.72,2.17-2.47,3.27.26,1.11,1.28,1.53,2.47,2.08,1.19.55,2.55,1.23,3.36,2.51.81,1.28,1.06,3.15,1.32,5.65.26,2.51.51,5.65.72,13.09.21,7.44.38,19.17.21,24.99-.17,5.82-.68,5.74-2.34,5.19-1.66-.55-4.46-1.57-20.4-7.99-15.94-6.42-45.01-18.24-60.32-24.02-15.3-5.78-16.83-5.53-17.05-4.97-.21.55.89,1.4,21.98,13.35Zm-255.62,7.15c-1.61-7.29-2.59-20.79-3.86-34.58-1.27-13.79-2.84-27.88-1.42-40.2,1.42-12.33,5.82-22.89,8.31-27.78,2.49-4.89,3.08-4.11,4.01-1.52.93,2.59,2.2,6.99,2.74,15.55.54,8.56.34,21.27.05,32.23-.29,10.96-.68,20.15-.54,28.86.15,8.71.83,16.92.39,22.99-.44,6.06-2.01,9.98-3.91,11.4-1.91,1.42-4.16.34-5.77-6.95Zm-139.29-338.66c3.04-3.04,6.79-10.28,13.13-15.65,6.34-5.37,15.27-8.86,22.77-11.38,7.5-2.52,13.58-4.08,16.75-7.7,3.17-3.62,3.43-9.31.07-14.42-3.36-5.11-10.35-9.64-19.66-13.39-9.31-3.75-20.96-6.73-28.53-9.96-7.57-3.23-11.06-6.73-12.16-11.51-1.1-4.79.19-10.87,6.92-18.5,6.73-7.63,18.89-16.82,26.97-23.16,8.09-6.34,12.1-9.83,12.94-12.48.84-2.65-1.49-4.46-6.79-4.98-5.3-.52-13.58.26-23.29,5.56-9.7,5.3-20.83,15.14-27.3,23.87-6.47,8.73-8.28,16.36-8.34,25.81-.06,9.44,1.62,20.7,7.63,27.3,6.02,6.6,16.36,8.54,25.74,9.9,9.38,1.36,17.79,2.13,22.32,3.04,4.53.91,5.17,1.94,4.53,3.3-.65,1.36-2.59,3.04-7.44,5.05-4.85,2.01-12.61,4.33-18.24,8.09-5.63,3.75-9.12,8.93-11.38,14.49-2.26,5.56-3.3,11.51-2.65,15.07.65,3.56,2.98,4.72,6.02,1.68Zm-17.62,65.48c-.49.36-.57,1.01-2.21,14.4-1.64,13.38-4.83,39.51-6.42,52.57q-1.6,13.06,5.32,9.57c6.92-3.5,20.75-10.48,27.96-14.43,7.21-3.94,7.81-4.83,8.33-14.72.52-9.89.97-28.78.89-38.22-.07-9.44-.67-9.44-3.72-9.67-3.05-.22-8.55-.67-13.6-.71-5.05-.04-9.64.34-12.39.56-2.75.22-3.66.3-4.15.66Zm-52.55,148.71c1.63,15.29,1.07,47.12,1.41,62.31.34,15.18,1.57,13.72,3.94,4.72,2.36-9,5.85-25.53,7.82-41.61,1.97-16.08,2.42-31.72,2.87-39.53.45-7.82.9-7.82,12.2-12.93,11.3-5.12,33.46-15.35,57.36-26.65,23.9-11.3,49.54-23.67,66.52-34.08,16.98-10.4,25.3-18.84,31.83-27.5,6.52-8.66,11.25-17.54,10.46-21.14-.79-3.6-7.09-1.91-17.38,3.04-10.29,4.95-24.57,13.16-37.9,19.85-13.33,6.69-25.7,11.86-32.05,14.45-6.35,2.59-6.69,2.59-7.09-2.87-.39-5.45-.84-16.36-.62-26.6.23-10.23,1.12-19.79,1.41-24.52.28-4.72-.06-4.61-3.65-4.78-3.6-.17-10.46-.62-19.63-1.12-9.17-.51-20.64-1.07-26.32-1.57-5.68-.51-5.57-.96-3.43-4.67,2.14-3.71,6.3-10.68,9.17-14.28,2.87-3.6,4.44-3.82,10.91-3.26,6.47.56,17.83,1.91,25.75,3.26,7.93,1.35,12.43,2.7,17.66,3.09,5.23.39,11.19-.17,17.43-2.25,6.24-2.08,12.76-5.68,14.79-7.82,2.02-2.14-.45-2.81-6.24-3.94-5.79-1.12-14.9-2.7-26.65-3.54-11.75-.84-26.15-.96-36.61-1.07-10.46-.11-16.98-.23-20.64,0-3.66.22-4.44.79-5.96,3.15-1.52,2.36-3.77,6.52-8.15,13.27-4.39,6.75-10.91,16.08-14,21.14-3.09,5.06-2.76,5.85-1.69,6.24,1.07.39,2.87.39,5.06.39s4.78,0,5.96.9c1.18.9.96,2.7.84,4.11-.11,1.41-.11,2.42-1.29,16.31-1.18,13.89-3.54,40.66-4.78,54.15-1.24,13.5-1.35,13.72-2.31,14.34-.96.62-2.76,1.63-17.21,8.66-14.45,7.03-41.56,20.08-62.36,31.04-20.81,10.97-35.31,19.85-43.69,25.42-8.38,5.57-10.63,7.82-11.02,10.85-.39,3.04,1.07,6.86,7.2,7.87,6.13,1.01,16.93-.79,32.84-7.2,15.91-6.41,36.95-17.43,49.37-23.56,12.43-6.13,16.25-7.37,17.88,7.93Zm269.29-111.34c12.12,9.45,35.63,24.03,61.88,39.57,26.26,15.54,55.26,32.06,69.77,40.76,14.5,8.7,14.5,9.6,14.43,26.33-.07,16.73-.22,49.31.3,67.91.52,18.59,1.71,23.21,2.23,24.99.52,1.78.37.74.67-6.84.3-7.59,1.04-21.72,2.9-37.56,1.86-15.84,4.84-33.4,7.21-42.4,2.38-9,4.17-9.45,10.79-7.59,6.62,1.86,18.07,6.02,27.37,9.74,9.3,3.72,16.44,6.99,25.59,8.63,9.15,1.64,20.31,1.64,27.15-.52,6.84-2.16,9.37-6.47,7.14-9.6-2.23-3.12-9.22-5.06-14.35-6.55-5.13-1.49-8.4-2.53-23.65-9.45-15.25-6.92-42.47-19.71-79.29-38.97-36.82-19.26-83.23-45-109.34-60.32-26.11-15.32-31.91-20.23-35.93-21.2-4.02-.97-6.25,2.01-6.99,5.65-.74,3.64,0,7.96,12.12,17.4Zm306.26,152.09c6.24-3.6,17.16-9.56,25.03-13.67,7.88-4.11,12.71-6.36,14.96-8.38,2.25-2.02,1.91-3.83.62-5.34-1.29-1.52-3.54-2.76-8.21-3.99-4.67-1.24-11.76-2.47-19.07-5.68-7.31-3.21-14.85-8.38-18.96-16.09-4.11-7.71-4.78-17.94-.34-29.47,4.44-11.53,14.01-24.36,21.43-33.36,7.42-9,12.71-14.17,15.07-14.01,2.36.17,1.8,5.68-1.41,12.82-3.21,7.14-9.06,15.92-13.56,23.74-4.5,7.82-7.65,14.68-9.11,20.14-1.46,5.46-1.24,9.51,3.71,14.57,4.95,5.06,14.62,11.14,23.17,15.3,8.55,4.16,15.97,6.41,20.14,9.39,4.16,2.98,5.06,6.69,3.82,10.41-1.24,3.71-4.61,7.42-11.19,10.63-6.58,3.21-16.37,5.91-24.47,8.55-8.1,2.64-14.51,5.23-19.41,6.98-4.89,1.74-8.27,2.64-9.17,2.47-.9-.17.68-1.41,6.92-5.01Zm-520.53,320.07c-7.58-.16-14.91-.31-22.01-.42l.41-3.42c.68-5.69,2.04-17.08,2.97-31.26.93-14.19,1.44-31.18,1.78-42.01.34-10.83.51-15.51.17-17.71-.34-2.21-1.19-1.95-9-2.08-7.82-.13-22.6-.64-43.71-.68-21.11-.04-48.55.38-71.19.51-22.64.13-40.48-.04-53.1-.59-12.62-.55-20.01-1.49-25.74-3.19-5.73-1.7-9.81-4.16-13.34-4.33-3.53-.17-6.5,1.95-7.73,5.99-1.23,4.04-.72,9.98-.58,12.94.15,2.96-.07,2.92-2.22,2.85-2.15-.07-6.23-.18-12.51-1.08-6.28-.89-14.78-2.57-19.02-3.66-4.25-1.09-4.25-1.59-3.85-7.01.39-5.42,1.17-15.75,1.9-20.98.73-5.22,1.4-5.34,10.14-5.42,8.74-.08,25.56-.14,47.23.39,21.68.53,48.21,1.65,83.23,3.74,35.02,2.09,78.52,5.16,103.93,6.8,25.41,1.64,32.72,1.87,36.39,2.08,3.67.22,3.68.43,3.75,3.17.07,2.74.2,8.01-.28,19.22-.48,11.21-1.57,28.37-3.08,44.49-1.51,16.13-3.44,31.22-4.27,39-.11,1.01-.2,1.9-.27,2.68ZM23.4,806.52c-7.45,1.32-13.15,2.7-16.88,4.86-3.73,2.16-5.5,5.11-6.19,7.66-.69,2.55-.29,4.72.98,5.99,1.28,1.28,3.44,1.67,27.71-1.28,24.27-2.95,70.64-9.24,132.34-17.09,61.7-7.86,138.72-17.29,212.21-25.25,73.49-7.96,143.44-14.44,207-20.24,63.56-5.8,120.74-10.91,183.52-15.33,62.78-4.42,131.16-8.15,189.32-9.53,58.16-1.38,106.1-.39,161.12,1.08,55.02,1.47,117.11,3.44,176.25,5.89,59.14,2.46,115.34,5.4,201.84,10.01,86.5,4.6,203.32,10.86,315.95,17.49,112.64,6.63,221.1,13.63,313.86,19.96,92.76,6.33,169.81,11.98,212.97,15.03,43.16,3.05,52.42,3.5,57.28,1.36,4.86-2.15,5.31-6.89,3.62-10.73-1.69-3.84-5.54-6.78-48.81-10.28-43.27-3.5-125.98-7.57-216.59-12.43-90.61-4.86-189.13-10.51-294.89-17.06-57.05-3.54-116.2-7.33-177.71-11.15-.14-1.42-.4-3.36-.74-6-1.29-9.89-3.88-29.68-5.04-53.41-1.16-23.73-.9-51.4-.78-65.24l.13-13.84,5.63-.06c5.63-.06,16.88-.19,32.46-.32,15.58-.13,35.5-.26,46.75-2.39,11.25-2.13,13.84-6.27,11.64-9.89-2.2-3.62-9.18-6.72-24.25-8.73-15.07-2-38.21-2.91-90.59-3.94-52.37-1.03-133.98-2.2-191.72-4.27-57.74-2.07-91.62-5.04-109.66-6.79-18.04-1.75-20.24-2.26-19.59-.45.65,1.81,4.14,5.95,8.28,9.18,4.14,3.23,8.92,5.56,19.59,6.85,10.67,1.29,27.22,1.55,54.57,2.97,27.35,1.42,65.5,4.01,89.55,5.76,24.05,1.75,34.01,2.65,39.31,3.17,5.3.52,5.95.65,6.98,5.43,1.03,4.78,2.46,14.23,2.97,21.66.52,7.44.13,12.87-1.62,16.68-1.75,3.82-4.85,6.01-14.61,7.37-9.76,1.36-26.19,1.88-38.21,2.33-12.03.45-19.66.84-23.47,2.07-3.81,1.23-3.81,3.3-3.04,4.53.78,1.23,2.33,1.62,15.58,1.75,13.26.13,38.21,0,52.18-.07,13.97-.06,16.94-.06,18.56-.19,1.62-.13,1.88-.39,1.81-10.6-.06-10.22-.45-30.39-.65-40.48l-.19-10.09,7.18.45c7.18.45,21.53,1.36,38.21,2.59,16.68,1.23,35.69,2.78,45.2,3.56q9.5.78,9.5,4.46c0,3.69,0,11.06-.32,21.53-.32,10.47-.97,24.05-.13,40.54.84,16.49,3.17,35.89,4.4,49.21,1.2,12.99,1.35,20.2,1.42,23.9-48.54-2.99-98.54-5.99-150.11-8.86-75.65-4.21-154.7-8.16-226.56-11.28,6.92-.69,14.12-1.39,20.98-1.96,18.19-1.53,33.92-2.21,46.58-2.04,12.67.17,22.27,1.19,29.96,2.04,7.69.85,13.47,1.53,17.81,1.7,4.33.17,7.23-.17,9.39-.94,2.17-.77,3.61-1.96,4.42-2.93.81-.98.98-1.74.55-3.19-.42-1.44-1.44-3.57-2.34-5.95-.89-2.38-1.66-5.02-1.91-13.52-.26-8.5,0-22.87.13-30.05l.13-7.18,4.38,1.7c4.38,1.7,13.13,5.1,19.72,7.06,6.59,1.95,11.01,2.47,13.9,2.25,2.89-.21,4.25-1.15,4.84-2.34.6-1.19.43-2.64-6.76-6.29-7.18-3.66-21.38-9.52-28.6-12.67-7.23-3.15-7.48-3.57-7.78-5.14-.3-1.57-.64-4.29-.81-5.65q-.17-1.36-.19-1.31s-.05.14.97.19c1.02.05,3.09.05,4.57-.15,1.49-.19,2.39-.58,3.3-1.23.91-.65,1.81-1.55,2.59-2.65.78-1.1,1.42-2.39,1.36-3.75-.06-1.36-.84-2.78-2.71-4.65-1.87-1.87-4.85-4.2-8.6-6.79-3.75-2.59-8.27-5.43-23.98-12.35-15.71-6.92-42.6-17.9-89.2-37.68-46.6-19.78-112.92-48.35-169.42-71.49-56.49-23.14-103.16-40.85-127.66-49.75-24.5-8.9-26.83-8.99-28.25-7.98-1.42,1.02-1.93,3.14,4.06,7.48,5.99,4.33,18.49,10.88,37.42,20.3,18.93,9.42,44.3,21.72,72.03,34.29,27.73,12.57,57.82,25.4,96.41,41.26,38.59,15.85,85.68,34.72,121,49.26,35.32,14.54,58.87,24.74,70.85,30.09,11.99,5.36,12.41,5.87,12.75,7.69.34,1.83.6,4.97.64,6.5.04,1.53-.13,1.44-2.47.68-2.34-.77-6.84-2.21-12.41-3.02-5.57-.81-12.2-.98-16.07-1.06-3.87-.09-4.97-.09-4.42,1.06.55,1.15,2.76,3.44,9.22,6.97,6.46,3.53,17.17,8.29,22.7,10.8,5.53,2.51,5.87,2.76,6.33,10.03.47,7.27,1.06,21.55,1.36,29.41.3,7.86.3,9.31-.04,10.2-.34.89-1.02,1.23-14.88,2.17-13.86.93-40.89,2.46-63.12,3.32-22.23.85-39.65,1.02-48.62,1.02s-9.48-.17-9.69-.21c-.21-.04-.13.04,2-5.69,2.13-5.74,6.29-17.3,8.59-24.91,2.29-7.61,2.72-11.26,2.89-13.22.17-1.96.09-2.21-4.25-2.21s-12.92.25-29.92,1.32c-17,1.06-42.42,2.93-58.1,4.21-15.68,1.28-21.63,1.95-25.88,3.49-4.25,1.53-6.8,3.91-1.83,4.84,4.97.94,17.47.43,36.59-.3,19.13-.72,44.88-1.66,57.76-2.13l12.88-.47-.47,1.19c-.47,1.19-1.4,3.57-3.06,6.46-1.66,2.89-4.04,6.29-6.89,11.31-2.85,5.02-6.16,11.65-7.31,16.58-1.15,4.93-.13,8.16.68,10.92.34,1.15.64,2.22.96,3.19-27.1-1.09-52.71-2.02-76.17-2.77-15.46-.5-29.99-.91-43.72-1.25.06-2,.18-5.15.58-11.21.58-8.74,1.73-23.52,2.92-39.1,1.19-15.58,2.41-31.96,3.34-41.34.93-9.38,1.57-11.76,2.15-12.95.58-1.19,1.09-1.19,9.51-1.16,8.42.03,24.74.1,44.62.77,19.89.67,43.34,1.96,64.8,3.06,21.47,1.1,40.95,2.01,53.34,2.51,12.39.5,17.69.6,20.43-1.42,2.75-2.02,2.94-6.15,1.04-9.21-1.89-3.06-5.88-5.05-14.19-6.56-8.31-1.51-20.94-2.53-44.99-3.77-24.05-1.24-59.52-2.7-84.04-3.6-24.52-.91-38.1-1.26-44.9-1.44q-6.79-.18-6.82-1.15c-.02-.97-.07-2.92-1.58-3.98-1.51-1.07-4.47-1.26-6.68-.34-2.21.92-3.67,2.96-4.4,3.98q-.73,1.02-4.4.95c-3.67-.07-11-.22-28.35-1.02-17.35-.8-44.7-2.26-67.71-3.55-23.01-1.29-41.66-2.41-61.79-3.63-20.13-1.23-41.73-2.56-62.91-3.6-21.18-1.04-41.95-1.78-52.25-2.17-10.31-.4-10.15-.45-10.32-1.77-.18-1.32-.68-3.89-2.37-5.18-1.69-1.29-4.56-1.29-6.49-.23-1.92,1.06-2.89,3.17-3.38,4.23l-.49,1.06-13.99-.38c-13.99-.38-41.96-1.14-70.23-1.96-28.27-.82-56.83-1.71-71.3-2.15-14.47-.44-14.85-.44-14.13-.97.72-.53,2.54-1.58,15.93-7.25,13.39-5.66,38.37-15.93,61.84-25.76,23.47-9.83,45.44-19.23,75.03-32.02,29.59-12.79,66.79-28.98,91.58-39.82,24.78-10.85,37.15-16.35,45.07-20.91,7.92-4.55,11.41-8.15,11.86-11.3.45-3.15-2.14-5.85-6.07-7.14-3.93-1.29-9.22-1.18-17.93,1.41-8.71,2.58-20.85,7.64-50.41,20.51-29.56,12.87-76.54,33.55-122.96,53.98-46.42,20.43-92.27,40.61-135.33,59.54-43.06,18.93-83.33,36.63-105.62,47.72-22.29,11.09-26.59,15.59-28.59,17.94-2,2.35-1.71,2.54.88,2.59,2.59.05,7.48-.05,14.27-1.51,6.79-1.47,15.49-4.3,32.21-10.56,16.71-6.26,41.44-15.93,58.45-22.38,17.01-6.45,26.29-9.68,31.72-11.34,5.42-1.66,6.99-1.76,31.08-.64,24.09,1.12,70.72,3.47,101.36,5.28,30.64,1.81,45.3,3.08,52.63,3.91,7.33.83,7.33,1.22,6.99,6.11-.34,4.89-1.03,14.27-1.47,19.35-.44,5.08-.64,5.86-1.08,6.3-.44.44-1.12.54-15.69-2.05-14.56-2.59-43.01-7.87-65.68-11.73-22.68-3.86-39.59-6.3-54.93-7.77-15.35-1.47-29.13-1.96-36.31-2-7.18-.05-7.77.34-8.21,1.08-.44.73-.73,1.81-.39,2.88.34,1.08,1.32,2.15,3.62,3.13,2.3.98,5.91,1.86,17.64,3.67,11.73,1.81,31.57,4.54,55.42,8.65,23.85,4.11,51.7,9.58,67.78,12.46,16.08,2.88,20.38,3.18,23.51,3.32,3.13.15,5.08.15,6.83.23,1.75.08,3.29.24,4.6,6.28,1.31,6.04,2.38,17.96,2.73,29.73.34,11.77-.05,23.4-.88,30.68-.83,7.28-2.1,10.21-2.34,12.16-.24,1.95.54,2.93,3.22,3.71,2.69.78,7.28,1.37,10.8,1.42,3.52.05,5.96-.44,6.99-2.64,1.03-2.2.63-6.11-.2-14.02-.83-7.91-2.1-19.83-2-31.26.1-11.43,1.56-22.37,2.3-27.84l.73-5.47,6.06.29c6.06.29,18.17.88,24.23,1.17l6.06.29-.54,4.98c-.54,4.98-1.61,14.95-3.03,23.4-1.42,8.45-3.18,15.39-3.86,20.47-.68,5.08-.29,8.3,1.27,10.01,1.56,1.71,4.3,1.9,6.99.68,2.69-1.22,5.32-3.86,6.99-8.79,1.66-4.93,2.34-12.16,3.37-20.76,1.03-8.6,2.39-18.56,3.42-25.55,1.03-6.99,1.71-10.99,2.06-12.99.35-2,.36-2.01.37-2.01t10.97.21c10.96.21,32.88.64,64.87,1.32,31.99.68,74.04,1.61,95.07,2.08l21.03.47-1.06,14.06c-1.06,14.06-3.19,42.18-4.25,56.24l-.91,12.05c-43.53-.54-78.74-.22-112.55.6-56.04,1.36-108.24,4.07-171.6,8.54-63.36,4.48-137.89,10.72-216.03,17.97-78.14,7.25-159.88,15.5-243.78,25.32-83.9,9.82-169.97,21.22-217.6,27.55-47.63,6.33-56.83,7.6-64.27,8.92Zm551.97-144.57c14.16-2.02,41.57-3.37,74.32-1.29,32.75,2.08,70.84,7.58,93.03,11.12,22.19,3.54,28.48,5.11,31.63,6.85,3.15,1.74,3.15,3.65,2.81,5.34-.34,1.68-1.01,3.15-4.94,3.99-3.93.84-11.12,1.07-24.83-.06-13.71-1.12-33.93-3.6-55.39-6.18-21.46-2.58-44.15-5.28-64.71-6.85-20.56-1.57-38.99-2.02-49.94-2.75-10.95-.73-14.44-1.74-15.73-3.59-1.29-1.85-.39-4.55,13.76-6.57Zm-31.85-42.08c-2.87,2.64-5.45,8.71-6.97,17.02-1.52,8.31-1.97,18.87-2.58,28.37-.62,9.49-1.4,17.92-3.09,24.44-1.69,6.52-4.27,11.12-5.06,15.5-.79,4.38.22,8.54,1.52,11.4,1.29,2.87,2.87,4.44,4.27,4.27,1.4-.17,2.64-2.08,5.51-6.97,2.87-4.89,7.36-12.75,9.89-22.92,2.53-10.17,3.09-22.64,3.71-35.05.62-12.42,1.29-24.77.06-31.35-1.24-6.57-4.38-7.36-7.25-4.72Zm593.57-188c.9-9.51,4.16-26.49,6.92-40.21,2.76-13.72,5.01-24.18,6.58-31.55,1.57-7.37,2.48-11.64,2.7-13.78.22-2.14-.22-2.14-2.08-2.53-1.86-.39-5.12-1.18-6.19-1.91-1.07-.73.06-1.41,1.91-2.7,1.86-1.29,4.44-3.21,8.72-4.05,4.27-.84,10.24-.62,25.14.56,14.9,1.18,38.75,3.32,65.64,5.23,26.88,1.91,56.81,3.6,73.96,4.84,17.15,1.24,21.54,2.02,26.77,2.92,5.23.9,11.3,1.91,19.63,2.08,8.32.17,18.9-.51,24.07-.34,5.17.17,4.95,1.18,2.7,2.08-2.25.9-6.52,1.69-9.62,2.36-3.09.68-5.01,1.24-5.96,2.25-.96,1.01-.96,2.47-.56,7.37.39,4.89,1.18,13.22.23,21.94-.96,8.72-3.66,17.83-7.09,27.11-3.43,9.28-7.59,18.73-9.62,27.28-2.02,8.55-1.91,16.2-2.81,21.43-.9,5.23-2.81,8.04-3.88,7.93-1.07-.11-1.29-3.15-1.63-7.48-.34-4.33-.79-9.96.28-19.91,1.07-9.96,3.66-24.24,6.47-38.69,2.81-14.46,5.85-29.08,7.03-36.33,1.18-7.26.51-7.14-1.46-6.92-1.97.23-5.23.56-10.8,0-5.57-.56-13.44-2.02-20.42-3.21-6.97-1.18-13.05-2.08-25.42-2.76-12.37-.67-31.05-1.12-53.21-2.76-22.16-1.63-47.81-4.44-63.33-6.19-15.52-1.74-20.92-2.42-23.57-2.31-2.64.11-2.53,1.01-1.8,2.53.73,1.52,2.08,3.66,2.64,8.49.56,4.84.34,12.37-1.29,22.55-1.63,10.18-4.67,23-7.54,34.08-2.87,11.08-5.57,20.42-9.06,25.82-3.49,5.4-7.76,6.86-10.63,6.58-2.87-.28-4.33-2.31-3.43-11.81Z"/>
  <path class="cls-1" d="m1747.38,561.66c2.31-4.28,7.93-12.26,16.88-20.31,8.94-8.04,21.21-16.14,30.04-22.84,8.83-6.69,14.23-11.98,17.33-15.08,3.09-3.09,3.88-3.99,6.3-3.71,2.42.28,6.47,1.74,12.09,3.32,5.63,1.57,12.83,3.26,20.36,5.01,7.54,1.74,15.41,3.54,21.43,4.67,6.02,1.13,10.18,1.58,14.57,2.08,4.39.51,9,1.07,12.09,1.58,3.09.51,4.67.96,4.5,2.42-.17,1.46-2.08,3.94-6.08,7.82-3.99,3.88-10.07,9.17-15.24,13.95-5.18,4.78-9.45,9.06-12.71,12.49-3.26,3.43-5.51,6.02-6.41,8.1-.9,2.08-.45,3.66.67,5.12,1.13,1.46,2.93,2.81,7.71,4.05,4.78,1.24,12.55,2.36,19.86,3.04,7.31.68,14.18.9,20.7,1.18,6.53.28,12.71.62,18.68,1.35,5.96.73,11.7,1.86,16.59,2.98,4.89,1.12,8.94,2.25,11.42,3.32,2.48,1.07,3.38,2.08,3.15,3.43-.22,1.35-1.57,3.04-4.22,5.18-2.64,2.14-6.58,4.73-10.69,7.14-4.11,2.42-8.38,4.67-12.66,7.09-4.28,2.42-8.55,5.01-12.54,7.48-3.99,2.48-7.71,4.84-11.76,7.54-4.05,2.7-8.44,5.74-11.81,8.21-3.38,2.47-5.74,4.39-7.37,6.64-1.63,2.25-2.53,4.84-2.93,6.92-.39,2.08-.28,3.66.79,5.12,1.07,1.46,3.09,2.81,5.85,3.54,2.76.73,6.24.84,9.73.79,3.49-.06,6.98-.28,11.08-.11,4.11.17,8.83.73,11.59,1.69,2.76.96,3.54,2.31,2.93,3.99-.62,1.69-2.64,3.71-5.12,5.18-2.48,1.46-5.4,2.36-10.86,5.96-5.46,3.6-13.44,9.9-22.5,15.69-9.06,5.79-19.18,11.08-28.01,14.4-8.83,3.32-16.37,4.67-20.19,5.18-3.83.51-3.94.17-3.94-1.41s.11-4.39.84-13.67c.73-9.28,2.08-25.03,2.76-36.96.68-11.93.68-20.03.22-27.06-.45-7.03-1.35-12.99-4.44-16.76-3.09-3.77-8.38-5.34-13.78-3.54-5.4,1.8-10.91,6.97-13.95,15.02-3.04,8.04-3.6,18.96-4.05,24.3-.45,5.34-.79,5.12-3.43,3.94-2.64-1.18-7.59-3.32-13.95-5.01-6.36-1.69-14.12-2.93-19.24-3.71-5.12-.79-7.59-1.13-9.28-2.53-1.69-1.41-2.59-3.88-1.18-6.52,1.41-2.64,5.12-5.46,12.49-9.28,7.37-3.83,18.39-8.66,27.56-13.84,9.17-5.18,16.48-10.69,20.59-14.63,4.11-3.94,5.01-6.3,5.34-9.06.34-2.76.11-5.91-.9-8.38-1.01-2.47-2.81-4.28-7.59-5.79-4.78-1.52-12.54-2.76-20.53-2.98-7.99-.23-16.2.56-22.95.96-6.75.39-12.04.39-16.14.45-4.11.06-7.03.17-9-.06-1.97-.22-2.98-.79-.67-5.06m-1465.3,202.67c.26-12.66,2.82-40.72,6.33-63.39,3.51-22.67,7.96-39.95,11.04-49.19,3.08-9.24,4.79-10.44,6.33-10.18,1.54.26,2.91,1.97,3.16,8.9.26,6.93-.6,19.08-1.03,24.89-.43,5.82-.43,5.3,6.5,1.2,6.93-4.11,20.79-11.81,33.53-20.45,12.75-8.64,24.38-18.22,31.31-25.32,6.93-7.1,9.15-11.72,9.07-14.37-.09-2.65-2.48-3.34-6.16-3.51-3.68-.17-8.64.17-12.49-.17-3.85-.34-6.59-1.37-7.19-3.59-.6-2.22.94-5.65,2.91-8.64,1.97-2.99,4.36-5.56,6.16-9.41,1.8-3.85,2.99-8.98,3.34-14.71.34-5.73-.17-12.06-4.53-19.25-4.36-7.19-12.58-15.23-23.1-20.7-10.52-5.47-23.35-8.38-34.05-9.75-10.69-1.37-19.25-1.2-22.5-2.48-3.25-1.28-1.2-4.02,1.97-7.7,3.17-3.68,7.44-8.3,12.58-15.83,5.13-7.53,11.12-17.97,14.8-25.75,3.68-7.79,5.05-12.92,3.94-14.63-1.11-1.71-4.71,0-11.98,1.71-7.27,1.71-18.22,3.42-32.68,7.19-14.46,3.76-32.42,9.58-41.66,12.58-9.24,2.99-9.75,3.17-8.21,3.76,1.54.6,5.13,1.63,7.36,3.08,2.22,1.45,3.08,3.34,1.8,5.73-1.28,2.4-4.71,5.3-9.67,9.67-4.96,4.36-11.46,10.18-18.82,15.83-7.36,5.65-15.57,11.12-22.41,15.4-6.84,4.28-12.32,7.36-16.43,10.09-4.11,2.74-6.84,5.13-7.53,6.5-.68,1.37.68,1.71,5.13,3.94,4.45,2.22,11.98,6.33,17.62,9.5,5.65,3.17,9.41,5.39,11.98,7.19,2.57,1.8,3.93,3.16,3.85,4.53-.09,1.37-1.63,2.74-4.11,4.36-2.48,1.63-5.9,3.51-9.33,5.65-3.42,2.14-6.84,4.53-10.01,6.76-3.17,2.22-6.07,4.28-7.01,5.99-.94,1.71.09,3.08,3.42,4.53,3.34,1.45,8.98,2.99,14.63,3.85,5.65.85,11.29,1.03,20.1,1.45,8.81.43,20.79,1.11,31.4,1.54,10.61.43,19.85.6,26.52,1.2,6.67.6,10.78,1.63,14.2,2.82,3.42,1.2,6.16,2.57,7.1,4.79.94,2.22.09,5.3-4.11,7.7-4.19,2.4-11.72,4.11-18.56,5.13-6.84,1.03-13,1.37-19.16,2.4-6.16,1.03-12.32,2.74-16.34,4.28-4.02,1.54-5.9,2.91-7.27,4.19-1.37,1.28-2.22,2.48-2.14,3.94.08,1.45,1.11,3.16,8.98,6.07,7.87,2.91,22.58,7.01,32.76,10.09,10.18,3.08,15.83,5.13,19.16,6.59,3.34,1.45,4.36,2.31,4.62,3.08.26.77-.26,1.45-1.88,1.71-1.63.26-4.36.08-9.67-1.03-5.3-1.11-13.17-3.17-20.87-4.96-7.7-1.8-15.23-3.34-23.35-4.45-8.13-1.11-16.85-1.8-24.12-2.91-7.27-1.11-13.09-2.65-17.37-4.62-4.28-1.97-7.01-4.36-8.38-7.61-1.37-3.25-1.37-7.36.77-10.09,2.14-2.74,6.42-4.11,14.12-4.53,7.7-.43,18.82.09,28.57-1.2,9.75-1.28,18.14-4.36,21.56-5.82,3.42-1.45,1.88-1.28-1.37-1.11-3.25.17-8.21.34-20.02-.94-11.81-1.28-30.46-4.02-43.97-6.5-13.52-2.48-21.9-4.7-29.26-7.01-7.36-2.31-13.69-4.71-16.85-6.33-3.17-1.63-3.17-2.48-.6-3.94,2.57-1.45,7.7-3.51,14.29-6.07,6.59-2.57,14.63-5.65,19.59-7.78,4.96-2.14,6.84-3.34,7.44-4.11.6-.77-.09-1.11-2.4-2.39-2.31-1.28-6.24-3.51-10.44-6.5-4.19-2.99-8.64-6.76-12.92-11.21-4.28-4.45-8.38-9.58-10.09-13.77-1.71-4.19-1.03-7.44,3.42-11.29,4.45-3.85,12.66-8.3,20.02-12.06,7.36-3.76,13.86-6.84,20.96-10.01,7.1-3.17,14.8-6.42,20.02-8.9,5.22-2.48,7.96-4.19,7.78-5.05-.17-.86-3.25-.86-6.42-1.45-3.17-.6-6.42-1.8-8.55-3.42-2.14-1.63-3.17-3.68-2.4-5.9.77-2.22,3.34-4.62,6.07-7.1,2.74-2.48,5.65-5.05,9.24-7.78,3.59-2.74,7.87-5.65,16.6-8.47,8.73-2.82,21.9-5.56,38.5-9.67,16.6-4.11,36.61-9.58,49.96-13,13.35-3.42,20.02-4.79,23.95-4.28,3.94.51,5.13,2.91,5.56,6.84.43,3.94.09,9.41-2.57,15.74-2.65,6.33-7.61,13.52-12.06,19.68-4.45,6.16-8.38,11.29-10.95,16.25-2.57,4.96-3.76,9.75-3.85,12.15-.09,2.39.94,2.39,2.82,2.39s4.62,0,10.09.77c5.47.77,13.69,2.31,20.96,5.73,7.27,3.42,13.6,8.73,19.93,14.29,6.33,5.56,12.66,11.38,17.2,17.45,4.53,6.07,7.27,12.4,7.96,19.85.68,7.44-.68,16-1.28,20.62-.6,4.62-.43,5.3.51,5.99.94.68,2.65,1.37,4.62,2.65,1.97,1.28,4.19,3.16,5.56,6.5,1.37,3.34,1.88,8.13-1.71,16.17-3.59,8.04-11.29,19.33-23.87,30.2-12.58,10.86-30.03,21.3-42.86,27.55-12.83,6.24-21.04,8.3-25.58,10.01-4.53,1.71-5.39,3.08-7.1,7.96-1.71,4.88-4.28,13.26-7.19,25.66-2.91,12.4-6.16,28.83-8.81,38.41-2.65,9.58-4.7,12.32-4.45-.34Zm459.74-440.41c-14.95,2.16-42.63,5.58-65.84,8.55-23.21,2.98-41.96,5.5-55.72,5.88-13.76.37-22.54-1.41-29.31-3.94-6.77-2.53-11.53-5.8-12.35-7.89-.82-2.08,2.31-2.98,14.88-7.81,12.57-4.84,34.59-13.61,52.3-21.5,17.71-7.89,31.1-14.88,38.53-18.82,7.44-3.94,8.93-4.84,6.92-5.5-2.01-.67-7.51-1.12-14.95-2.68-7.44-1.56-16.81-4.24-23.73-6.92-6.92-2.68-11.38-5.36-9.6-7.29,1.79-1.93,9.82-3.12,17.63-4.69,7.81-1.56,15.4-3.5,33.7-15.7,18.3-12.2,47.31-34.67,67.17-49.77,19.86-15.1,30.57-22.84,36.53-26.26,5.95-3.42,7.14-2.53,8.63-.07,1.49,2.45,3.27,6.47,9.75,13.02,6.47,6.55,17.63,15.62,31.69,24.47,14.06,8.85,31.02,17.48,41.81,25.07,10.79,7.59,15.4,14.13,16.44,21.2,1.04,7.07-1.49,14.65-5.43,20.38-3.94,5.73-9.3,9.6-11.98,11.53q-2.68,1.93-1.93,2.53c.74.59,2.23,1.79,5.5,6.92,3.27,5.13,8.33,14.21,9.6,22.02,1.26,7.81-1.26,14.36-6.47,22.02-5.21,7.66-13.09,16.44-21.95,22.24-8.85,5.8-18.67,8.63-27.45,10.19-8.78,1.56-16.51,1.86-19.42,1.79-2.9-.07-.97-.52,5.43-3.42,6.4-2.9,17.26-8.26,27.67-16.14,10.41-7.89,20.38-18.3,23.88-27.67,3.5-9.37.52-17.71-6.77-22.84-7.29-5.13-18.9-7.07-25.37-9.67-6.47-2.6-7.81-5.88-7.51-8.48.3-2.6,2.23-4.54,6.99-5.51,4.76-.97,12.35-.97,19.04-2.08,6.69-1.12,12.5-3.35,16.59-6.17,4.09-2.83,6.47-6.25,6.47-10.41s-2.38-9.08-6.77-13.32c-4.39-4.24-10.79-7.81-21.35-13.17-10.56-5.36-25.29-12.5-37.05-20.61-11.75-8.11-20.53-17.18-25.07-21.65-4.54-4.46-4.84-4.32-4.98-4.24q-.15.07-7.96,6.47c-7.81,6.4-23.43,19.19-37.94,30.2-14.51,11.01-27.9,20.23-38.61,26.85-10.71,6.62-18.75,10.64-22.61,12.72-3.87,2.08-3.57,2.23-2.01,2.68,1.56.45,4.39,1.19,10.27,2.45,5.88,1.26,14.8,3.05,20.75,4.09,5.95,1.04,8.93,1.34,10.71,2.01,1.79.67,2.38,1.71,1.26,3.27-1.12,1.56-3.94,3.64-8.48,5.5-4.54,1.86-10.79,3.5-21.28,8.93-10.49,5.43-25.22,14.66-34.74,20.76-9.52,6.1-13.84,9.08-15.62,10.79-1.79,1.71-1.04,2.16,3.79,2.9,4.84.74,13.76,1.79,22.76,2.31,9,.52,18.08.52,26.85.52h26.56c9.3,0,19.42,0,23.36.45,3.94.45,1.71,1.34-13.24,3.5Zm39.88,101.1c-.97-16.29-.67-48.58,2.31-74.54,2.98-25.96,8.63-45.6,12.42-55.72,3.79-10.12,5.73-10.71,8.63-10.86,2.9-.15,6.77.15,9,.45,2.23.3,2.83.59,2.9,4.24.07,3.65-.37,10.64-1.41,18.67-1.04,8.03-2.68,17.11-4.91,29.53-2.23,12.42-5.06,28.19-7.66,41.29-2.6,13.09-4.98,23.51-7.07,31.69-2.08,8.18-3.87,14.13-5.28,19.12-1.41,4.98-2.46,9-4.09,10.86-1.64,1.86-3.87,1.56-4.84-14.73Zm1043.41,326.42c2.75-2.9,5.43-8.11,7.66-13.76,2.23-5.65,4.02-11.75,5.65-15.03,1.64-3.27,3.12-3.72,8.7-5.88,5.58-2.16,15.25-6.03,29.24-11.16,13.99-5.13,32.29-11.53,45.01-18.67,12.72-7.14,19.86-15.03,22.54-22.47,2.68-7.44.89-14.43-3.12-19.05-4.02-4.61-10.27-6.84-13.17-8.18-2.9-1.34-2.46-1.79.22-3.79,2.68-2.01,7.59-5.58,17.33-12.87,9.75-7.29,24.33-18.3,29.46-26.26,5.13-7.96.82-12.87-4.39-17.04-5.21-4.17-11.31-7.59-22.91-10.41-11.61-2.83-28.72-5.06-38.69-6.77-9.97-1.71-12.8-2.9-14.13-3.72-1.34-.82-1.19-1.27.89-3.5,2.08-2.23,6.1-6.25,13.32-14.51,7.22-8.26,17.63-20.76,23.66-28.57,6.03-7.81,7.66-10.94,5.8-11.31-1.86-.37-7.22,2.01-17.19,3.05-9.97,1.04-24.55.74-34.59.22-10.04-.52-15.55-1.26-23.28-2.98-7.74-1.71-17.71-4.39-25.59-6.77-7.89-2.38-13.69-4.46-18.3-5.8-4.61-1.34-8.03-1.93-11.31-.3-3.27,1.64-6.4,5.5-10.94,10.34-4.54,4.84-10.49,10.64-17.11,16.51-6.62,5.88-13.91,11.83-20.53,17.11-6.62,5.28-12.57,9.89-16.66,13.69-4.09,3.79-6.32,6.77-7.81,9.82-1.49,3.05-2.23,6.17-2.53,9.3-.3,3.12-.15,6.25,1.56,8.85,1.71,2.6,4.98,4.69,9,5.88,4.02,1.19,8.78,1.49,15.03,1.56,6.25.07,13.99-.08,20.31-.3,6.32-.22,11.23-.52,15.7-.52s8.48.3,10.94.97c2.46.67,3.35,1.71,3.87,2.83.52,1.12.67,2.31-1.19,4.39-1.86,2.08-5.73,5.06-9.75,7.66-4.02,2.6-8.18,4.84-12.35,7.14-4.17,2.31-8.33,4.69-13.54,7.51-5.21,2.83-11.46,6.1-17.33,9.6-5.88,3.5-11.38,7.22-15.25,10.42-3.87,3.2-6.1,5.88-6.84,7.96-.74,2.08,0,3.57,1.93,5.21,1.93,1.64,5.06,3.42,8.56,4.98,3.5,1.56,7.36,2.9,11.46,4.02,4.09,1.12,8.41,2.01,12.57,2.68,4.17.67,8.18,1.12,12.27,1.49,4.09.37,8.26.67,11.75,1.12,3.5.45,6.32,1.04,8.56,1.93,2.23.89,3.87,2.08,4.46,4.17.6,2.08.15,5.06-.45,8.85-.59,3.79-1.34,8.41-1.71,12.2-.37,3.79-.37,6.77-.37,10.64v13.24c0,4.61,0,9.08-.07,13.32-.07,4.24-.22,8.26-.22,12.42s.15,8.48.6,11.31c.45,2.83,1.19,4.17,2.6,5.65,1.41,1.49,3.5,3.12,5.65,4.09,2.16.97,4.39,1.26,6.92,1.12,2.53-.15,5.36-.74,8.11-3.65Z"/>
</svg>