<?xml version="1.0" encoding="UTF-8"?>
<svg id="Layer_1" data-name="Layer 1" xmlns="http://www.w3.org/2000/svg" viewBox="0 0 237.43 889.38">
  <defs>
    <style>
      .cls-1 {
        fill: #fff;
        stroke-width: 0px;
      }
    </style>
  </defs>
  <path class="cls-1" d="m237.43,0H33.72c.78,2.5,1.86,5.14,2.05,6.39-3.4,5.15-.8,9.42-3.8,11.44-7.3-1.08-.99,12.09-.43,11.4-2.09,2.23-4.27,9.12-5.11,11.46,7.21,2.61-.83,11.01,1.46,11.37-6.71-.5,14.79,14.28,9.38,13.12-9.09,0-15.17,5.81-15.08,5.81-10.72,0,2.43,14.59,3.01,14.59-1,0-8,9.83-5.16,9.83-8.14,0-2.63,10.07-5.82,10.07-8.43,0-14.93,10.45-8.9,10.45-10.02,0-3.2,12.12-1.07,12.12-2.52,0-1.43,11.62,6.52,11.62,6.21,0,6.66,10.93,4.13,10.93-1.47,0-1.03,12.15-1.03,12.15-2.44,0-3.31,11.79,2.34,11.79.71,0,6.06,8.56,7.81,8.56s6.29,11.76,1.53,11.76c1.16,0-3.25,7.86,8.46,7.86-6.65,0,5.46,9.4,6,9.4,4.13,0-1.32,10.67,3.33,10.67-7.81,0,6.79,11.39,5,11.39,5.1,0-7.16,12.01-1.08,12.01,1.69,0-.86,10.26-5.3,10.26-3.62,0-5.24,10.74-1.45,10.74,1.88,0-.42,10-4.82,10,.12,0-10.36,10.73-4.37,10.73-2.32,0-5.35,11.44-4.61,11.44,2.06,0,8.63,10.73,8.44,10.73,7.1,0-8.7,12.31-6.48,12.31-2.49,0-2.63,11.13,2.74,11.13,2.86,0,10.57,9.9,7.46,9.9-1.31,0-3.14,11.81-.88,11.81-.19,0,6.42,9.91,6.52,9.91-7.05,0,1.8,11.2,1.49,11.2-2.42,0,2.24,11.19,1.34,11.19,3.4,0,5.58,10.52,4.24,10.52,1.44,0,8.18,10.84,3.17,10.84,7.08,0,11.4,10.98,3.55,10.98,3.36,0-4.73,11.76-5.22,11.76,5.71,0,.94,11.31,1.32,11.31-3.56,0,5.8,11.53,1.92,11.53-3.65,0-1.52,11.53-.11,11.53-7.86,0-2.59,11.01-4.22,11.01,2.26,0,1.64,11.43-.84,11.43.32,0-.68,11.85,1.36,11.85,1.36,0-6,10.38-7.03,10.38,2.63,0,2.65,12.05,2.45,12.05-3.47,0-5.93,11.64.5,11.64-4.46,0,2.31,10.86-4.12,10.86-1.2,0,1.62,11.35-.75,11.35,1.91,0-10.47,10.74-7.8,10.74-4.33,0-3.47,11.49-3.28,11.49,2.36,0,3.47,11.63,5.57,11.63,1.91,0-1.37,11.32,2,11.32-.27,0-9.65,12.33-4.99,12.33,4.22,0,6.12,10.54,7.6,10.54,3.34,0,10.16,3.89,10.27,3.89-4.85,0,1.55,9.59,5.82,9.59,2.55,0,2.59,11.16,1.79,11.16,3.72,0,3.2,11.54,5.74,11.54.79,0,3.42,12.08,1.85,12.08,1.83,0-10.35,10.71-12.04,10.71-.36,0,3.92,12.54,5.77,12.54,4.37,0,1.78,10.45-8.35,10.45,4.91,0,12.11,13.01,5.86,13.01-.22,0,1.65,11.15-4.05,11.15-1.52,0-.71,11.7-.94,11.7,1.15,0,1.82,11.85.72,11.85,2.55,0-10.88,10.38-11.29,10.38-3.03,0,1.95,12.14,3.85,12.14.57,0-.72,11.34-2.55,11.34,1.19,0,4.67,11.31,2.75,11.31,1.94,0-2.05,11.16,2.81,11.16.35,0-4.43,10.36-6.26,11.82.92.76-1.33,11.17,1.59,11.41-1.45,3.23-.41,10.9,2.9,11.12-5.58.98-.68,10.93,3.73,11.1-.75,1.72,7.17,12.44,4.08,11.12,5.61,4.27-2.78,17.12-7.16,11.62.97.73,2.41,7.28,3.32,10.56h184.56V0Z"/>
</svg>