<?xml version="1.0" encoding="UTF-8"?>
<svg id="Layer_1" data-name="Layer 1" xmlns="http://www.w3.org/2000/svg" viewBox="0 0 889.35 237.44">
  <defs>
    <style>
      .cls-1 {
        fill: #fff;
        stroke-width: 0px;
      }
    </style>
  </defs>
  <path class="cls-1" d="m0,0v203.71c2.5-.78,5.14-1.86,6.39-2.05,5.15,3.4,9.42.8,11.44,3.8-1.08,7.3,12.09.99,11.4.43,2.23,2.09,9.12,4.27,11.46,5.11,2.61-7.21,11.01.83,11.37-1.46-.5,6.71,14.28-14.79,13.12-9.38,0,9.09,5.81,15.17,5.81,15.08,0,10.72,14.59-2.43,14.59-3.01,0,1,9.83,8,9.83,5.16,0,8.14,10.07,2.63,10.07,5.82,0,8.43,10.45,14.93,10.45,8.9,0,10.02,12.12,3.2,12.12,1.07,0,2.52,11.62,1.43,11.62-6.52,0-6.21,10.93-6.66,10.93-4.13,0,1.47,12.15,1.03,12.15,1.03,0,2.44,11.79,3.31,11.79-2.34,0-.71,8.56-6.06,8.56-7.81s11.76-6.29,11.76-1.53c0-1.16,7.86,3.25,7.86-8.46,0,6.65,9.4-5.46,9.4-6,0-4.13,10.67,1.32,10.67-3.33,0,7.81,11.39-6.79,11.39-5,0-5.1,12.01,7.16,12.01,1.08,0-1.69,10.26.86,10.26,5.3,0,3.62,10.74,5.24,10.74,1.45,0-1.88,10,.42,10,4.82,0-.12,10.73,10.36,10.73,4.37,0,2.32,11.44,5.35,11.44,4.61,0-2.06,10.73-8.63,10.73-8.44,0-7.1,12.31,8.7,12.31,6.48,0,2.49,11.13,2.63,11.13-2.74,0-2.86,9.9-10.57,9.9-7.46,0,1.31,11.81,3.14,11.81.88,0,.19,9.91-6.42,9.91-6.52,0,7.05,11.2-1.8,11.2-1.49,0,2.42,11.19-2.24,11.19-1.34,0-3.4,10.52-5.58,10.52-4.24,0-1.44,10.84-8.18,10.84-3.17,0-7.08,10.98-11.4,10.98-3.55,0-3.36,11.76,4.73,11.76,5.22,0-5.71,11.31-.94,11.31-1.32,0,3.56,11.53-5.8,11.53-1.92,0,3.65,11.53,1.52,11.53.11,0,7.86,11.01,2.59,11.01,4.22,0-2.26,11.43-1.64,11.43.84,0-.32,11.85.68,11.85-1.36,0-1.36,10.38,6,10.38,7.03,0-2.63,12.05-2.65,12.05-2.45,0,3.47,11.64,5.93,11.64-.5,0,4.46,10.86-2.31,10.86,4.12,0,1.2,11.35-1.62,11.35.75,0-1.91,10.74,10.47,10.74,7.8,0,4.33,11.49,3.47,11.49,3.28,0-2.36,11.63-3.47,11.63-5.57,0-1.91,11.32,1.37,11.32-2,0,.27,12.33,9.65,12.33,4.99,0-4.22,10.54-6.12,10.54-7.6,0-3.34,3.89-10.16,3.89-10.27,0,4.85,9.59-1.55,9.59-5.82,0-2.55,11.16-2.59,11.16-1.79,0-3.72,11.54-3.2,11.54-5.74,0-.79,12.08-3.42,12.08-1.85,0-1.83,10.71,10.35,10.71,12.04,0,.36,12.54-3.92,12.54-5.77,0-4.37,10.45-1.78,10.45,8.35,0-4.91,13.01-12.11,13.01-5.86,0,.22,11.15-1.65,11.15,4.05,0,1.52,11.7.71,11.7.94,0-1.15,11.85-1.82,11.85-.72,0-2.55,10.38,10.88,10.38,11.29,0,3.03,12.14-1.95,12.14-3.85,0-.57,11.34.72,11.34,2.55,0-1.19,11.31-4.67,11.31-2.75,0-1.94,11.16,2.05,11.16-2.81,0-.35,10.36,4.43,11.82,6.26.76-.92,11.17,1.33,11.41-1.59,3.23,1.45,10.9.41,11.12-2.9.98,5.58,10.93.68,11.1-3.73,1.72.75,12.44-7.17,11.12-4.08,4.27-5.61,17.12,2.78,11.62,7.16.73-.97,7.28-2.41,10.56-3.32V0H0Z"/>
</svg>