<?xml version="1.0" encoding="UTF-8"?>
<svg id="Layer_1" data-name="Layer 1" xmlns="http://www.w3.org/2000/svg" viewBox="0 0 1108.62 401.63">
  <defs>
    <style>
      .cls-1 {
        fill: #fff;
        stroke-width: 0px;
      }
    </style>
  </defs>
  <path class="cls-1" d="m0,0v344.57c3.12-1.32,6.41-3.14,7.96-3.47,6.41,5.74,11.74,1.36,14.26,6.42-1.34,12.35,15.08,1.68,14.21.73,2.78,3.53,11.36,7.22,14.28,8.64,3.26-12.19,13.72,1.4,14.18-2.47-.62,11.35,17.81-25.01,16.36-15.86,0,15.38,7.24,25.65,7.24,25.52,0,18.13,18.18-4.11,18.18-5.1,0,1.69,12.25,13.53,12.25,8.73,0,13.78,12.56,4.44,12.56,9.84,0,14.27,13.02,25.25,13.02,15.06,0,16.95,15.11,5.42,15.11,1.82,0,4.26,14.48,2.42,14.48-11.03,0-10.5,13.62-11.26,13.62-6.99,0,2.49,15.15,1.74,15.15,1.75,0,4.12,14.7,5.59,14.7-3.97,0-1.21,10.67-10.25,10.67-13.21s14.66-10.64,14.66-2.59c0-1.96,9.8,5.49,9.8-14.32,0,11.24,11.72-9.24,11.72-10.15,0-6.98,13.3,2.24,13.3-5.63,0,13.2,14.19-11.48,14.19-8.47,0-8.63,14.98,12.12,14.98,1.82,0-2.86,12.79,1.46,12.79,8.97,0,6.12,13.39,8.87,13.39,2.45,0-3.18,12.47.7,12.47,8.15,0-.21,13.37,17.52,13.37,7.39,0,3.93,14.26,9.05,14.26,7.8,0-3.48,13.37-14.59,13.37-14.27,0-12,15.34,14.72,15.34,10.96,0,4.21,13.87,4.46,13.87-4.63,0-4.83,12.34-17.88,12.34-12.62,0,2.22,14.72,5.31,14.72,1.49,0,.31,12.35-10.87,12.35-11.03,0,11.93,13.96-3.05,13.96-2.53,0,4.09,13.95-3.79,13.95-2.26,0-5.76,13.12-9.44,13.12-7.16,0-2.44,13.52-13.84,13.52-5.36,0-11.97,13.69-19.28,13.69-6.01,0-5.69,14.67,8,14.67,8.84,0-9.66,14.1-1.59,14.1-2.23,0,6.02,14.38-9.81,14.38-3.25,0,6.18,14.37,2.58,14.37.18,0,13.29,13.73,4.38,13.73,7.13,0-3.83,14.25-2.78,14.25,1.43,0-.54,14.77,1.15,14.77-2.3,0-2.29,12.94,10.15,12.94,11.89,0-4.45,15.03-4.48,15.03-4.14,0,5.86,14.51,10.03,14.51-.85,0,7.55,13.54-3.91,13.54,6.97,0,2.03,14.15-2.73,14.15,1.28,0-3.24,13.39,17.71,13.39,13.19,0,7.32,14.32,5.86,14.32,5.55,0-4,14.49-5.87,14.49-9.41,0-3.23,14.11,2.31,14.11-3.39,0,.45,15.37,16.32,15.37,8.44,0-7.13,13.14-10.36,13.14-12.86,0-5.65,4.85-17.18,4.85-17.38,0,8.21,11.95-2.62,11.95-9.84,0-4.31,13.91-4.38,13.91-3.03,0-6.3,14.39-5.41,14.39-9.7,0-1.33,15.06-5.78,15.06-3.12,0-3.09,13.35,17.51,13.35,20.37,0,.6,15.63-6.63,15.63-9.75,0-7.39,13.02-3,13.02,14.12,0-8.31,16.22-20.48,16.22-9.91,0,.37,13.9-2.8,13.9,6.86,0,2.56,14.59,1.21,14.59,1.6,0-1.94,14.78-3.07,14.78-1.22,0-4.32,12.93,18.4,12.93,19.1,0,5.13,15.13-3.3,15.13-6.51,0-.97,14.14,1.21,14.14,4.31,0-2.01,14.1-7.9,14.1-4.66,0-3.27,13.91,3.47,13.91-4.75,0-.6,12.91,7.49,14.73,10.59.95-1.55,13.93,2.24,14.22-2.69,4.02,2.45,13.59.69,13.86-4.91,1.22,9.45,13.63,1.15,13.83-6.32,2.14,1.27,15.51-12.12,13.86-6.9,5.32-9.49,21.34,4.7,14.48,12.11.91-1.63,9.08-4.07,13.16-5.61V0H0Z"/>
</svg>